<svg id="Community" xmlns="http://www.w3.org/2000/svg" viewBox="0 0 420 337.4"><polygon points="211.28 97.11 260.09 125.26 255.51 122.62 211.28 97.11 211.28 97.11" fill="#fff"/><polygon points="416.52 95.06 415.23 95.8 416.52 95.06 416.52 95.06" fill="#fff"/><polygon points="166.85 118.69 166.85 118.69 204.61 96.92 207.78 95.09 207.75 95.07 166.85 118.69" fill="#fff"/><polygon points="166.85 118.69 166.85 118.69 163.42 120.67 166.84 118.7 166.85 118.69 166.85 118.69" fill="#fff"/><polygon points="166.85 118.69 166.85 118.69 166.84 118.7 204.61 96.92 166.85 118.69" fill="#fff"/><polygon points="105.7 153.96 105.7 153.96 97.72 149.35 105.7 153.96" fill="#fff"/><polygon points="207.78 95.09 207.79 95.08 207.76 95.06 207.75 95.07 207.78 95.09" fill="#fff"/><polygon points="165.82 121.96 108.08 155.31 208.96 213.56 208.96 97.08 208.96 97.08 205.66 98.99 165.82 121.96" fill="#b0f2dc"/><polygon points="211.28 216.24 211.28 216.24 211.28 334.07 313.32 275.16 313.32 157.32 313.32 157.32 211.28 216.24" fill="#b0f2dc"/><polygon points="118.92 219.54 153.26 239.29 153.26 199.79 118.92 179.97 118.92 219.54" fill="#b0f2dc"/><polygon points="161.27 244.3 195.61 264.05 195.61 224.55 161.27 204.73 161.27 244.3" fill="#b0f2dc"/><polygon points="118.92 269.71 153.26 289.46 153.26 249.97 118.92 230.14 118.92 269.71" fill="#b0f2dc"/><polygon points="161.27 294.47 195.61 314.22 195.61 274.73 161.27 254.9 161.27 294.47" fill="#b0f2dc"/><path d="M420,95a.43.43,0,0,0,0-.11,1.05,1.05,0,0,0-.12-.38h0a1,1,0,0,0-.27-.31l-.08-.06-.07-.06L315.06,33.79a1.18,1.18,0,0,0-1.15,0L210.1,93.73,106.28,33.79a1.17,1.17,0,0,0-1.17,0L.77,94.05a1.16,1.16,0,0,0,0,2l.07,0s0,0,0,0L104.6,156V275.82a1.15,1.15,0,0,0,.58,1l104.36,60.26.06,0,.16.07.26.05.1,0h0a1.16,1.16,0,0,0,.41-.09l.06,0,.11-.05,104.35-60.25a1.16,1.16,0,0,0,.58-1V156L419.42,96.06a1.34,1.34,0,0,0,.31-.27l.06-.08a1.14,1.14,0,0,0,.17-.35h0a1,1,0,0,0,0-.29S420,95,420,95ZM313.33,275.16l-102,58.91V216.24h0l102-58.92h0ZM212.43,95.06,314.49,36.14l102,58.92h0l-1.29.74L314.49,154l-32-18.45Zm-3.47,239-102-58.91V157.34l76.53,44.17L209,216.24ZM3.78,95.12l-.11-.06,102-58.92L207.76,95.06l0,0h0l-3.17,1.83L166.84,118.7l-3.42,2L105.71,154h0l-8-4.61Zm205.18,2V213.56L108.08,155.31,165.82,122l39.84-23,3.3-1.91Zm2.32,0h0l44.23,25.51,4.58,2.64,52.09,30-100.9,58.26Z" fill="#32cb87"/><path d="M117.67,220.26l36.84,21.19V199.07L117.67,177.8Zm2.5-38.13L152,200.52v36.61l-31.84-18.31Z" fill="#32cb87"/><path d="M160,245l36.84,21.19V223.83L160,202.56Zm2.5-38.13,31.84,18.39v36.61l-31.84-18.31Z" fill="#32cb87"/><path d="M117.67,270.44l36.84,21.18V249.24L117.67,228Zm2.5-38.13L152,250.69V287.3L120.17,269Z" fill="#32cb87"/><path d="M160,295.2l36.84,21.18V274L160,252.74Zm2.5-38.13,31.84,18.38v36.61l-31.84-18.31Z" fill="#32cb87"/></svg>