<svg id="Composable" xmlns="http://www.w3.org/2000/svg" viewBox="0 0 432 432"><path d="M227.23,126.53c.26-1,62.34-35.42,62.92-36V81.29l-70.94,40.43v36.12l7.35-4.19C226.68,153.07,226.92,127.05,227.23,126.53Z" fill="#b0f2dc"/><path d="M271.9,188.91l7.53-4.37V157.37c-.4-1.75,62.09-35.66,62.69-36.67v-9.57L271.2,151.66Z" fill="#b0f2dc"/><polygon points="395.64 141.98 324.65 182.42 324.92 218.59 395.81 178.02 395.64 141.98" fill="#b0f2dc"/><path d="M144.15,242.58,73.32,283.92l.19,35.71,6.66-3.86c0-.18.6-26.6.66-26.74-.18-1.43,62.74-36.32,63.32-37.17Z" fill="#b0f2dc"/><path d="M196.53,273.75l-71.35,40v36.12l8.25-4.7V319c-.4-1.74,62.4-35.84,63-36.85Z" fill="#b0f2dc"/><polygon points="178.35 344.35 178.39 380.55 249.19 339.41 249.12 303.5 178.35 344.35" fill="#b0f2dc"/><path d="M153.23,207.81a1.27,1.27,0,0,1,1.52-1.55l62.72-35.06v-9.26l-70.94,40.43v36.12l6.7-3.82Z" fill="#b0f2dc"/><path d="M269.52,201.36l0-8.34L199,233.55c0,8.8,0,27.42,0,36.09l7.84-4.54c.05-.46-.12-26.61,0-27C207,236.77,268.85,202.16,269.52,201.36Z" fill="#b0f2dc"/><path d="M252,262.44l-.49,36.92L323,258.14l-.39-35.47Z" fill="#b0f2dc"/><path d="M292.52,79.1c0,.05,0,.1,0,.15h0S292.52,79.15,292.52,79.1Z" fill="#32cb87"/><path d="M175.81,95.83a.86.86,0,0,0-.3.12A1.18,1.18,0,0,0,175.81,95.83Z" fill="#32cb87"/><path d="M175.35,96.07a1,1,0,0,1,.16-.12h0A1,1,0,0,0,175.35,96.07Z" fill="#32cb87"/><path d="M344.49,108.93s0,.1,0,.15h0S344.49,109,344.49,108.93Z" fill="#32cb87"/><path d="M227.9,125.89a1,1,0,0,0-.3.18Z" fill="#32cb87"/><path d="M398,139.76a1,1,0,0,1,0,.24v-.07A1,1,0,0,0,398,139.76Z" fill="#32cb87"/><path d="M398.2,178.7s-.17-36.28-.18-38.65a1,1,0,0,1-.23.56,1.35,1.35,0,0,0-.19-1.57,1.08,1.08,0,0,1,.26.3,1.3,1.3,0,0,0-.26-.31,1.13,1.13,0,0,0-.35-.21l-.09,0h-.08l-.19,0a.55.55,0,0,1,.18,0c-4.18-2-42.29-25.69-43.61-24.58l-8.95,5.14V109.08a1.24,1.24,0,0,1-.36.84,1.26,1.26,0,0,0-.3-1.92.92.92,0,0,0-.36-.1h0a1.1,1.1,0,0,0-.44,0,1,1,0,0,1,.42,0C338.39,105.21,302.91,83,301.54,84l-9,5.11V79.25a1.24,1.24,0,0,1-.36.84,1.27,1.27,0,0,0-.32-1.93L250,53.5c-1.28-1.21-69,39.8-74.23,42.33a1.26,1.26,0,0,1,.61,0,1.26,1.26,0,0,0-1.51,1.26c0,2.13.14,37.61.14,37.61,0,.19,0,.43,0,.66,0-.23,0-.47,0-.66l-73.2,42.57a1.21,1.21,0,0,1,.91-.12,1.26,1.26,0,0,0-1.5,1.27V215.8L28.79,257.61a1.18,1.18,0,0,1,.92-.11,1.26,1.26,0,0,0-1.51,1.25c0,2.14.05,38.51.05,38.51a1.19,1.19,0,0,0,.61,1l42,23.57c.22.11.58.34.92.5a2.24,2.24,0,0,1-.92-.5c.19,3.64,8.11-3.2,9.28-3.31.26.87-.86,9.29.39,9.59L123.39,353a1.15,1.15,0,0,1-.55-.73,1.26,1.26,0,0,0,1.84.68l8.75-5v9.9c-.33,1.73,39.18,22.95,42.89,25.57a1.16,1.16,0,0,1-.25-.43,1.28,1.28,0,0,0,1.88.56.27.27,0,0,0,.08-.07l0,0c4.92-3.35,73.9-41.66,73.5-43.35l-.07-38-.65.38.05,0h0l-.06,0,.16-.1-.05,0,0,0h0l.6-.35c.6-1,74.28-41.54,73.85-43.31l-.41-37.48-.23.13.23-.13C325.55,220.3,398.61,180.46,398.2,178.7Zm-73.86,43,0,0a.71.71,0,0,0,.14-.1A.39.39,0,0,1,324.34,221.67ZM323,258.14l-71.43,41.22.49-36.92,63.76-35.94,8-4.5.11-.06-.11.06-1.19.67Zm-73.77,81.27-70.8,41.14,0-36.2,70.77-40.85ZM30.58,260.71l40.35,23.21h0l.19,35.38-.3-.17-40.2-22.57Zm73.07-80.4h0l40.5,22.07.47.26-.47-.26v36.15l-40.5-22.06V180.31Zm1.23-2,71.37-41.5h0l40,23.12-.31.17-70.63,40.25h0l-2.05-1.12ZM249.43,55.91,289,79.22l-71,40.43L178.49,97Zm145,84-71,40.43h0l-16.16-9.2-1.2-.68-1.2-.68L283,157.36l59.09-33.91,1.19-.68,1.2-.69,9.54-5.48,40.38,23.33ZM395.81,178l-70.89,40.57-.27-36.17,71-40.44Zm-72.07,43.81a.4.4,0,0,1-.18,0,.64.64,0,0,0,.2,0Zm-8,4.7-6,3.38Zm-6.53,3.69-1.64.92Zm-3,1.7L302,234.28Zm-7.49,4.23-7.8,4.39Zm-10,5.62-.24.13Zm-2.84,1.6-1.19.67Zm-4.92,2.77-.68.39Zm-5.71,3.22-.91.51Zm-3.39,1.91-.7.39Zm-2.77,1.56-.49.28Zm-3.89,2.2-.66.37Zm-2.34,1.31-1.93,1.09Zm-6.28,3.54-1.35.77ZM252,261.43a.7.7,0,0,0-.12-.28.92.92,0,0,0-.19-.25.76.76,0,0,1,.19.25A.7.7,0,0,1,252,261.43Zm-73.64,82.26c0,.23,0,.47,0,.66C178.35,344.16,178.36,343.92,178.35,343.69Zm-44.64-24a.74.74,0,0,0,.12.13A.74.74,0,0,1,133.71,319.72ZM81.07,289.94l.11.12Zm18.77,10.78-1.46-.82Zm-2.58-1.46-.53-.3Zm-6-3.44-2.32-1.32Zm-4.15-2.35-.8-.46Zm-2.8-1.6-.56-.32Zm-11-8.67v.14a1.75,1.75,0,0,0,0-.4,1,1,0,0,1,0,.24V283S73.32,283.13,73.32,283.2ZM177.31,99l39.52,22.67v35.74L177.44,134.7Zm40.75,23.17h0a.79.79,0,0,1-.3,0,.79.79,0,0,0,.3,0ZM323,221.52a.27.27,0,0,0,.08.07A.27.27,0,0,1,323,221.52Zm-72.13,38.85h0l-15.94-8.68-.07,0-.23-.13.23.13L233.6,251l-1.23-.67h0l-.79-.43-1.39-.76-.25-.13-19.56-10.66,59.14-34.21,1.19-.7,1.2-.69,8.48-4.91,1-.56,40,23.36h0l0,0Zm.42.23-.42-.23-.46.26.46-.26Zm-74.09,81.68h0l.49.29-.49-.29c-.19.12-.44.25-.67.4.23-.15.49-.28.67-.4l-16.73-9.71-1.2-.69-1.19-.69L137,319l59.4-34.09,1.2-.69,1.2-.69,9.19-5.27a6.51,6.51,0,0,1-.8-.5,6.51,6.51,0,0,0,.8.5l4.58,2.67L208,278.24l20.92,12.15-16.34-9.48,35.35,20.52h0Zm18-70.47-.56.32-.36.2L185,277.49l4.48-2.52L183,278.63l1.86-1-4.07,2.28-3.28,1.84-.42.24L175.17,283l-1,.57.7-.39-1.2.68.5-.29-10.8,6.06,3.65-2-43,24.12.44.25-.44-.25h0l-16.19-9.21-1.2-.68-1.2-.68-21-12,59.76-34.57,1.19-.69,1.19-.69,7.3-4.22,41.46,22.7.17-.1-.17.1Zm-22.75,12.77L169.78,286Zm-49,27.47.15-.08a1.75,1.75,0,0,0-.42.29A1.39,1.39,0,0,1,123.41,312.05Zm22.79-70.62.33-.2,6.7-3.81v9.19l-6.7,3.87v-9.25A3.19,3.19,0,0,1,146.2,241.43Zm-2-1.54c0,.18,0,.4,0,.62C144.14,240.29,144.15,240.07,144.15,239.89Zm.38,1.52.1.07Zm-.34-.58a1,1,0,0,0,.1.27A1,1,0,0,1,144.19,240.83Zm.25.58-.33-.18Zm.28.15-.14-.08Zm1.81-39.85c0,.23,0,.47,0,.66C146.53,202.18,146.54,201.94,146.53,201.71Zm72.68-41.91v-.59A3.87,3.87,0,0,1,219.21,159.8Zm9.74-6.13,0-1.39.48-23.23,20,11.53,1.2.69,1.2.69,16.89,9.71.71,37.24-13.06-7.24c-9-5-20.31-11.35-25.74-14.26l-2-1.12.24-11.23Zm42.83,36.68h0s0,.1.07.16h0a.87.87,0,0,0-.07-.17c0-.05-.07-.08-.1-.13Zm.16,1V191c0,.1,0,.2,0,.3s0,.09-.06.13a1.27,1.27,0,0,0,.07-.67l0,.23Zm9.88-6.83V159.42l20.68,11.76,1.2.69,1.2.68,17.36,9.88.17,21.49-.08-9.44c.07,8.63.14,18.51.19,24.07h0L282,194.85l-.15-.07a1.28,1.28,0,0,0-.28-.07,1.28,1.28,0,0,1,.28.07V184.54Zm40.44-2.42a2.62,2.62,0,0,1,0-.69A2.62,2.62,0,0,0,322.26,182.12Zm0,3.61c0,.64,0,1.3,0,2Zm0,3.44c0,1.17,0,2.39,0,3.64ZM198.92,271.89a1.93,1.93,0,0,0,0-.34.77.77,0,0,1,0,.15h0A1.1,1.1,0,0,1,198.92,271.89Zm-2,.69.09.07Zm.18.14-.14-.07Zm-50.61-32.07a.37.37,0,0,0,0-.11v0a.07.07,0,0,1,0,.06.28.28,0,0,0,0-.09v0h0v0a1.27,1.27,0,0,1-.05.34.34.34,0,0,0,0-.14S146.51,240.68,146.52,240.65ZM226.29,167a1.16,1.16,0,0,0,.14.58A1.16,1.16,0,0,1,226.29,167Zm42.51-16a1.86,1.86,0,0,1,0-.34A1.86,1.86,0,0,0,268.8,151Zm2.54,41,.3-.18-.3.18-.3.17-.3.17.3-.17.3-.17-.08,0,.11-.06Zm.29-.27a.64.64,0,0,0,.1-.13A.64.64,0,0,1,271.63,191.72Zm-1.63.18-.46-.25ZM199,232.55a.79.79,0,0,0-.12-.28A.79.79,0,0,1,199,232.55Zm-1.15-1.07-.44.26ZM197,232a.72.72,0,0,0-.19.24A.72.72,0,0,1,197,232Zm30.52-63.67,2,1.1h0l25.85,14.31-.06,0L268.32,191l-27.47,15.78-43,24.73h0L181,221.61l-1.19-.7-1.19-.69-21.43-12.58,60.3-33.7,1.2-.67,1.19-.67ZM198.65,232a3.49,3.49,0,0,0-.49-.33A3.49,3.49,0,0,1,198.65,232Zm-44.74-23.13.51.3A4,4,0,0,1,153.91,208.89Zm1.71,27.17V209.49l20.59,12.09,1.19.69,1.19.7,18,10.57c0-.15,0-.35,0-.54v.54h0a2.64,2.64,0,0,0,1.2.5.36.36,0,0,0,.14,0,.36.36,0,0,1-.14,0h0c-.39,0-.87-.33-1.2-.5,0,5.5,0,18,0,27.28v8.86l-40.94-22.41V236.06ZM198.1,234l.13,0Zm0,36.53-.37-.2Zm-1.56-3v0Zm-42.14-21.49a.81.81,0,0,1,.31,0A.81.81,0,0,0,154.42,246.06Zm42.66,24.66-.52.29C196.71,270.93,196.89,270.81,197.08,270.72Zm1.24-.06,0,0,0,0Zm-.17-.07-.11,0Zm.51.37a.52.52,0,0,0-.1-.11A.52.52,0,0,1,198.66,271Zm-.24-37.08.13-.07Zm.57-.64v6c0-2.16,0-4.1,0-5.71ZM269.55,193l-.19.1Zm-.58.33-3,1.7Zm-4.27,2.45-3.63,2.09Zm-4.4,2.53-2.57,1.48Zm-4.55,2.61L245.17,207ZM243,208.3l-1.51.87ZM229.53,216l-.38.22Zm-8.9,5.11-1.41.81ZM216,223.78l-4.15,2.38Zm-5.05,2.9-1.22.7Zm-5,2.85-1.77,1Zm-3.1,1.79-1.15.65Zm-2.56,1.47-.16.09Zm-.82.47-.2.12Zm71.24-41.11h0a1.45,1.45,0,0,1-.29,0l-.23-.09a1.37,1.37,0,0,0,.52.13h0Zm-1.19-1.27c0-.21,0-.43,0-.59ZM227.5,165.79a1.48,1.48,0,0,0-.75.23l.14-.08a1.31,1.31,0,0,1,.61-.15,1.19,1.19,0,0,1,.55.15l2.61,1.44A32.14,32.14,0,0,0,227.5,165.79Zm29,15.92,13,7.2C269.24,188.81,263.6,185.66,256.53,181.71ZM217.47,171.2l-62.72,35.06a2.24,2.24,0,0,1,.34.16,2.24,2.24,0,0,0-.34-.16,1.28,1.28,0,0,0-1.52,1.55,1.21,1.21,0,0,1,.61-1l.07,0a1.65,1.65,0,0,0-.68,1.11v26.82l-6.7,3.82V202.37l70.94-40.43Zm-61.59,35.68-.59-.35Zm42.9,64.23a1.48,1.48,0,0,1,.13.35,1.48,1.48,0,0,0-.13-.35Zm.13.83a2,2,0,0,1-.12.34A2,2,0,0,0,198.91,271.94Zm0-.93v0Zm0-1.37V257.83c0-3.61,0-7.46,0-11.13v7.83l0-21,.3-.17.22-.13.63-.36.24-.14,1.05-.6,1.62-.93,1-.57,2.46-1.41,2.83-1.63,8.18-4.7,1-.59,51-29.3,0,8.34-62.18,36a1,1,0,0,1,.8-.13,1.25,1.25,0,0,0-1.38,1.28l0,26.62Zm0-5.69c0-1.74,0-3.63,0-5.59Zm0-21.51v3.92C199,245,199,243.71,199,242.44Zm7.83-3.73a1.57,1.57,0,0,0,.57.7A1.2,1.2,0,0,1,206.81,238.71Zm72.62-42.31v0Zm0,.24a1.65,1.65,0,0,0,.06.32A1.14,1.14,0,0,1,279.44,196.64Zm1.19-1.71.14-.08.07,0A1,1,0,0,0,280.63,194.93Zm.32-.16.21-.05Zm.28-.07h0Zm-1.8.92L271.91,200l0-8.33,7.49-4.34Zm-8.33-5.8.21.09h0ZM270,190a2.16,2.16,0,0,1,.34-.17A2.16,2.16,0,0,0,270,190Zm-.57-38-.13-.07a1.34,1.34,0,0,0,.73.22A1.14,1.14,0,0,1,269.4,152Zm-43.1,14.26c0,.19,0,.43,0,.67,0-.24,0-.48,0-.67l-6.44,3.6v-9.65l6.64-3.79Zm-6.45-6.41a1.23,1.23,0,0,0-.08-.39s0,.07,0,.11A2.19,2.19,0,0,1,219.85,159.86Zm-.22.73a.84.84,0,0,0,.17-.34A.84.84,0,0,1,219.63,160.59Zm-2.08.39-.1,0Zm-.1,0h0a.75.75,0,0,0,.13.06h0Zm1.22,0a1.18,1.18,0,0,0,.37-.4,1,1,0,0,1-.37.4l0,0-.08,0Zm-.32.14-.1,0Zm.75-.65v0Zm-1.92.36a1.18,1.18,0,0,1-.31-.54A1.18,1.18,0,0,0,217.18,160.74Zm-71,78.94-.13-.11Zm-.24-.2-.23-.1.21.09Zm.44.46h0s0,.07.05.1a1.17,1.17,0,0,1-.05-.11c0,.09.07.16.1.25h0a.82.82,0,0,0-.1-.24s0,0,0-.08A.18.18,0,0,0,146.39,239.94Zm.1.83a.84.84,0,0,1-.05.17A.84.84,0,0,0,146.49,240.77Zm-.23.52a1.21,1.21,0,0,1-.16.16A1.21,1.21,0,0,0,146.26,241.29Zm-.23.18h0Zm.22-.22.07-.07Zm.19-.27a.7.7,0,0,1-.11.21A.7.7,0,0,0,146.44,241Zm6.79,7v0Zm43.29,23-.11.06Zm.33,1.54-.33-.18Zm.89.33h0a.91.91,0,0,0,.36-.06A1.15,1.15,0,0,1,197.74,272.9Zm.45-.1a1.22,1.22,0,0,0,.29-.17,1.27,1.27,0,0,1-.12.1h0Zm.53-.43a1.21,1.21,0,0,1-.21.24A1,1,0,0,0,198.72,272.37Zm-.13.23.35-.2s0-.18,0-.34v.34l7.85-4.55,0,8.32c0,.19,0,.42,0,.66,0-.24,0-.47,0-.66l-8,4.57.1-8.34Zm8.37,4.86a.83.83,0,0,1-.11-.29A.83.83,0,0,0,207,277.46Zm22.43,13.2,18.54,10.77Zm-21.39-15a.8.8,0,0,1,.3,0A.8.8,0,0,0,208,275.67Zm-.71.23a1.81,1.81,0,0,1,.4-.19A1.81,1.81,0,0,0,207.29,275.9ZM233.6,251l.61.34Zm46.23-53.52s0,0,0,0S279.84,197.47,279.83,197.46Zm43.28,22.17-.56.31C322.71,219.86,322.91,219.73,323.11,219.63Zm.62-.38.41.24Zm.58.35h0a1.09,1.09,0,0,0-.23-.09ZM324,182.77a1.19,1.19,0,0,1-.58.15,1.16,1.16,0,0,1-.6-.15l-.09-.05a1.33,1.33,0,0,0,.69.2,1.26,1.26,0,0,0,.66-.2Zm-.59-2.41c-.32.19-.87.42-1,.78.17-.35.72-.59,1-.78l.45.26Zm-51.52,10.08v0Zm-1.21-.86.39.21Zm-.41-37.46a2.66,2.66,0,0,0,.56-.28A2.66,2.66,0,0,1,270.31,152.12Zm-1.17-2a.84.84,0,0,0-.18.24A.84.84,0,0,1,269.14,150.14Zm-41.36-22.06.51.29A3.7,3.7,0,0,1,227.78,128.08Zm-8.27,31h0a2.12,2.12,0,0,1,.23.35,1.41,1.41,0,0,0-.23-.35,1.5,1.5,0,0,0-.25-.19l0,0,0,0h0a2,2,0,0,1,.24.19,1.5,1.5,0,0,0-.25-.19A1.5,1.5,0,0,1,219.51,159.05Zm-1.19-36.88a1.73,1.73,0,0,0,.46-.21A1.73,1.73,0,0,1,218.32,122.17Zm-1.49-.46.32.19Zm0,38.18a1.71,1.71,0,0,1,0-.32A1.71,1.71,0,0,0,216.83,159.89Zm-70.34,41.48a.83.83,0,0,0-.11-.29A.83.83,0,0,1,146.49,201.37Zm-.63,38.06-.33-.19Zm-1-36.68a1.09,1.09,0,0,0,.47.12A1.09,1.09,0,0,1,144.87,202.75Zm.78,36.6a1.06,1.06,0,0,0-.31,0A1.55,1.55,0,0,1,145.65,239.35Zm-1.19.28a2.58,2.58,0,0,1,.58-.28A2.58,2.58,0,0,0,144.46,239.63ZM72.92,282.35l-.09-.07Zm0,1.79a2.52,2.52,0,0,1-.5.24A2.52,2.52,0,0,0,72.94,284.14Zm.22-1.51a1.36,1.36,0,0,1,.11.28A.78.78,0,0,0,73.16,282.63Zm72.55-41-.06,0h-.05l.11,0a1.05,1.05,0,0,0,.3-.15h0l-.17.09-.08,0,.07,0-.48.26ZM122.8,313.13a1.11,1.11,0,0,1,0-.19A1.11,1.11,0,0,0,122.8,313.13Zm2-.87a.87.87,0,0,1,.19.25A1.5,1.5,0,0,0,124.84,312.26Zm.34.93c0,.22,0,.43,0,.6ZM143,303.78l-1.31.73Zm-10.13,5.68-2,1.15Zm-3.69,2.07-2.36,1.33Zm66.07-37.07-1.5.85Zm-3.72,2.09-.81.45Zm-4.76,2.67-.15.09ZM198,272.91l-.3.17Zm-21.5,71.77c-.21-.11-.41-.24-.57-.33C176.13,344.44,176.33,344.57,176.54,344.68Zm-.57-1a1.22,1.22,0,0,1,0-.34A1.22,1.22,0,0,0,176,343.69Zm.34-.87a.69.69,0,0,0-.18.24A.69.69,0,0,1,176.31,342.82Zm2,.53a.84.84,0,0,0-.12-.29A.84.84,0,0,1,178.31,343.35Zm70.81-41.23.38.23Zm.45-1.63-.45.25Zm1.33-.08-.22-.1.2.08Zm-.58-.34.38.22Zm.3.22a1,1,0,0,0-.3,0A1,1,0,0,1,250.62,300.29Zm-1-37.85-.5,36.94h0L216.9,280.66l2.07,1.2-9.78-5.68h0l-.38-.22.38.22V263.72l0-23.35L230,251.71l1.23.67,1.23.67,0,0,0,0,3.71,2,13.52,7.37h0l.5.27Zm-1.58,36.31-1.63-.94Zm-2.58-1.49c-.48-.29-1-.58-1.53-.89ZM240,294.08l-1.76-1Zm-10.71-6.22-.52-.3Zm20.33-26.06,0-.26Zm.46-1a1,1,0,0,0-.3.36A.92.92,0,0,1,250.1,260.81Zm72.76-39.3-.33-.18Zm.27.15-.11-.06Zm1.58-1.71a.71.71,0,0,0,.07.09h0a.5.5,0,0,1,.05.13h0l-.06-.14S324.73,220,324.71,220Zm-.09-38.35a1,1,0,0,0-.14-.46A1,1,0,0,1,324.62,181.6Zm0,.82c0-.18,0-.42,0-.65C324.65,182,324.64,182.24,324.65,182.42Zm17.47-61.72L280,156.33a1,1,0,0,1,.74-.14,1.2,1.2,0,0,0-1.09,1.88,1,1,0,0,1-.25-.7v27.17l-7.53,4.37-.7-37.25,70.92-40.53ZM271.17,151V151a1.25,1.25,0,0,0-.15-.61,1.34,1.34,0,0,0-.59-.53l.15.08a1.27,1.27,0,0,1,.44.45A1.2,1.2,0,0,1,271.17,151Zm-1.85-.95a7.35,7.35,0,0,1,.67-.4C269.8,149.72,269.54,149.85,269.32,150Zm.67-.4-15.68-9-1.19-.69-1.2-.68L230.72,127l59.43-33.78,1.19-.68,1.2-.67,9.58-5.45,38.81,22.62Zm20.16-59.1c-.12.09-57.63,32.71-62.25,35.39a1,1,0,0,1,.57,0,1.25,1.25,0,0,0-1.35,1.24s0,0,0,.07h0a1.3,1.3,0,0,0,.53.83,1.26,1.26,0,0,1-.53-.83c-.11,3.13-.54,26.33-.57,26.49l-7.35,4.19V121.72l70.94-40.43ZM219.21,121v.12a1.31,1.31,0,0,0-.15-.71,1.48,1.48,0,0,0-.58-.52l.13.08a1.27,1.27,0,0,1,.45.44A1.2,1.2,0,0,1,219.21,121Zm-1.78-1,.13-.08a1.38,1.38,0,0,0-.57.52,1.26,1.26,0,0,0-.16.72V121a1.21,1.21,0,0,1,.16-.59A1.1,1.1,0,0,1,217.43,120Zm-40.88,14.25a.68.68,0,0,0-.31,0A.68.68,0,0,1,176.55,134.24Zm-30.5,66.49-.17-.12Zm-1.14-.19a2.17,2.17,0,0,0-.42.31.89.89,0,0,1,.26-.21Zm-.76,1.15v0Zm-41.7,13.56a.94.94,0,0,1,.41,0A.94.94,0,0,0,102.45,215.25Zm-.59,3,41,22.34h0l-70.76,41.3-.74-.43-39.6-22.79ZM70.93,282.34v0a1,1,0,0,0,0,.24Zm.45-.91a1.26,1.26,0,0,0-.2.2A1.26,1.26,0,0,1,71.38,281.43Zm-.26.29a1.51,1.51,0,0,0-.09.18A1.51,1.51,0,0,1,71.12,281.72ZM71,282a1.74,1.74,0,0,0,0,.22A1.42,1.42,0,0,1,71,282Zm1.12,2.46a1.23,1.23,0,0,1-.59-.15l-.06,0A1.18,1.18,0,0,0,72.12,284.42Zm1.39,35.21-.19-35.71v0l70.83-41.34v9.28c-.12.09-62.78,36.28-62.87,36.4a1.09,1.09,0,0,1,.87-.23A1.2,1.2,0,0,0,81,289.88a1.12,1.12,0,0,1-.2-.85c-.06.09-.63,26.63-.66,26.74Zm8.8-31.57-.1,0Zm.22,29.1,0-1.4,0-1.39.55-23.15,9.94,5.66,1.14.65,1.82,1,.26.14,1.17.67.78.44,1.59.91,3.17,1.8,1.2.68,1.2.69,17.39,9.89h0v36.1L82.31,326.44Zm40.78-3.08a1.32,1.32,0,0,0,.68.2,1.23,1.23,0,0,1-.59-.15Zm1.43,0a2,2,0,0,1-.45.2A2,2,0,0,0,124.74,314Zm.44-.25,18.54-10.4,12.18-6.84,5.75-3.22,3-1.66,31.92-17.92-.09,8.37L134,317.94a1.17,1.17,0,0,1,.75-.14,1.2,1.2,0,0,0-1.09,1.9,1.2,1.2,0,0,1-.26-.73v26.24l-8.25,4.7Zm9.81,4a1,1,0,0,0-.17,0A.51.51,0,0,1,135,317.84Zm.83,28.75V321l19.82,11.51,1.2.69,1.19.7L176,344.35l0,36.2-40.18-23.39Zm41.34-1.74a1,1,0,0,1-.52-.13,1,1,0,0,0,.52.13Zm.62-.17-.25.1Zm72.53-42.05a.84.84,0,0,1-.31-.05,1.06,1.06,0,0,0,.31.05Zm1-1.84,0,0h0Zm.16.41a.36.36,0,0,0,0-.1A.44.44,0,0,1,251.46,301.2Zm-1-38.36a1,1,0,0,0,.39.08A1,1,0,0,1,250.43,262.84Zm1.6-1.07c0,.24,0,.48,0,.67C252,262.25,252,262,252,261.77Zm72-40,.08,0-.08,0Zm.75-.63a1.19,1.19,0,0,1-.09.15A1.19,1.19,0,0,0,324.8,221.16Zm-.15.23-.12.13Zm.25-1a.5.5,0,0,1,0,.12A.5.5,0,0,0,324.9,220.39Zm0,.51a.5.5,0,0,1,0,.13A.5.5,0,0,0,324.9,220.9Zm71.72-82.12.22,0Zm-.09,0-.17,0Zm-.38.14-.52.3ZM343,108l-.19.06Zm-.35.13-.53.3A3.85,3.85,0,0,1,342.65,108.08ZM291.79,78.14a1.35,1.35,0,0,0-1,0A1.2,1.2,0,0,1,291.79,78.14Zm-1.12.11-.51.29C290.32,78.45,290.49,78.34,290.67,78.25ZM176.11,98.36q-.26-.14-.51-.3Zm-1.18-1.21a1.3,1.3,0,0,0,.54.82A1.21,1.21,0,0,1,174.93,97.15Zm1,37.09a2.35,2.35,0,0,0-.4.18A2.35,2.35,0,0,1,175.94,134.24Zm-.72,1.75a.86.86,0,0,1-.13-.34A.93.93,0,0,0,175.22,136ZM102,179.39l.49.27C102.29,179.58,102.12,179.49,102,179.39Zm-.12-.07a1.27,1.27,0,0,1-.57-.83A1.46,1.46,0,0,0,101.84,179.32Zm.32,36a2.84,2.84,0,0,0-.43.21A2.84,2.84,0,0,1,102.16,215.31Zm-73.95,43.5a1.36,1.36,0,0,0,.54.83A1.23,1.23,0,0,1,28.21,258.81Zm.67.92.51.29A5.43,5.43,0,0,1,28.88,259.73ZM73.23,322.1a1.35,1.35,0,0,0,.28-.62A1.05,1.05,0,0,1,73.23,322.1Zm51.5,30.79a1.32,1.32,0,0,0,.44-.88A1.22,1.22,0,0,1,124.73,352.89Zm.45-1v-.59A5.8,5.8,0,0,1,125.18,351.87Zm52.89,31.57a1.18,1.18,0,0,0,.13-.18A1,1,0,0,1,178.07,383.44Zm.14-.2a1.6,1.6,0,0,0,.1-.23A2.29,2.29,0,0,1,178.21,383.24Zm.12-.31a1.18,1.18,0,0,0,0-.2A1.18,1.18,0,0,1,178.33,382.93Zm.06-.41v-.59A5.8,5.8,0,0,1,178.39,382.52Zm72.22-79.93h0Zm.45-.25.12-.11Zm.28-.32-.06.08Zm.16-.28v-.29h0v0a1.09,1.09,0,0,0,0-.18s0,.09,0,.14v.29Zm72.73-80c.06,0,.1,0,.1-.06l0,0h0l0,0S324.29,221.7,324.23,221.73Zm.2-.11h0Zm.51-1h0a.43.43,0,0,1,0,.11.62.62,0,0,0,0-.13v-.25c0,.18,0,.38,0,.56Z" fill="#32cb87"/><path d="M398,140v0Z" fill="#32cb87"/><path d="M279.43,157.37h0a1,1,0,0,1,0-.25A1,1,0,0,0,279.43,157.37Z" fill="#32cb87"/><path d="M279.88,156.45l.15-.12h0Z" fill="#32cb87"/><path d="M28.72,257.67l.07-.06h0Z" fill="#32cb87"/><polygon points="123.39 352.99 123.39 352.99 123.39 352.99 123.39 352.99" fill="#32cb87"/><path d="M123.47,353a1.17,1.17,0,0,0,.52.12A1.2,1.2,0,0,1,123.47,353Z" fill="#32cb87"/><path d="M163.34,289.64l-.88.5Z" fill="#32cb87"/><path d="M185,277.49l-.18.1Z" fill="#32cb87"/><path d="M123.47,353l-.08,0h0Z" fill="#32cb87"/><path d="M176.83,383.75l-.23-.1h0A1.57,1.57,0,0,0,176.83,383.75Z" fill="#32cb87"/><path d="M133.43,319h0c0-.05,0-.09,0-.14S133.43,318.92,133.43,319Z" fill="#32cb87"/><path d="M176.6,383.65a1.41,1.41,0,0,0-.28-.23A1,1,0,0,0,176.6,383.65Z" fill="#32cb87"/><path d="M101.64,177.43a1.66,1.66,0,0,1,.21-.16h0A1.49,1.49,0,0,0,101.64,177.43Z" fill="#32cb87"/><path d="M271.94,190.94h0a.51.51,0,0,0,0-.13A.69.69,0,0,1,271.94,190.94Z" fill="#32cb87"/><path d="M229.47,169.45c5.34,3.09,16.69,9.3,25.76,14.27Z" fill="#32cb87"/><path d="M207.2,237.45l.14-.12h0Z" fill="#32cb87"/></svg>