<svg xmlns="http://www.w3.org/2000/svg" viewBox="0 0 417.21 263.88"><path d="M335.61 51.53 279.1 18.68a1.13 1.13 0 0 0-1.11 0l-56.06 31.6-.12.09-.38.22-29.91-16.9a1.12 1.12 0 0 0-1.12 0L134.42 66l-.15.11a.5.5 0 0 0-.08.07 1.1 1.1 0 0 0-.29.5.13.13 0 0 1 0 .06 1.6 1.6 0 0 0 0 .23l.06 64.12L78 163.5l-.11.09-.12.09-.08.12a.54.54 0 0 0-.09.12 1 1 0 0 0-.07.15s0 .08 0 .12a.92.92 0 0 0 0 .29l.33 64.67a1.11 1.11 0 0 0 .56 1l56.19 32.55a1.14 1.14 0 0 0 1.13 0l55.58-31.88 55.47 31.83.2.09h.08a1.1 1.1 0 0 0 .57 0h.08a.64.64 0 0 0 .19-.08l56.36-32.44a1.12 1.12 0 0 0 .57-1l-.39-64.91.1-28.52 31-18.4a1.12 1.12 0 0 0 .55-1l-.13-63.17a1 1 0 0 0 .21-.39 1 1 0 0 0 0-.3 1.11 1.11 0 0 0-.57-1Zm-110.84-.25L278.53 21l54.11 31.4-53.94 30-.56.31a.88.88 0 0 0-.15.12l-.16.08-15.6-9-14.64-8.57-8.91-5-14.79-8.53Zm-90.83 208.47L80 228.49l-.31-62.08 54.26 30.68Zm56.14-30.91-1.11.64-52.78 30.27V197.1l1.11-.64 52.7-30.55V228.83Zm2.22-55.75v-8.46l1.11-.64 52.66-30.59V196.2l-1.1.64-52.67 30.72Zm1.15 56.4 52.65-30.71v60.93Zm54.89-41.65v-55.75l1.12-.64 12.77-7.28 8.38-4.78v-2l-.52-.32-21.79 12.43-1.11.63-1.13-.67-24.17-14.15-2.21 1.32L245 131.42l-19.66-11.51L245 131.42 218.13 147l-25.84 15-1.13.65L190 162l-23.7-13.59-2.21 1.32L188.91 164l-52.72 30.52-1.12.65-1.12-.63-53.13-30 53.1-30.73 1.12-.65 1.13.64 8.14 4.67 13.06 7.49 2.22-1.32-22.31-12.79 52.72-31.3 1.13-.67 1.12.66L213 112.7l2.2-1.31-21.86-12.8 24.57-14.17-2.16-1.35-.51.29-24.16 13.93-13.34-7.51L137.25 67 191 36l46.6 26.32 7.1 4.1-22.39 12.85 2.16 1.36 22.45-12.95 1.23.7 13 7.48L276.7 85l.86.5.26.15 1.13.66.86.51 21.4 12.51-21.4 12.21-.81.46-1.13.64-.26.15-.84.48.52.32v2l.29-.16.26-.15 1.13-.64.86-.5 22.51-12.83-.12 33.2v2.62l-.09 25.23v1.3l-1.11.65-23.33 13.55-2.6 1.51V114.83l-.51-.33-26.35-16.4-2.23-1.41-23.69-14.82-2.15-1.35-23.52-14.73-.12-.07 8.86-5.72-27.64-3.09 6.17 17.05 10.54-6.85.12.08L218 81.79l2.16 1.35L243 97.46l-25.57 15.24-2.24 1.3-23 13.7-2.19 1.36-28.16 16.79-2.22 1.32-17.69 10.55-9.48-5.59-6 17.74 27.77-4.87-10.08-6 17.72-10.56 1.1-.66 1.11-.67L190 131.67l2.25-1.34 25.19-15 2.2-1.31 25.48-15.2.86.54 2.25 1.41 24.06 15.07.52.33V180.71l-24.47 14.21ZM136.1 68.94l52.74 29.67-52.69 31.2Zm166 94.7L277.4 178v2.59l-2.34 1.41h.09v-2.6l2-1.17Zm-29.29 17v2.6l-24.47 14.21 22.22-12.91V182Zm-24.45 79V197.4l24.47-14.21V212l-5.83 3-2 1.07a.85.85 0 0 0 0 1.42l10.11 8.33a.86.86 0 0 0 1.26-.43l8.67-18a.86.86 0 0 0-1.23-1l-8.73 4.47V182l27.05-15.71.38 62.32Zm85.26-205.06-.7 61.69-28.46 16.88.12-33.81a.69.69 0 0 0 0-.13v-.16c0-.05 0-.09-.05-.13l-.06-.14a1 1 0 0 0-.12-.16l-.06-.07a.45.45 0 0 0-.13-.1.39.39 0 0 0-.1-.08L280 84.3l8-4.46 45.63-25.26ZM192.25 131.57v-1.24 2.28-1.04z" fill="#32cb87"/><path d="M275.06 182v28.77l11.37-6L276 227.33l-12.54-10.49 1.52-.79s0-.05.06-.06l2-1 5.84-3.07v-28.66l-24.47 14.21v62.24l54.12-31.15-.38-62.32Z" fill="#b0f2dc"/><path fill="#b0f2dc" d="M272.82 211.99v-.08l-5.84 3.06 5.84-2.98z"/><path d="m276 227.33 10.46-22.59-11.37 6v.12l8.73-4.47a.86.86 0 0 1 1.23 1l-8.67 18a.86.86 0 0 1-1.26.43L265 217.47a.85.85 0 0 1 0-1.42l-1.52.79ZM280 84.3l24 14.07a.39.39 0 0 1 .1.08.45.45 0 0 1 .13.1l.06.07a1 1 0 0 1 .12.16l.06.14s0 .08.05.13 0 .11 0 .16a.69.69 0 0 1 0 .13l-.12 33.81 28.46-16.88.7-61.69L288 79.84ZM277.27 113.59l-.03.02.03.02v-.04zM272.83 116.13l-.03.02.03.02v-.04z" fill="#b0f2dc"/><path fill="#b0f2dc" d="m279.81 114.11-.86.5-1.13.64-.26.15-.29.16V113.63l-.03-.02-2.22 1.27V116.85l.04-.02V179.35l2.61-1.51 23.32-13.55 1.11-.65v-.01l.01-1.29.08-25.24.01-1.31v-1.31l.12-33.2-22.51 12.83zM270.58 117.41V119.38l-8.38 4.78-12.77 7.28-1.12.64v1.31l.03 54.45.01 7.03 24.47-14.21V118.12l.01-.01v-1.94l-.03-.02-2.22 1.26zM245 196.82l1.1-.64v-1.32l-.03-54.38-.01-7.1-52.66 30.59-1.11.64v1.32l.01 7.16.03 54.45L245 196.82zM190.04 165.91l-52.74 30.54-1.11.64V259.75l52.78-30.27 1.11-.64v-1.31l-.04-61.62z"/><path fill="#b0f2dc" d="M272.82 183.26v-2.6l-2.25 1.3v2.6l2.25-1.3zM275.15 179.3v2.6l2.25-1.31V178l-.24.13-2.01 1.17zM275.15 179.3l2.01-1.17-2.01 1.17z"/></svg>