<svg          
  xmlns="http://www.w3.org/2000/svg"
  width="28"
  height="22"
  viewBox="0 0 28 22"
>
  <path d="M27.2606 5.15068L14.8925 0.180844C14.2918 -0.0602814 13.6369 -0.0602814 13.0362 0.180844L0.702187 5.15068C0.281662 5.32256 0 5.77437 0 6.2851C0 6.79583 0.281662 7.25009 0.702187 7.41903L3.32806 8.47536C2.80787 9.25129 2.44169 10.1529 2.254 11.1248C1.75219 11.363 1.4 11.9228 1.4 12.5711C1.4 13.0598 1.61061 13.4791 1.92237 13.7674L0.836062 21.0846C0.76475 21.5629 1.09375 22 1.52644 22H4.07356C4.50612 22 4.83525 21.564 4.76394 21.0851L3.67762 13.7678C3.98956 13.4796 4.2 13.018 4.2 12.5711C4.2 12.0657 3.97364 11.6365 3.6435 11.3487C3.82952 10.4766 4.207 9.68787 4.73462 9.03914L13.0734 12.3898C13.6741 12.631 14.329 12.631 14.9297 12.3898L27.2978 7.42001C27.72 7.24764 28 6.79583 28 6.2851C28 5.77437 27.72 5.32256 27.2606 5.15068ZM15.3606 13.8675C14.9494 14.0492 14.4769 14.1426 14 14.1426C13.5223 14.1426 13.0511 14.0509 12.6 13.8698L6.2475 11.3188L5.6 18.3316C5.6 20.3598 9.32312 22 14 22C18.5981 22 22.4 20.3598 22.4 18.333L21.7534 11.3153L15.3606 13.8675Z" />
</svg>