<svg id="Architecture" xmlns="http://www.w3.org/2000/svg" viewBox="0 0 420 337.4"><polygon points="211.07 334.23 313.08 275.35 313.11 248.3 211.07 307.24 211.07 334.23" fill="#b0f2dc"/><polygon points="275.97 224.18 274.81 224.85 211.07 261.66 211.07 288.66 298.21 238.36 299.37 237.69 300.53 237.02 313.08 229.78 313.11 202.73 277.13 223.51 275.97 224.18" fill="#b0f2dc"/><polygon points="313.08 184.21 313.11 157.16 211.07 216.09 211.07 243.09 313.08 184.21" fill="#b0f2dc"/><path d="M418.53,93.91,314.18,33.64a1.2,1.2,0,0,0-1.16,0L209.55,93.38,106.09,33.65a1.15,1.15,0,0,0-1.16,0L.58,93.91a1.16,1.16,0,0,0-.58,1,1.15,1.15,0,0,0,.58,1l103.75,59.89,0,29.07a1.16,1.16,0,0,0,.58,1l12,6.91-12.07,6.94a1.19,1.19,0,0,0-.54,1s0,.07,0,.11l0,29.59a1.16,1.16,0,0,0,.58,1l12,6.91-12.07,6.94a1.19,1.19,0,0,0-.54,1s0,.07,0,.11l0,29.59a1.15,1.15,0,0,0,.58,1l104.39,60.22h0l.19.08s0,0,.08,0a1,1,0,0,0,.29,0h.05l.26,0h0l.08,0h0a1,1,0,0,0,.18-.07h0L314.82,277a1.15,1.15,0,0,0,.58-1l0-29.73h0a.43.43,0,0,0,0,0,1.15,1.15,0,0,0-.33-.77l0,0a.83.83,0,0,0-.21-.16l-12-6.93,12-6.91a1.16,1.16,0,0,0,.58-1l0-29.73h0a.43.43,0,0,0,0-.05,1.15,1.15,0,0,0-.33-.77l0,0a.83.83,0,0,0-.21-.16l-12-6.93,12-6.91a1.16,1.16,0,0,0,.58-1l0-29.45,103.1-59.51a1.16,1.16,0,0,0,.58-1A1.15,1.15,0,0,0,418.53,93.91Zm-105.45,90.3-102,58.87v-27l102-58.93Zm0,45.57L300.53,237l-1.16.67-1.16.67-87.14,50.3v-27l63.74-36.81,1.16-.67,1.16-.67,36-20.78Zm0,45.57-102,58.88v-27l102-58.94ZM208.75,307.23v27L106.68,275.35l0-27Zm1.16-2-18.73-10.81-83.4-48.12,11.46-6.6,90.09,52h0l.19.08.08,0a1,1,0,0,0,.29,0h.05l.26,0h0s.05,0,.08,0h0a.58.58,0,0,0,.18-.08h0l90-52L312,246.29ZM106.65,202.75l36,20.78,1.16.67,1.16.67,63.77,36.79v27l-87.19-50.3-1.16-.67-1.16-.67-12.56-7.24Zm168.16,19.42-1.16.67-1.16.67-62.58,36.14-18.73-10.8L147.3,223.53l-1.16-.67-1.16-.67-37.2-21.46,11.46-6.6,37.18,21.45,1.16.67,1.17.67,50.58,29.18h0l.19.08.08,0,.22,0h.12a.78.78,0,0,0,.26,0h0l.06,0,.18-.08h0l50.56-29.19,1.16-.67,1.16-.67,37.16-21.44L312,200.72Zm-168.16-65,36,20.78,1.16.67,1.16.67,37.15,21.43,1.16.67,1.16.67,24.3,14v27l-47.69-27.51-1.16-.67-1.16-.67-37.18-21.45-1.16-.67-1.16-.67-12.56-7.24ZM209.51,96.46l.38-.22.05,0,102,58.88-.34.19-101.7,58.74-23.14-13.35-1.06-.61-.1-.06-1.16-.67L147.3,178l-1.16-.67-1.16-.67-37.17-21.45,0,0,30.86-17.76Zm104.43,57.16L211.89,94.71,313.6,36l102,58.92ZM105.51,36,207.56,94.91l-70.08,40.47-32,18.42L3.48,94.92Z" fill="#32cb87"/></svg>