<svg width="500" height="500" viewBox="0 0 500 500" fill="none" xmlns="http://www.w3.org/2000/svg">
<path d="M215 217.633V170.367C215.003 167.352 216.202 164.46 218.336 162.329C220.469 160.197 223.362 159 226.377 159H273.633C276.647 159 279.539 160.198 281.671 162.329C283.802 164.461 285 167.353 285 170.367V217.633C285 220.647 283.802 223.539 281.671 225.671C279.539 227.802 276.647 229 273.633 229H226.377C223.362 229 220.469 227.803 218.336 225.671C216.202 223.54 215.003 220.648 215 217.633Z" fill="#828282" fill-opacity="0.7"/>
<path d="M241.435 298.147C241.388 296.945 241.583 295.745 242.011 294.62C242.438 293.495 243.088 292.468 243.922 291.6C244.756 290.733 245.756 290.043 246.863 289.571C247.971 289.099 249.162 288.856 250.365 288.856C251.568 288.856 252.759 289.099 253.867 289.571C254.974 290.043 255.974 290.733 256.808 291.6C257.642 292.468 258.292 293.495 258.719 294.62C259.147 295.745 259.342 296.945 259.295 298.147V335.255C259.342 336.457 259.147 337.657 258.719 338.782C258.292 339.907 257.642 340.934 256.808 341.802C255.974 342.669 254.974 343.36 253.867 343.831C252.759 344.303 251.568 344.546 250.365 344.546C249.162 344.546 247.971 344.303 246.863 343.831C245.756 343.36 244.756 342.669 243.922 341.802C243.088 340.934 242.438 339.907 242.011 338.782C241.583 337.657 241.388 336.457 241.435 335.255V298.147Z" fill="#828282" fill-opacity="0.7"/>
<path d="M270.069 296.023C269.642 297.148 269.446 298.348 269.494 299.55V336.658C269.446 337.86 269.642 339.06 270.069 340.185C270.497 341.31 271.147 342.337 271.981 343.205C272.815 344.072 273.815 344.763 274.922 345.234C276.029 345.706 277.22 345.949 278.424 345.949C279.627 345.949 280.818 345.706 281.925 345.234C283.033 344.763 284.033 344.072 284.867 343.205C285.701 342.337 286.351 341.31 286.778 340.185C287.205 339.06 287.401 337.86 287.353 336.658V299.55C287.401 298.348 287.205 297.148 286.778 296.023C286.351 294.898 285.701 293.871 284.867 293.003C284.033 292.136 283.033 291.445 281.925 290.974C280.818 290.502 279.627 290.259 278.424 290.259C277.22 290.259 276.029 290.502 274.922 290.974C273.815 291.445 272.815 292.136 271.981 293.003C271.147 293.871 270.497 294.898 270.069 296.023Z" fill="#828282" fill-opacity="0.7"/>
<path d="M297.553 300.953C297.505 299.751 297.701 298.551 298.128 297.426C298.555 296.301 299.206 295.274 300.039 294.406C300.873 293.539 301.874 292.848 302.981 292.377C304.088 291.905 305.279 291.662 306.483 291.662C307.686 291.662 308.877 291.905 309.984 292.377C311.091 292.848 312.092 293.539 312.926 294.406C313.76 295.274 314.41 296.301 314.837 297.426C315.264 298.551 315.46 299.751 315.412 300.953V338.061C315.46 339.263 315.264 340.463 314.837 341.588C314.41 342.713 313.76 343.74 312.926 344.608C312.092 345.475 311.091 346.165 309.984 346.637C308.877 347.109 307.686 347.352 306.483 347.352C305.279 347.352 304.088 347.109 302.981 346.637C301.874 346.165 300.873 345.475 300.039 344.608C299.206 343.74 298.555 342.713 298.128 341.588C297.701 340.463 297.505 339.263 297.553 338.061V300.953Z" fill="#828282" fill-opacity="0.7"/>
<path d="M325.612 305.759C325.564 304.557 325.76 303.357 326.187 302.232C326.614 301.107 327.264 300.08 328.098 299.212C328.932 298.345 329.932 297.654 331.04 297.183C332.147 296.711 333.338 296.468 334.541 296.468C335.745 296.468 336.936 296.711 338.043 297.183C339.15 297.654 340.151 298.345 340.984 299.212C341.818 300.08 342.468 301.107 342.896 302.232C343.323 303.357 343.519 304.557 343.471 305.759V342.867C343.519 344.069 343.323 345.269 342.896 346.394C342.468 347.519 341.818 348.546 340.984 349.413C340.151 350.281 339.15 350.971 338.043 351.443C336.936 351.914 335.745 352.157 334.541 352.157C333.338 352.157 332.147 351.914 331.04 351.443C329.932 350.971 328.932 350.281 328.098 349.413C327.264 348.546 326.614 347.519 326.187 346.394C325.76 345.269 325.564 344.069 325.612 342.867V305.759Z" fill="#828282" fill-opacity="0.7"/>
<path d="M213.952 296.023C213.524 297.148 213.329 298.348 213.376 299.55V336.658C213.329 337.86 213.524 339.06 213.952 340.185C214.379 341.31 215.029 342.337 215.863 343.205C216.697 344.072 217.697 344.763 218.805 345.234C219.912 345.706 221.103 345.949 222.306 345.949C223.51 345.949 224.7 345.706 225.808 345.234C226.915 344.763 227.915 344.072 228.749 343.205C229.583 342.337 230.233 341.31 230.661 340.185C231.088 339.06 231.283 337.86 231.236 336.658V299.55C231.283 298.348 231.088 297.148 230.661 296.023C230.233 294.898 229.583 293.871 228.749 293.003C227.915 292.136 226.915 291.445 225.808 290.974C224.7 290.502 223.51 290.259 222.306 290.259C221.103 290.259 219.912 290.502 218.805 290.974C217.697 291.445 216.697 292.136 215.863 293.003C215.029 293.871 214.379 294.898 213.952 296.023Z" fill="#828282" fill-opacity="0.7"/>
<path d="M185.318 300.953C185.27 299.751 185.466 298.551 185.893 297.426C186.32 296.301 186.97 295.274 187.804 294.406C188.638 293.539 189.639 292.848 190.746 292.377C191.853 291.905 193.044 291.662 194.248 291.662C195.451 291.662 196.642 291.905 197.749 292.377C198.856 292.848 199.857 293.539 200.691 294.406C201.525 295.274 202.175 296.301 202.602 297.426C203.029 298.551 203.225 299.751 203.177 300.953V338.061C203.225 339.263 203.029 340.463 202.602 341.588C202.175 342.713 201.525 343.74 200.691 344.608C199.857 345.475 198.856 346.165 197.749 346.637C196.642 347.109 195.451 347.352 194.248 347.352C193.044 347.352 191.853 347.109 190.746 346.637C189.639 346.165 188.638 345.475 187.804 344.608C186.97 343.74 186.32 342.713 185.893 341.588C185.466 340.463 185.27 339.263 185.318 338.061V300.953Z" fill="#828282" fill-opacity="0.7"/>
<path d="M157.834 302.232C157.407 303.357 157.211 304.557 157.259 305.759V342.867C157.211 344.069 157.407 345.269 157.834 346.394C158.262 347.519 158.912 348.546 159.746 349.413C160.579 350.281 161.58 350.971 162.687 351.443C163.794 351.914 164.985 352.157 166.189 352.157C167.392 352.157 168.583 351.914 169.69 351.443C170.797 350.971 171.798 350.281 172.632 349.413C173.466 348.546 174.116 347.519 174.543 346.394C174.97 345.269 175.166 344.069 175.118 342.867V305.759C175.166 304.557 174.97 303.357 174.543 302.232C174.116 301.107 173.466 300.08 172.632 299.212C171.798 298.345 170.797 297.654 169.69 297.183C168.583 296.711 167.392 296.468 166.189 296.468C164.985 296.468 163.794 296.711 162.687 297.183C161.58 297.654 160.579 298.345 159.746 299.212C158.912 300.08 158.262 301.107 157.834 302.232Z" fill="#828282" fill-opacity="0.7"/>
<path d="M465.905 350.221C465.858 349.018 466.053 347.819 466.481 346.694C466.908 345.569 467.558 344.541 468.392 343.674C469.226 342.806 470.226 342.116 471.334 341.644C472.441 341.173 473.632 340.93 474.835 340.93C476.039 340.93 477.23 341.173 478.337 341.644C479.444 342.116 480.444 342.806 481.278 343.674C482.112 344.541 482.762 345.569 483.19 346.694C483.617 347.819 483.813 349.018 483.765 350.221V387.328C483.813 388.531 483.617 389.731 483.19 390.856C482.762 391.98 482.112 393.008 481.278 393.875C480.444 394.743 479.444 395.433 478.337 395.905C477.23 396.376 476.039 396.619 474.835 396.619C473.632 396.619 472.441 396.376 471.334 395.905C470.226 395.433 469.226 394.743 468.392 393.875C467.558 393.008 466.908 391.98 466.481 390.856C466.053 389.731 465.858 388.531 465.905 387.328V350.221Z" fill="#828282" fill-opacity="0.7"/>
<path d="M438.422 334.276C437.995 335.401 437.799 336.601 437.847 337.803V374.911C437.799 376.113 437.995 377.313 438.422 378.438C438.849 379.563 439.499 380.59 440.333 381.458C441.167 382.325 442.168 383.015 443.275 383.487C444.382 383.958 445.573 384.202 446.776 384.202C447.98 384.202 449.171 383.958 450.278 383.487C451.385 383.015 452.386 382.325 453.22 381.458C454.053 380.59 454.703 379.563 455.131 378.438C455.558 377.313 455.754 376.113 455.706 374.911V337.803C455.754 336.601 455.558 335.401 455.131 334.276C454.703 333.151 454.053 332.124 453.22 331.256C452.386 330.389 451.385 329.698 450.278 329.227C449.171 328.755 447.98 328.512 446.776 328.512C445.573 328.512 444.382 328.755 443.275 329.227C442.168 329.698 441.167 330.389 440.333 331.256C439.499 332.124 438.849 333.151 438.422 334.276Z" fill="#828282" fill-opacity="0.7"/>
<path d="M409.788 327.788C409.74 326.586 409.936 325.386 410.363 324.261C410.79 323.136 411.44 322.109 412.274 321.242C413.108 320.374 414.109 319.684 415.216 319.212C416.323 318.741 417.514 318.498 418.717 318.498C419.921 318.498 421.112 318.741 422.219 319.212C423.326 319.684 424.327 320.374 425.161 321.242C425.995 322.109 426.645 323.136 427.072 324.261C427.499 325.386 427.695 326.586 427.647 327.788V364.896C427.695 366.099 427.499 367.298 427.072 368.423C426.645 369.548 425.995 370.575 425.161 371.443C424.327 372.31 423.326 373.001 422.219 373.472C421.112 373.944 419.921 374.187 418.717 374.187C417.514 374.187 416.323 373.944 415.216 373.472C414.109 373.001 413.108 372.31 412.274 371.443C411.44 370.575 410.79 369.548 410.363 368.423C409.936 367.298 409.74 366.099 409.788 364.896V327.788Z" fill="#828282" fill-opacity="0.7"/>
<path d="M382.304 315.247C381.877 316.372 381.682 317.571 381.729 318.774V355.881C381.682 357.084 381.877 358.284 382.304 359.409C382.732 360.533 383.382 361.561 384.216 362.428C385.05 363.296 386.05 363.986 387.157 364.458C388.265 364.929 389.456 365.172 390.659 365.172C391.862 365.172 393.053 364.929 394.16 364.458C395.268 363.986 396.268 363.296 397.102 362.428C397.936 361.561 398.586 360.533 399.013 359.409C399.441 358.284 399.636 357.084 399.589 355.881V318.774C399.636 317.571 399.441 316.372 399.013 315.247C398.586 314.122 397.936 313.094 397.102 312.227C396.268 311.359 395.268 310.669 394.16 310.197C393.053 309.726 391.862 309.483 390.659 309.483C389.456 309.483 388.265 309.726 387.157 310.197C386.05 310.669 385.05 311.359 384.216 312.227C383.382 313.094 382.732 314.122 382.304 315.247Z" fill="#828282" fill-opacity="0.7"/>
<path d="M353.67 311.565C353.623 310.362 353.818 309.163 354.246 308.038C354.673 306.913 355.323 305.886 356.157 305.018C356.991 304.15 357.991 303.46 359.099 302.989C360.206 302.517 361.397 302.274 362.6 302.274C363.803 302.274 364.994 302.517 366.102 302.989C367.209 303.46 368.209 304.15 369.043 305.018C369.877 305.886 370.527 306.913 370.954 308.038C371.382 309.163 371.577 310.362 371.53 311.565V348.673C371.577 349.875 371.382 351.075 370.954 352.2C370.527 353.325 369.877 354.352 369.043 355.219C368.209 356.087 367.209 356.777 366.102 357.249C364.994 357.72 363.803 357.963 362.6 357.963C361.397 357.963 360.206 357.72 359.099 357.249C357.991 356.777 356.991 356.087 356.157 355.219C355.323 354.352 354.673 353.325 354.246 352.2C353.818 351.075 353.623 349.875 353.67 348.673V311.565Z" fill="#828282" fill-opacity="0.7"/>
<path d="M129.775 308.038C129.348 309.163 129.152 310.362 129.2 311.565V348.673C129.152 349.875 129.348 351.075 129.775 352.2C130.203 353.325 130.853 354.352 131.687 355.219C132.521 356.087 133.521 356.777 134.628 357.249C135.735 357.72 136.926 357.963 138.13 357.963C139.333 357.963 140.524 357.72 141.631 357.249C142.739 356.777 143.739 356.087 144.573 355.219C145.407 354.352 146.057 353.325 146.484 352.2C146.912 351.075 147.107 349.875 147.06 348.673V311.565C147.107 310.362 146.912 309.163 146.484 308.038C146.057 306.913 145.407 305.886 144.573 305.018C143.739 304.15 142.739 303.46 141.631 302.989C140.524 302.517 139.333 302.274 138.13 302.274C136.926 302.274 135.735 302.517 134.628 302.989C133.521 303.46 132.521 304.15 131.687 305.018C130.853 305.886 130.203 306.913 129.775 308.038Z" fill="#828282" fill-opacity="0.7"/>
<path d="M101.141 318.774C101.094 317.571 101.289 316.372 101.717 315.247C102.144 314.122 102.794 313.094 103.628 312.227C104.462 311.359 105.462 310.669 106.569 310.197C107.677 309.726 108.868 309.483 110.071 309.483C111.274 309.483 112.465 309.726 113.573 310.197C114.68 310.669 115.68 311.359 116.514 312.227C117.348 313.094 117.998 314.122 118.425 315.247C118.853 316.372 119.048 317.571 119.001 318.774V355.881C119.048 357.084 118.853 358.284 118.425 359.409C117.998 360.533 117.348 361.561 116.514 362.428C115.68 363.296 114.68 363.986 113.573 364.458C112.465 364.929 111.274 365.172 110.071 365.172C108.868 365.172 107.677 364.929 106.569 364.458C105.462 363.986 104.462 363.296 103.628 362.428C102.794 361.561 102.144 360.533 101.717 359.409C101.289 358.284 101.094 357.084 101.141 355.881V318.774Z" fill="#828282" fill-opacity="0.7"/>
<path d="M73.658 323.261C73.2307 324.386 73.035 325.586 73.0827 326.788V363.896C73.035 365.099 73.2307 366.298 73.658 367.423C74.0853 368.548 74.7354 369.575 75.5693 370.443C76.4032 371.31 77.4037 372.001 78.5109 372.472C79.618 372.944 80.809 373.187 82.0124 373.187C83.2158 373.187 84.4068 372.944 85.514 372.472C86.6211 372.001 87.6217 371.31 88.4556 370.443C89.2895 369.575 89.9395 368.548 90.3668 367.423C90.7941 366.298 90.9898 365.099 90.9421 363.896V326.788C90.9898 325.586 90.7941 324.386 90.3668 323.261C89.9395 322.136 89.2895 321.109 88.4556 320.242C87.6217 319.374 86.6211 318.684 85.514 318.212C84.4068 317.741 83.2158 317.498 82.0124 317.498C80.809 317.498 79.618 317.741 78.5109 318.212C77.4037 318.684 76.4032 319.374 75.5693 320.242C74.7354 321.109 74.0853 322.136 73.658 323.261Z" fill="#828282" fill-opacity="0.7"/>
<path d="M45.0239 337.803C44.9762 336.601 45.1719 335.401 45.5992 334.276C46.0264 333.151 46.6765 332.124 47.5104 331.256C48.3443 330.389 49.3449 329.698 50.452 329.227C51.5592 328.755 52.7502 328.512 53.9536 328.512C55.157 328.512 56.3479 328.755 57.4551 329.227C58.5623 329.698 59.5629 330.389 60.3968 331.256C61.2307 332.124 61.8807 333.151 62.308 334.276C62.7353 335.401 62.931 336.601 62.8833 337.803V374.911C62.931 376.113 62.7353 377.313 62.308 378.438C61.8807 379.563 61.2307 380.59 60.3968 381.458C59.5629 382.325 58.5623 383.015 57.4551 383.487C56.3479 383.958 55.157 384.202 53.9536 384.202C52.7502 384.202 51.5592 383.958 50.452 383.487C49.3449 383.015 48.3443 382.325 47.5104 381.458C46.6765 380.59 46.0264 379.563 45.5992 378.438C45.1719 377.313 44.9762 376.113 45.0239 374.911V337.803Z" fill="#828282" fill-opacity="0.7"/>
<path d="M17.5403 346.694C17.113 347.819 16.9174 349.018 16.965 350.221V387.328C16.9174 388.531 17.113 389.731 17.5403 390.856C17.9676 391.98 18.6177 393.008 19.4516 393.875C20.2855 394.743 21.286 395.433 22.3932 395.905C23.5004 396.376 24.6914 396.619 25.8948 396.619C27.0981 396.619 28.2891 396.376 29.3963 395.905C30.5035 395.433 31.504 394.743 32.3379 393.875C33.1718 393.008 33.8219 391.98 34.2492 390.856C34.6764 389.731 34.8721 388.531 34.8244 387.328V350.221C34.8721 349.018 34.6764 347.819 34.2492 346.694C33.8219 345.569 33.1718 344.541 32.3379 343.674C31.504 342.806 30.5035 342.116 29.3963 341.644C28.2891 341.173 27.0981 340.93 25.8948 340.93C24.6914 340.93 23.5004 341.173 22.3932 341.644C21.286 342.116 20.2855 342.806 19.4516 343.674C18.6177 344.541 17.9676 345.569 17.5403 346.694Z" fill="#828282" fill-opacity="0.7"/>
<path fill-rule="evenodd" clip-rule="evenodd" d="M498.494 420.145C498.996 420.43 499.499 420.715 500 421.001V500H490.854C490.276 499.612 489.697 499.225 489.117 498.84C489.113 498.838 489.109 498.835 489.106 498.833C420.767 453.447 338.73 427 250.5 427C162.27 427 80.2333 453.447 11.8944 498.833C11.8907 498.835 11.8871 498.838 11.8834 498.84C11.3032 499.225 10.7241 499.612 10.1459 500H0V421.574C0.665735 421.192 1.33247 420.811 2.00011 420.432C75.3226 378.785 160.134 355 250.5 355C340.658 355 425.287 378.675 498.494 420.145ZM242 372C237.029 372 233 376.03 233 381V398C233 402.971 237.029 407 242 407H259C263.971 407 268 402.971 268 398V381C268 380.689 267.984 380.382 267.954 380.08C267.493 375.542 263.66 372 259 372H242Z" fill="#828282" fill-opacity="0.7"/>
<path d="M208 112C213.946 112 218.882 116.325 219.834 122H238.166C239.118 116.325 244.054 112 250 112C255.946 112 260.882 116.325 261.834 122H280.166C281.118 116.325 286.054 112 292 112C298.627 112 304 117.373 304 124C304 130.627 298.627 136 292 136C290.483 136 289.032 135.718 287.695 135.205L273.619 159H268.972L284.254 133.166C282.135 131.373 280.645 128.858 280.166 126H261.834C260.882 131.675 255.946 136 250 136C244.054 136 239.118 131.675 238.166 126H219.834C219.355 128.858 217.865 131.373 215.746 133.166L231.028 159H226.38L212.304 135.205C210.968 135.719 209.517 136 208 136C201.373 136 196 130.627 196 124C196 117.373 201.373 112 208 112Z" />
</svg>
