<svg width="22" height="22" viewBox="0 0 22 22" xmlns="http://www.w3.org/2000/svg">
<path d="M0 19.9375C0 21.0762 1.0558 22 2.35714 22H19.6429C20.9442 22 22 21.0762 22 19.9375V8.25H0V19.9375ZM15.7143 11.5156C15.7143 11.232 15.9795 11 16.3036 11H18.2679C18.592 11 18.8571 11.232 18.8571 11.5156V13.2344C18.8571 13.518 18.592 13.75 18.2679 13.75H16.3036C15.9795 13.75 15.7143 13.518 15.7143 13.2344V11.5156ZM15.7143 17.0156C15.7143 16.732 15.9795 16.5 16.3036 16.5H18.2679C18.592 16.5 18.8571 16.732 18.8571 17.0156V18.7344C18.8571 19.018 18.592 19.25 18.2679 19.25H16.3036C15.9795 19.25 15.7143 19.018 15.7143 18.7344V17.0156ZM9.42857 11.5156C9.42857 11.232 9.69375 11 10.0179 11H11.9821C12.3062 11 12.5714 11.232 12.5714 11.5156V13.2344C12.5714 13.518 12.3062 13.75 11.9821 13.75H10.0179C9.69375 13.75 9.42857 13.518 9.42857 13.2344V11.5156ZM9.42857 17.0156C9.42857 16.732 9.69375 16.5 10.0179 16.5H11.9821C12.3062 16.5 12.5714 16.732 12.5714 17.0156V18.7344C12.5714 19.018 12.3062 19.25 11.9821 19.25H10.0179C9.69375 19.25 9.42857 19.018 9.42857 18.7344V17.0156ZM3.14286 11.5156C3.14286 11.232 3.40804 11 3.73214 11H5.69643C6.02054 11 6.28571 11.232 6.28571 11.5156V13.2344C6.28571 13.518 6.02054 13.75 5.69643 13.75H3.73214C3.40804 13.75 3.14286 13.518 3.14286 13.2344V11.5156ZM3.14286 17.0156C3.14286 16.732 3.40804 16.5 3.73214 16.5H5.69643C6.02054 16.5 6.28571 16.732 6.28571 17.0156V18.7344C6.28571 19.018 6.02054 19.25 5.69643 19.25H3.73214C3.40804 19.25 3.14286 19.018 3.14286 18.7344V17.0156ZM19.6429 2.75H17.2857V0.6875C17.2857 0.309375 16.9321 0 16.5 0H14.9286C14.4964 0 14.1429 0.309375 14.1429 0.6875V2.75H7.85714V0.6875C7.85714 0.309375 7.50357 0 7.07143 0H5.5C5.06786 0 4.71429 0.309375 4.71429 0.6875V2.75H2.35714C1.0558 2.75 0 3.67383 0 4.8125V6.875H22V4.8125C22 3.67383 20.9442 2.75 19.6429 2.75Z" />
</svg>
