<svg width="28" height="28" viewBox="0 0 28 28" fill="none" xmlns="http://www.w3.org/2000/svg">
<path d="M2 27.125C2 27.3571 2.10536 27.5796 2.29289 27.7437C2.48043 27.9078 2.73478 28 3 28H25C25.2652 28 25.5196 27.9078 25.7071 27.7437C25.8946 27.5796 26 27.3571 26 27.125V24.5H2V27.125ZM26 0H2C1.46957 0 0.960859 0.184374 0.585786 0.512563C0.210714 0.840752 0 1.28587 0 1.75L0 21.875C0 22.1071 0.105357 22.3296 0.292893 22.4937C0.48043 22.6578 0.734784 22.75 1 22.75H27C27.2652 22.75 27.5196 22.6578 27.7071 22.4937C27.8946 22.3296 28 22.1071 28 21.875V1.75C28 1.28587 27.7893 0.840752 27.4142 0.512563C27.0391 0.184374 26.5304 0 26 0V0ZM5 19.4688C4.75277 19.4688 4.5111 19.4046 4.30554 19.2844C4.09998 19.1642 3.93976 18.9934 3.84515 18.7936C3.75054 18.5937 3.72579 18.3738 3.77402 18.1616C3.82225 17.9495 3.9413 17.7546 4.11612 17.6016C4.29093 17.4486 4.51366 17.3445 4.75614 17.3023C4.99861 17.2601 5.24995 17.2817 5.47835 17.3645C5.70676 17.4473 5.90199 17.5875 6.03934 17.7673C6.17669 17.9472 6.25 18.1587 6.25 18.375C6.25 18.6651 6.1183 18.9433 5.88388 19.1484C5.64946 19.3535 5.33152 19.4688 5 19.4688ZM24 18.8125C24 18.9285 23.9473 19.0398 23.8536 19.1219C23.7598 19.2039 23.6326 19.25 23.5 19.25H14.5C14.3674 19.25 14.2402 19.2039 14.1464 19.1219C14.0527 19.0398 14 18.9285 14 18.8125V17.9375C14 17.8215 14.0527 17.7102 14.1464 17.6281C14.2402 17.5461 14.3674 17.5 14.5 17.5H23.5C23.6326 17.5 23.7598 17.5461 23.8536 17.6281C23.9473 17.7102 24 17.8215 24 17.9375V18.8125ZM24 12.25C24 12.7141 23.7893 13.1592 23.4142 13.4874C23.0391 13.8156 22.5304 14 22 14H6C5.46957 14 4.96086 13.8156 4.58579 13.4874C4.21071 13.1592 4 12.7141 4 12.25V5.25C4 4.78587 4.21071 4.34075 4.58579 4.01256C4.96086 3.68437 5.46957 3.5 6 3.5H22C22.5304 3.5 23.0391 3.68437 23.4142 4.01256C23.7893 4.34075 24 4.78587 24 5.25V12.25Z" />
</svg>
