<svg data-name="Flexible - BASE" xmlns="http://www.w3.org/2000/svg" viewBox="0 0 417.21 263.88"><path d="M248.43 197.42a1.2 1.2 0 0 1-.08.27v62l54.12-31.15-.38-62.32ZM288 79.84l-8 4.46 24 14.07a.39.39 0 0 1 .1.08.45.45 0 0 1 .13.1l.06.07a1 1 0 0 1 .12.16l.06.14s0 .08.05.13 0 .11 0 .16a.69.69 0 0 1 0 .13l-.12 33.81 28.46-16.88.7-61.69Z" fill="#b0f2dc"/><path d="m302.1 163.64.1-26.54v-2.62l.12-33.2L279 114.61l-1.13.64-1.12.64-14.5 8.27-13.83 7.84v62.79Zm-24.28-12.27h-.18.19Zm.2 0Zm-.48 0a.81.81 0 0 1-.27-.11.81.81 0 0 0 .27.07ZM246.21 194.92l-.04-61.27-.11.06-52.47 30.37-1.27.74V227.49l.01-.01 53.06-30.43.71-.41.03-.01.08-.05v-1.66zM189.84 166v-.01l-52.97 30.67-.88.51v62.67l52.98-30.4.91-.51-.01-1.56-.03-61.37z" fill="#b0f2dc"/><path d="M335.61 51.53 279.1 18.68a1.13 1.13 0 0 0-1.11 0l-56.06 31.6-.12.09-.38.22-29.91-16.9a1.12 1.12 0 0 0-1.12 0L134.42 66l-.15.11a.5.5 0 0 0-.08.07 1.1 1.1 0 0 0-.29.5.13.13 0 0 1 0 .06 1.6 1.6 0 0 0 0 .23l.06 64.08-56.19 32.53-.12.09a.71.71 0 0 0-.2.2l-.09.12a.76.76 0 0 0-.06.16.37.37 0 0 0 0 .11.93.93 0 0 0 0 .33l.33 64.67a1.13 1.13 0 0 0 .56 1l56.2 32.55.16.07.11.05h.29a.91.91 0 0 0 .23 0 .91.91 0 0 1-.23 0 1.09 1.09 0 0 0 .56-.15 1.31 1.31 0 0 1-.27.12 1.31 1.31 0 0 0 .27-.12l55.76-32 55.5 31.85.2.09h.08a1.1 1.1 0 0 0 .57 0h.08a.64.64 0 0 0 .19-.08l56.36-32.44a1.12 1.12 0 0 0 .57-1l-.39-64.91.1-28.52 30.15-17.89a1.14 1.14 0 0 0 .56-.95l.72-63.69a1 1 0 0 0 .21-.39 1.13 1.13 0 0 0-.56-1.32Zm-2.69 64.74-28.46 16.88.12-33.81a.69.69 0 0 0 0-.13v-.16c0-.05 0-.09-.05-.13l-.06-.14a1 1 0 0 0-.12-.16l-.06-.07a.45.45 0 0 0-.13-.1.39.39 0 0 0-.1-.08L280 84.3l8-4.46 45.63-25.26ZM191.48 230.52a1.53 1.53 0 0 0 .27-.11l-.25.1ZM136 259.84v-62.67l.87-.51 53-30.67V228.93l-.91.51ZM248.42 131.7Zm-3 65.35-53.06 30.43v-62.66l1.27-.74 52.47-30.37.11-.06v62.93h-.09l-.71.41ZM136.1 68.94l53.58 30.14-53.53 31Zm112.25 127.88ZM190 101.51l1.19-.69 1.05.6L245 131.7l-52.75 30.54-1 .61h-.2l-1-.58V162l-52.57-30.13L190 101.51Zm2.09 62.49Zm-1.48-1h.07a1.22 1.22 0 0 0-.19.12.54.54 0 0 1 .12-.12Zm-.22.16-.1.12Zm-.3.51a1 1 0 0 0-.05.3 1 1 0 0 1 .05-.31Zm.11-.27a1.19 1.19 0 0 0-.08.2 1.19 1.19 0 0 1 .08-.21Zm1.09-63.71h-.2Zm.36-.13a1.59 1.59 0 0 1-.27.12 1.59 1.59 0 0 0 .27-.13Zm-.85.12Zm-.8-1.1Zm58.39 99.11a1.2 1.2 0 0 0 .08-.27l53.68-31.18.38 62.32-54.12 31.15v-62ZM279 112l-1.13.64-1.12.64-29.51 16.83-53.92-31.52 53.6-30.91 14.19 8.18L276.7 85l1.12.65 1.13.66 22.26 13Zm-.27-27.19h.19-.18Zm-.28 0Zm.57 0a.82.82 0 0 0 .26-.1.82.82 0 0 1-.28.08Zm-144.85 48.4a1.15 1.15 0 0 1-.27-.21 1.15 1.15 0 0 0 .22.19Zm56.64 97.27h.11a.82.82 0 0 1-.24-.1.52.52 0 0 0 .08.08Zm.62.07h-.14a1.08 1.08 0 0 0 .09-.02Zm.1 0ZM247.22 198a1.55 1.55 0 0 1-.29 0 1.55 1.55 0 0 0 .29 0Zm55-60.85-.1 26.54-53.65 31.17v-62.79l13.78-7.86 14.5-8.27 1.12-.64 1.13-.64 23.37-13.33-.12 33.2v2.62Zm30.44-84.7L287 77.85l-9.12 5.07-15.6-9-14.64-8.57-8.91-5-14.79-8.53.89-.5L278.53 21Zm-111.6-1.67a1.14 1.14 0 0 0-.45.5 1 1 0 0 1 .45-.5Zm0 2a1 1 0 0 1-.45-.51 1.17 1.17 0 0 0 .44.47ZM191 36l46.6 26.32 7.1 4.1L215.84 83l-24.76 14.29-13.34-7.51L137.25 67Zm-57.18 96.93a1.37 1.37 0 0 1-.13-.2 1.37 1.37 0 0 0 .1.16Zm-.21-1a1 1 0 0 0 0 .34 1.45 1.45 0 0 1-.03-.35Zm0 .67a1.55 1.55 0 0 1-.06-.23 1.55 1.55 0 0 0 .07.22Zm-.07 1.31.91-.52 54.24 30.68-52.58 30.43-1.25.73-1-.56-53.26-30.12Zm-56.08 31.33a.86.86 0 0 1-.13-.2.86.86 0 0 0 .13.2Zm-.17-.3a.86.86 0 0 1-.06-.23.86.86 0 0 0 .06.23Zm.23.38a1.09 1.09 0 0 0 .26.22 1.09 1.09 0 0 1-.26-.22Zm2 1.17 54.27 30.69v62.65l-54-31.25Zm55.1 96.38ZM191 230.53h.16Zm2.37-1.07 52.7-30.23v60.48Z" fill="#32cb87"/></svg>