<svg width="30" height="30" viewBox="0 0 30 30" fill="none" xmlns="http://www.w3.org/2000/svg">
<path d="M4.63946 16.5787C4.3633 16.6707 4.11236 16.8258 3.90652 17.0317C3.70068 17.2375 3.54559 17.4884 3.45352 17.7646L0 28.1252L0.274805 28.4L5.71759 22.9572C5.67892 22.8072 5.6256 22.6625 5.6256 22.5001C5.6256 21.4648 6.46525 20.6251 7.5006 20.6251C8.53595 20.6251 9.3756 21.4648 9.3756 22.5001C9.3756 23.5355 8.53595 24.3752 7.5006 24.3752C7.33829 24.3752 7.19357 24.3218 7.04357 24.2832L1.60078 29.7259L1.875 30.0002L12.2356 26.5466C12.5118 26.4547 12.7628 26.2996 12.9686 26.0937C13.1745 25.8879 13.3295 25.6369 13.4215 25.3607L15.3592 20.4347L9.56545 14.641L4.63946 16.5787ZM21.6358 1.65948L10.9067 13.3484L16.6401 19.0818L28.329 8.35266C33.3047 3.95402 25.9999 -3.27763 21.6358 1.65948Z" />
</svg>
