<svg width="32" height="28" viewBox="0 0 32 28" fill="none" xmlns="http://www.w3.org/2000/svg">
<path d="M31.155 7.89285L17.02 2.79771C16.3335 2.5505 15.585 2.5505 14.8985 2.79771L0.8025 7.89285C0.3219 8.06906 0 8.53226 0 9.05587C0 9.57948 0.3219 10.0452 0.8025 10.2184L3.8035 11.3014C3.209 12.0968 2.7905 13.0212 2.576 14.0176C2.0025 14.2618 1.6 14.8357 1.6 15.5003C1.6 16.0014 1.8407 16.4312 2.197 16.7268L0.9555 24.2285C0.874 24.7189 1.25 25.167 1.7445 25.167H4.6555C5.14985 25.167 5.526 24.7199 5.4445 24.229L4.203 16.7273C4.5595 16.4317 4.8 15.9585 4.8 15.5003C4.8 14.9822 4.5413 14.5422 4.164 14.2472C4.3766 13.353 4.808 12.5444 5.411 11.8793L14.941 15.3145C15.6275 15.5617 16.376 15.5617 17.0625 15.3145L31.1975 10.2194C31.68 10.0427 32 9.57948 32 9.05587C32 8.53226 31.68 8.06906 31.155 7.89285ZM17.555 16.8295C17.085 17.0158 16.545 17.1114 16 17.1114C15.454 17.1114 14.9155 17.0174 14.4 16.8317L7.14 14.2165L6.4 21.406C6.4 23.4854 10.655 25.167 16 25.167C21.255 25.167 25.6 23.4854 25.6 21.4076L24.861 14.2129L17.555 16.8295Z" />
</svg>
