<svg id="Flexible" xmlns="http://www.w3.org/2000/svg" viewBox="0 0 624.06 545.23"><path d="M566.65,89.9A5.67,5.67,0,0,0,563.81,85L457.25,23.46a5.65,5.65,0,0,0-5.68,0L348.09,83.2l-50-28.88a5.67,5.67,0,0,0-5.69,0L185.82,115.84a5.67,5.67,0,0,0-2.84,4.92V241.33L79.26,301.21h0a5.69,5.69,0,0,0-2.84,4.92h0V429.65a5.67,5.67,0,0,0,2.79,4.89l106.56,63.18,0,0,0,0,.39.18.25.13.45.15.27.09a4.26,4.26,0,0,0,.49.1l.24.05a5.43,5.43,0,0,0,1.47,0l.26-.05.47-.09.29-.1.41-.14.29-.14.36-.18,0,0,0,0,103.58-60.86,103.14,58.89h0l0,0,.28.14c.13.06.25.13.38.18a2.13,2.13,0,0,0,.33.11,2.84,2.84,0,0,0,.38.13l.39.08.33.06a5.35,5.35,0,0,0,1.46,0l.25-.05a3.55,3.55,0,0,0,.47-.09l.27-.09.44-.15.24-.12a3.11,3.11,0,0,0,.41-.2L510.5,435.06a5.69,5.69,0,0,0,2.87-4.94V306.61h0a2.83,2.83,0,0,0,0-.29c0-.1,0-.2,0-.3V247.64l50.45-29.31a5.67,5.67,0,0,0,2.83-4.93l-.32-121.65A5.75,5.75,0,0,0,566.65,89.9ZM200,244.05l88.91-51.33.6-.35h0l5.39-3.11,6,3.45h0l43.19,24.94a5.47,5.47,0,0,0,.91.67l44.81,26.13-31.13,18.16L300.74,296.4h0l-.05,0-5.64,3.29-5.68-3.32h0l-.05,0-29.16-17.08Zm-5.67-9.85V130.6l89.72,51.8ZM300.76,420.41l0-104.2h0v-6.64l5.61-3.25h0l89.13-51.8v.4h0l.09,103.55h0v6.65L390,368.38h0ZM460,203.46h0L448.64,210l-41.2,23.79-5.95,3.44-5.42-3.13-42.54-24.56L342.17,203l-35.74-20.64,35.74-20.63,11.36-6.56,42.27-24.4,5.72-3.31,5.65,3.28,41.55,24.11h0l11.36,6.59h0l36.26,21ZM454.41,34.94l95.13,54.92-95.13,55-23.8-13.74L405.9,116.85a5.49,5.49,0,0,0-1.28-1L359.46,89.76ZM295.22,65.8l46.95,27.1,1.57.91a5.71,5.71,0,0,0,1.27,1l45.09,26h0l-36.57,21.08-11.36,6.56-47.08,27.14L200,120.76ZM183,254.43l5.63-3.25,5.74,3.33,89.3,51.78-89.33,51.5-5.69,3.28L183,357.79,93.47,306.14ZM87.78,316,183,370.91l0,112L87.78,426.41ZM194.34,482.9v-112l5.61-3.23,89.4-51.54,0,104.22v6.69l-5.53,3.24ZM395.55,378.28l-.09,102.79-89-50.82ZM502,426.82l-95.19,54.25.11-109.41L502,316.48Zm0-130.06v6l-6.13,3.59L407,358.44l.48-103.14v-.55l0-7.84,4.08-2.36.48-.27,36.56-21.11h0L460,216.6l9.21-5.32L502,192.34V296.76Zm11.36-62.26v-52h0a2.64,2.64,0,0,0,0-.28,3.59,3.59,0,0,0,0-.47l0-.17a5,5,0,0,0-.11-.56.88.88,0,0,1,0-.15c-.06-.19-.12-.37-.19-.55l-.06-.12a4.53,4.53,0,0,0-.27-.54.83.83,0,0,0-.08-.12,5.25,5.25,0,0,0-.33-.49,1.49,1.49,0,0,0-.12-.14q-.17-.21-.36-.42l-.18-.15a4.17,4.17,0,0,0-.38-.34l-.26-.17c-.12-.08-.23-.17-.36-.24l-44.93-26.07L555,99.92l.29,110.23Z" fill="#32cb87"/></svg>