<svg width="60" height="60" viewBox="0 0 60 60" fill="none" xmlns="http://www.w3.org/2000/svg">
<path d="M42 27C43.6547 27 45 25.6547 45 24C45 22.3453 43.6547 21 42 21C40.3453 21 39 22.3453 39 24C39 25.6547 40.3453 27 42 27ZM18 29.25C16.3453 29.25 15 30.5953 15 32.25C15 33.9047 16.3453 35.25 18 35.25C19.6547 35.25 21 33.9047 21 32.25C21 30.5953 19.6547 29.25 18 29.25ZM39.075 27.5063L38.175 26.3062L35.925 27.9937L36.825 29.1938L39.075 27.5063ZM42 36C41.325 36 40.7063 36.2344 40.2047 36.6094L35.7047 33.9094C35.8828 33.3844 36 32.8312 36 32.2453C36 29.3438 33.6516 26.9953 30.75 26.9953C30.3562 26.9953 29.9719 27.0469 29.6063 27.1313L27.6937 23.0344C28.1906 22.5 28.5 21.7875 28.5 21C28.5 19.3453 27.1547 18 25.5 18C23.8453 18 22.5 19.3453 22.5 21C22.5 22.6547 23.8453 24 25.5 24C25.5516 24 25.5984 23.9859 25.65 23.9859L27.5719 28.1016C26.3203 29.0578 25.5 30.5531 25.5 32.25C25.5 35.1516 27.8484 37.5 30.75 37.5C32.2547 37.5 33.6 36.8578 34.5563 35.8453L39.0469 38.5406C39.0234 38.6906 39 38.8453 39 39C39 40.6547 40.3453 42 42 42C43.6547 42 45 40.6547 45 39C45 37.3453 43.6547 36 42 36ZM30.75 34.5C29.5078 34.5 28.5 33.4922 28.5 32.25C28.5 31.0078 29.5078 30 30.75 30C31.9922 30 33 31.0078 33 32.25C33 33.4922 31.9922 34.5 30.75 34.5ZM22.125 33H24.375V31.5H22.125V33Z" />
</svg>
