<svg width="40" height="28" viewBox="0 0 40 28" fill="none" xmlns="http://www.w3.org/2000/svg">
<path d="M38.9437 6.49269L21.275 0.258587C20.4169 -0.043878 19.4813 -0.043878 18.6231 0.258587L1.00312 6.49269C0.402375 6.7083 0 7.27504 0 7.91569C0 8.55635 0.402375 9.12617 1.00312 9.33808L4.75437 10.6631C4.01125 11.6364 3.48813 12.7675 3.22 13.9866C2.50312 14.2853 2 14.9876 2 15.8007C2 16.4139 2.30087 16.9397 2.74625 17.3013L1.19438 26.48C1.0925 27.08 1.5625 27.6283 2.18062 27.6283H5.81938C6.43731 27.6283 6.9075 27.0813 6.80562 26.4806L5.25375 17.302C5.69937 16.9404 6 16.3613 6 15.8007C6 15.1668 5.67662 14.6284 5.205 14.2675C5.47075 13.1734 6.01 12.1841 6.76375 11.3703L18.6763 15.5734C19.5344 15.8759 20.47 15.8759 21.3281 15.5734L38.9969 9.33931C39.6 9.12309 40 8.55635 40 7.91569C40 7.27504 39.6 6.7083 38.9437 6.49269ZM21.9438 17.427C21.3563 17.6549 20.6812 17.772 20 17.772C19.3175 17.772 18.6444 17.657 18 17.4298L8.925 14.2299L8 23.0266C8 25.5708 13.3188 27.6283 20 27.6283C26.5688 27.6283 32 25.5708 32 23.0285L31.0763 14.2256L21.9438 17.427Z" />
</svg>
