<svg id="Tooling" xmlns="http://www.w3.org/2000/svg" viewBox="0 0 420 337.4"><polygon points="211.28 97.11 260.09 125.26 255.51 122.62 211.28 97.11 211.28 97.11" fill="#fff"/><polygon points="416.52 95.06 416.52 95.06 415.23 95.8 416.52 95.06" fill="#fff"/><polygon points="198.19 100.59 198.21 100.61 204.61 96.92 207.78 95.09 207.75 95.07 198.19 100.59" fill="#fff"/><polygon points="204.61 96.92 198.21 100.61 198.21 100.61 204.61 96.92" fill="#fff"/><polygon points="207.75 95.07 207.76 95.06 105.71 36.14 3.67 95.06 3.78 95.12 105.59 36.21 207.75 95.07" fill="#fff"/><polygon points="105.7 153.96 105.7 153.96 97.72 149.35 105.7 153.96" fill="#fff"/><polygon points="207.78 95.09 207.79 95.08 207.76 95.06 207.75 95.07 207.78 95.09" fill="#fff"/><rect x="192.73" y="209.21" width="17.4" fill="#fff"/><rect x="210.12" y="214.23" transform="translate(-75.46 306.36) rotate(-63.43)" fill="#fff"/><rect x="209.54" y="213.22" height="1.34" transform="translate(-80.47 288.42) rotate(-60)" fill="#fff"/><polygon points="106.92 157.34 106.92 157.34 183.45 201.51 106.92 157.34" fill="#fff"/><polygon points="199.19 102.72 199.19 141.64 199.19 142.31 163.56 163.28 129.25 143.08 108.08 155.31 191.57 203.52 191.57 167.66 208.96 157.54 208.96 97.08 208.96 97.08 205.66 98.99 199.19 102.72" fill="#b0f2dc"/><polygon points="228.16 203.81 260.44 185.18 260.44 170.62 228.08 188.84 228.16 203.81" fill="#b0f2dc"/><polygon points="262.76 186.51 261.6 187.18 260.44 187.85 228.17 206.48 227.02 207.15 225.86 207.82 211.28 216.24 211.28 216.24 211.28 218.05 211.28 219.39 211.28 220.74 211.28 334.07 313.32 275.16 313.32 157.32 313.32 157.32 262.76 186.51" fill="#b0f2dc"/><polygon points="164.51 122.72 164.71 159.91 164.71 159.91 196.87 140.98 196.87 104.06 196.87 104.06 196.87 104.05 196.87 103.83 166.91 120.7 164.51 122.05 164.51 122.72 164.51 122.72" fill="#b0f2dc"/><polygon points="243.35 60.68 243.35 23.53 210.99 41.76 211.19 79.62 211.19 79.62 243.35 60.68" fill="#b0f2dc"/><path d="M420,95a.43.43,0,0,0,0-.11,1.05,1.05,0,0,0-.12-.38h0a1,1,0,0,0-.27-.31l-.08-.06-.07-.06L315.06,33.79a1.18,1.18,0,0,0-1.15,0L210.1,93.73,106.28,33.79a1.17,1.17,0,0,0-1.17,0L.77,94.05a1.16,1.16,0,0,0,0,2l.07,0s0,0,0,0L104.6,156V275.82a1.15,1.15,0,0,0,.58,1l104.36,60.26.06,0h0l0,0,.09,0,.26.05.1,0h0a1.16,1.16,0,0,0,.41-.09l.06,0,.11-.05,104.35-60.25a1.16,1.16,0,0,0,.58-1V156L419.42,96.06a1.34,1.34,0,0,0,.31-.27l.06-.08a1.14,1.14,0,0,0,.17-.35h0a1,1,0,0,0,0-.29S420,95,420,95ZM313.33,275.16l-102,58.91V216.24h0l14.58-8.42,1.16-.67,1.15-.67,32.27-18.63,1.16-.67,1.16-.67,50.57-29.19h0ZM212.43,95.06,314.49,36.14l102,58.92h0l-1.29.74L314.49,154l-27.16-15.68ZM209,219.37V334.06l-102-58.91V157.34h0l76.53,44.17,8.12,4.69,1.16.67.91.52v0L209,216.27v3.1ZM3.78,95.12l-.11-.06,102-58.92L207.76,95.06l0,0h0l-3.17,1.83-6.4,3.69h0l0,0L163.35,80.3,128,100.87V141.1L105.71,154h0l-8-4.61Zm160.73,27.6v-.67l2.4-1.35,30-16.87v.22h0V141l-32.16,18.93h0l-.2-37.19Zm-56.43,32.59,21.17-12.23,34.31,20.2,35.63-21V102.72L205.66,99l3.3-1.91h0v60.46l-17.39,10.12v35.86ZM209,160.22l1.16-.67,1.16-.68,15.64-9.1,32.35,18.85-32.34,18.21-15.65-9.08-1.16-.67-1.16-.67L195,168.32ZM163.36,120l-31.89-18.51L163.35,83l32.35,18.85Zm-33,19.72V103.55l31.29,18.16h0l.57.34v.67h0v1.33h0l.19,35.85-30.83-18.15,0,0-1.13-.66h0l-.07,0v-1.26Zm97.76,49.08,32.36-18.22v14.55l-32.28,18.64Zm34.68-20.21V168l-.57-.34h0l-35.27-20.54-15.64,9.1V97.11h0l44.23,25.51,4.58,2.64,52.09,30-49.42,28.54Zm-52.64,45.6h0l-1.16-.67-15.07-8.7h0V170.34L209,179.09l1.16.67,1.16.67,14.48,8.41.09,16.31-14.57,8.41Z" fill="#32cb87"/><path d="M245.67,62V20.88l-.58-.33h0L209.83,0,174.48,20.57V62.05L210,83Zm-3.49-40.48L209.83,39.75,178,21.24,209.83,2.68Zm-31,58.09L211,41.76l32.36-18.23V60.68L211.19,79.62ZM176.8,60.72V23.25l31.87,18.5.2,37.85Z" fill="#32cb87"/></svg>