<?xml version="1.0" encoding="utf-8"?>
<!-- Generator: Adobe Illustrator 23.0.6, SVG Export Plug-In . SVG Version: 6.00 Build 0)  -->
<svg version="1.1" id="Layer_1" xmlns="http://www.w3.org/2000/svg" xmlns:xlink="http://www.w3.org/1999/xlink" x="0px" y="0px"
	 viewBox="0 0 500 250" style="enable-background:new 0 0 500 250;" xml:space="preserve">
<title>Web3Foundation_2</title>
<path d="M116.3,90.1V75.5c0-5.3-3.2-10.1-8.1-12.1L17.5,26v8.1l80.8,33.3c1.7,0.7,2.5,2.7,1.8,4.4c-0.3,0.8-1,1.5-1.8,1.8L17.5,107
	v32.6l48.7-20.1l32,13.2c1.7,0.7,2.5,2.7,1.8,4.4c-0.3,0.8-1,1.5-1.8,1.8l-80.7,33.3v51.5l90.6-37.4c4.9-2,8.1-6.8,8.1-12.1v-33.5
	c0-5.3-3.2-10.1-8.1-12.1l-32.1-13.3l32.1-13.2C113.1,100.2,116.3,95.4,116.3,90.1z"/>
<g>
	<path d="M207.4,75.4l6.8,25.1l6.5-25.1h6.2l-9.8,34h-5.2L204.3,82l-7.3,27.3h-5.2l-9.8-34h6.2l6.5,25.1l6.8-25.1H207.4z"/>
</g>
<g>
	<path d="M244.4,105.1c5,0,7.8-2.3,9.3-5.6h5.9c-1.6,5.9-6.9,10.7-15.2,10.7c-10.7,0-16.7-7.7-16.7-17.7c0-10.7,7.2-17.6,16.5-17.6
		c10.4,0,16.6,8.7,15.8,19.4h-26.1C234.2,101.6,239.4,105.1,244.4,105.1z M254,89.4c-0.1-4.8-3.7-9.6-9.8-9.6
		c-5.1,0-9.7,2.8-10.2,9.6H254z"/>
</g>
<g>
	<path d="M271.3,80.8c2.1-3.6,5.7-5.9,11.1-5.9c7.8,0,14.5,6.5,14.5,17.7c0,11.2-6.8,17.7-14.5,17.7c-5.4,0-9-2.3-11.1-5.9v5.1h-5.7
		V63.6h5.7V80.8z M290.7,92.5c0-8.1-3.9-12.7-9.7-12.7c-5.1,0-9.9,3.8-9.9,12.7s4.8,12.7,9.9,12.7
		C286.9,105.3,290.7,100.6,290.7,92.5z"/>
</g>
<g>
	<path d="M314,87.8H313v-5.2h0.8c8,0,12.2-2.2,12.2-7.6c0-4.9-4-7.4-8.9-7.4c-6.1,0-9.5,3.7-10,8.9h-5.9c0.7-8.1,6.4-13.7,16-13.7
		c8,0,14.8,3.2,14.8,11.6c0,4.7-2.7,8.6-7.4,10.6c6.8,2.1,8.7,6.7,8.7,11.5c0,9.2-7.8,13.7-16.5,13.7c-10.7,0-15.7-6.7-16.3-14.3
		h5.9c0.6,5.6,4,9.5,10.4,9.5c6.1,0,10.4-3.2,10.4-8.8C327.2,90,321.3,87.8,314,87.8z"/>
</g>
<g>
	<path d="M196.9,129.4h3v4.8H197c-3,0-3.5,0.7-3.5,4.2v2.8h6.4v4.6h-6.4v29.3h-5.7v-29.3H183v-4.6h4.7v-2.5
		C187.7,131.6,189.2,129.4,196.9,129.4z"/>
</g>
<g>
	<path d="M217.7,176c-7.9,0-16.3-5.4-16.3-17.7s8.4-17.7,16.3-17.7c7.9,0,16.3,5.4,16.3,17.7S225.6,176,217.7,176z M227.8,158.3
		c0-9-5-12.6-10.2-12.6c-5.2,0-10.2,3.3-10.2,12.6c0,9,5,12.6,10.2,12.6C222.9,170.9,227.8,167,227.8,158.3z"/>
</g>
<g>
	<path d="M250.2,176c-7.9,0-10.9-5.3-10.9-13.1v-21.7h5.7v20c0,5.2,0.9,9.8,7.1,9.8c5.4,0,8.6-3.8,8.6-11.1v-18.7h5.7v34h-5.7v-4.9
		C258.9,173.5,255.8,176,250.2,176z"/>
</g>
<g>
	<path d="M290.9,140.6c8.2,0,11.2,5.3,11.2,13.1v21.5h-5.7v-19.8c0-5.2-0.9-9.8-7.4-9.8c-5.6,0-9,3.8-9,11.1v18.4h-5.7v-34h5.7v5.1
		C281.8,143.1,285.1,140.6,290.9,140.6z"/>
</g>
<g>
	<path d="M338.7,129.4v45.8h-5.7V170c-2.1,3.6-5.7,5.9-11.1,5.9c-7.8,0-14.5-6.4-14.5-17.7c0-11.2,6.8-17.7,14.5-17.7
		c5.4,0,9,2.3,11.1,5.9v-17.2H338.7z M313.6,158.3c0,8.1,3.8,12.7,9.7,12.7c5.1,0,9.9-3.8,9.9-12.7s-4.8-12.7-9.9-12.7
		C317.4,145.5,313.6,150.2,313.6,158.3z"/>
</g>
<g>
	<path d="M367.2,154.2v-0.8c0-6.2-3.5-8.3-7.7-8.3c-4.7,0-7.5,2.6-7.8,6.8h-5.9c0.6-7.3,7-11.4,13.6-11.4c9.3,0,13.6,4.5,13.5,14
		l-0.1,7.8c-0.1,5.7,0.3,9.6,0.9,12.8H368c-0.2-1.3-0.4-2.7-0.4-4.7c-2.1,3.5-5.6,5.5-11.6,5.5c-6.4,0-11.7-3.5-11.7-9.8
		C344.2,158.2,353.2,155.8,367.2,154.2z M350.6,166c0,3.2,2.5,5.4,6.6,5.4c5.4,0,10.5-2.5,10.5-10.5v-2.1
		C357.2,159.9,350.6,161.4,350.6,166z"/>
</g>
<g>
	<path d="M387.2,132.7v8.5h6.4v4.6h-6.4v20.1c0,3.5,0.3,4.4,3.5,4.4h2.9v4.8h-4.2c-6.5,0-8-1.5-8-8.5v-20.8h-5.4v-4.6h5.4v-8.5
		H387.2z"/>
</g>
<g>
	<path d="M404.4,136.3h-5.7v-6.9h5.7V136.3z M404.4,175.1h-5.7v-34h5.7V175.1z"/>
</g>
<g>
	<path d="M426.4,176c-7.9,0-16.3-5.4-16.3-17.7s8.4-17.7,16.3-17.7s16.3,5.4,16.3,17.7S434.3,176,426.4,176z M436.5,158.3
		c0-9-5-12.6-10.2-12.6c-5.2,0-10.2,3.3-10.2,12.6c0,9,5,12.6,10.2,12.6C431.5,170.9,436.5,167,436.5,158.3z"/>
</g>
<g>
	<path d="M465.1,140.6c8.2,0,11.2,5.3,11.2,13.1v21.5h-5.7v-19.8c0-5.2-0.9-9.8-7.4-9.8c-5.6,0-9,3.8-9,11.1v18.4h-5.7v-34h5.7v5.1
		C456,143.1,459.3,140.6,465.1,140.6z"/>
</g>
</svg>
