<svg width="24" height="24" viewBox="0 0 24 24" fill="none" xmlns="http://www.w3.org/2000/svg">
<path d="M12 0C5.38605 0 0 5.38605 0 12C0 18.614 5.38605 24 12 24C18.614 24 24 18.614 24 12C24 5.38605 18.614 0 12 0ZM12 22.3256C6.30698 22.3256 1.67442 17.693 1.67442 12C1.67442 6.30698 6.30698 1.67442 12 1.67442C17.693 1.67442 22.3256 6.30698 22.3256 12C22.3256 17.693 17.693 22.3256 12 22.3256Z" fill="black"/>
<path d="M8 12C8 12.5667 8.35862 13 8.82759 13L15.1724 13C15.6414 13 16 12.5667 16 12C16 11.4333 15.6414 11 15.1724 11L8.82759 11C8.35862 11 8 11.4333 8 12Z" fill="black"/>
<path d="M12 8C11.4333 8 11 8.35862 11 8.82759V15.1724C11 15.6414 11.4333 16 12 16C12.5667 16 13 15.6414 13 15.1724V8.82759C13 8.35862 12.5667 8 12 8Z" fill="black"/>
</svg>
