<svg width="16" height="10" viewBox="0 0 16 10" fill="none" xmlns="http://www.w3.org/2000/svg">
<path fill-rule="evenodd" clip-rule="evenodd" d="M9.72417 7.88161C9.48129 8.11736 9.3469 8.43311 9.34994 8.76086C9.35297 9.08861 9.4932 9.40212 9.74042 9.63388C9.98763 9.86564 10.3221 9.9971 10.6717 9.99995C11.0213 10.0028 11.3581 9.87681 11.6095 9.64911L15.6096 5.89911C15.8596 5.6647 16 5.34681 16 5.01536C16 4.6839 15.8596 4.36602 15.6096 4.13161L11.6095 0.381609C11.4865 0.262221 11.3394 0.166993 11.1767 0.101482C11.0141 0.0359707 10.8391 0.00148753 10.6621 4.54219e-05C10.485 -0.00139668 10.3094 0.0302301 10.1456 0.0930811C9.98171 0.155932 9.83284 0.248749 9.70765 0.366115C9.58245 0.483481 9.48345 0.623046 9.4164 0.776666C9.34936 0.930287 9.31563 1.09489 9.31716 1.26086C9.3187 1.42683 9.35549 1.59086 9.42537 1.74336C9.49525 1.89587 9.59682 2.0338 9.72417 2.14911L11.4482 3.76536L1.33336 3.76536C0.97973 3.76536 0.640585 3.89706 0.390532 4.13148C0.14048 4.3659 8.64535e-07 4.68384 9.25727e-07 5.01536C9.86918e-07 5.34688 0.14048 5.66482 0.390533 5.89924C0.640585 6.13366 0.97973 6.26536 1.33336 6.26536L11.4482 6.26536L9.72417 7.88161Z" fill="black"/>
</svg>
