<svg width="40" height="40" viewBox="0 0 40 40" fill="none" xmlns="http://www.w3.org/2000/svg">
<path d="M3.63636 5.45455C3.63636 4.45455 4.45455 3.63636 5.45455 3.63636H9.09091V0H5.45455C2.43636 0 0 2.43636 0 5.45455V9.09091H3.63636V5.45455Z" fill="black"/>
<path d="M3.63636 34.5455V30.9092H0V34.5455C0 37.5637 2.43636 40.0001 5.45455 40.0001H9.09091V36.3637H5.45455C4.45455 36.3637 3.63636 35.5455 3.63636 34.5455Z" fill="black"/>
<path d="M34.5455 0H30.9092V3.63636H34.5455C35.5455 3.63636 36.3637 4.45455 36.3637 5.45455V9.09091H40.0001V5.45455C40.0001 2.43636 37.5637 0 34.5455 0Z" fill="black"/>
<path d="M36.3637 34.5455C36.3637 35.5455 35.5455 36.3637 34.5455 36.3637H30.9092V40.0001H34.5455C37.5637 40.0001 40.0001 37.5637 40.0001 34.5455V30.9092H36.3637V34.5455Z" fill="black"/>
<path d="M32.727 25.2183V14.7819C32.727 13.4728 32.0361 12.2728 30.9088 11.6365L21.8179 6.40009C21.2543 6.07282 20.6361 5.90918 19.9997 5.90918C19.3634 5.90918 18.7452 6.07282 18.1816 6.40009L9.09064 11.6183C7.96337 12.2728 7.27246 13.4728 7.27246 14.7819V25.2183C7.27246 26.5274 7.96337 27.7274 9.09064 28.3637L18.1816 33.6001C18.7452 33.9274 19.3634 34.091 19.9997 34.091C20.6361 34.091 21.2543 33.9274 21.8179 33.6001L30.9088 28.3637C32.0361 27.7274 32.727 26.5274 32.727 25.2183ZM18.1816 29.4001L10.9088 25.2183V16.8001L18.1816 21.0365V29.4001ZM19.9997 17.891L12.7997 13.691L19.9997 9.54554L27.1997 13.691L19.9997 17.891ZM29.0906 25.2183L21.8179 29.4001V21.0365L29.0906 16.8001V25.2183Z" fill="black"/>
</svg>
