<svg width="24" height="24" viewBox="0 0 24 24" fill="none" xmlns="http://www.w3.org/2000/svg">
<path d="M12 0C5.38605 0 0 5.38605 0 12C0 18.614 5.38605 24 12 24C18.614 24 24 18.614 24 12C24 5.38605 18.614 0 12 0ZM12 22.3256C6.30698 22.3256 1.67442 17.693 1.67442 12C1.67442 6.30698 6.30698 1.67442 12 1.67442C17.693 1.67442 22.3256 6.30698 22.3256 12C22.3256 17.693 17.693 22.3256 12 22.3256Z" fill="black"/>
<path d="M12 9.06982C11.4333 9.06982 11 9.42844 11 9.89741V16.2422C11 16.7112 11.4333 17.0698 12 17.0698C12.5667 17.0698 13 16.7112 13 16.2422V9.89741C13 9.42844 12.5667 9.06982 12 9.06982Z" fill="black"/>
<path d="M12 6C11.45 6 11 6.45 11 7C11 7.55 11.45 8 12 8C12.55 8 13 7.55 13 7C13 6.45 12.55 6 12 6Z" fill="black"/>
</svg>
