<svg width="40" height="40" viewBox="0 0 40 40" fill="none" xmlns="http://www.w3.org/2000/svg">
<path d="M3.85463 8.65406C5.39648 7.07453 6.93833 5.65072 7.62115 5.93993C8.72247 6.38487 7.62115 8.23137 6.96035 9.32147C6.40969 10.2558 0.660793 17.9755 0.660793 23.3593C0.660793 26.2069 1.71806 28.5651 3.61233 29.9889C5.26432 31.2347 7.44493 31.6129 9.42731 31.0122C11.7841 30.3226 13.7225 27.8977 16.1674 24.8498C18.8326 21.535 22.4009 17.1969 25.1542 17.1969C28.7445 17.1969 28.7885 19.4438 29.0308 21.1791C20.7048 22.6029 17.1806 29.3437 17.1806 33.1257C17.1806 36.9077 20.3524 40 24.2511 40C27.8414 40 33.7004 37.0412 34.5815 26.4294H40V20.8676H34.5595C34.2291 17.1969 32.1586 11.5239 25.6828 11.5239C20.7269 11.5239 16.4758 15.7731 14.8018 17.842C13.5242 19.4661 10.2643 23.3593 9.75771 23.8932C9.20705 24.5606 8.25991 25.762 7.31278 25.762C6.32159 25.762 5.72687 23.9155 6.51982 21.4905C7.29075 19.0656 9.60353 15.1279 10.5947 13.6596C12.3128 11.1235 13.4581 9.38821 13.4581 6.36263C13.4581 1.53504 9.84582 0 7.92952 0C5.02203 0 2.48899 2.22469 1.93833 2.78087C1.14537 3.58176 0.484582 4.24917 0 4.84983L3.85463 8.65406ZM24.3172 34.594C23.6344 34.594 22.6872 34.0156 22.6872 32.9922C22.6872 31.6574 24.2952 28.0979 29.0088 26.8521C28.348 32.8365 25.859 34.594 24.3172 34.594Z" fill="black"/>
</svg>
