<svg width="22" height="25" viewBox="0 0 22 25" fill="none" xmlns="http://www.w3.org/2000/svg">
<g clip-path="url(#clip0)">
<path d="M18.6941 16.1147H20.9251V25H0.846191V16.1147H3.07718V22.7787H18.6941V16.1147Z" fill="white"/>
<path d="M5.51104 15.4483L16.4632 17.7504L16.9297 15.5695L5.97752 13.2674L5.51104 15.4483ZM6.95105 10.2383L17.0919 14.9435L18.0452 12.9241L7.90429 8.2189L6.95105 10.2383ZM9.77021 5.2706L18.3697 12.399L19.8097 10.6826L11.2102 3.55412L9.77021 5.2706ZM15.3274 0L13.5223 1.33279L20.195 10.2787L22.0001 8.94588L15.3274 0ZM5.30823 20.5574H16.4632V18.336H5.30823V20.5574Z" fill="white"/>
</g>
<defs>
<clipPath id="clip0">
<rect width="21.1538" height="25" fill="white" transform="translate(0.846191)"/>
</clipPath>
</defs>
</svg>
