<svg width="38" height="30" viewBox="0 0 38 30" fill="none" xmlns="http://www.w3.org/2000/svg">
<path d="M32.1896 2.51249C29.7298 1.33875 27.0997 0.485722 24.3499 0C24.0122 0.622678 23.6177 1.46019 23.3457 2.12643C20.4226 1.67811 17.5265 1.67811 14.6572 2.12643C14.3852 1.46019 13.9817 0.622678 13.641 0C10.8883 0.485722 8.25511 1.34188 5.79531 2.51871C0.833851 10.165 -0.511118 17.6215 0.161368 24.972C3.45207 27.4782 6.64115 29.0007 9.77641 29.9969C10.5505 28.9104 11.2409 27.7553 11.8357 26.538C10.7029 26.099 9.618 25.5573 8.59287 24.9284C8.86483 24.7229 9.13086 24.5081 9.38787 24.287C15.6405 27.2696 22.4341 27.2696 28.612 24.287C28.872 24.5081 29.138 24.7229 29.407 24.9284C28.3788 25.5604 27.2909 26.1021 26.1582 26.5411C26.7529 27.7553 27.4404 28.9135 28.2175 30C31.3558 29.0037 34.5478 27.4813 37.8385 24.972C38.6276 16.4508 36.4906 9.06291 32.1896 2.51249ZM12.6875 20.4515C10.8106 20.4515 9.27129 18.6644 9.27129 16.4882C9.27129 14.312 10.7777 12.5218 12.6875 12.5218C14.5974 12.5218 16.1366 14.3088 16.1038 16.4882C16.1067 18.6644 14.5974 20.4515 12.6875 20.4515ZM25.3123 20.4515C23.4354 20.4515 21.8961 18.6644 21.8961 16.4882C21.8961 14.312 23.4025 12.5218 25.3123 12.5218C27.2222 12.5218 28.7614 14.3088 28.7286 16.4882C28.7286 18.6644 27.2222 20.4515 25.3123 20.4515Z" fill="#7289DA"/>
</svg>
