<svg width="30" height="30" viewBox="0 0 30 30" fill="none" xmlns="http://www.w3.org/2000/svg">
<path fill-rule="evenodd" clip-rule="evenodd" d="M10.8008 1.8C10.8008 0.805889 11.6067 0 12.6008 0C19.2283 0 24.6009 5.37259 24.6009 12C24.6009 12.9941 23.795 13.8 22.8008 13.8C21.8067 13.8 21.0008 12.9941 21.0008 12C21.0008 7.36078 17.24 3.6 12.6008 3.6C11.6067 3.6 10.8008 2.79411 10.8008 1.8Z" fill="#0DBD8B"/>
<path fill-rule="evenodd" clip-rule="evenodd" d="M19.1995 28.1997C19.1995 29.1938 18.3936 29.9997 17.3995 29.9997C10.772 29.9997 5.39941 24.6272 5.39941 17.9997C5.39941 17.0056 6.2053 16.1997 7.19942 16.1997C8.19353 16.1997 8.99943 17.0056 8.99943 17.9997C8.99943 22.6389 12.7603 26.3997 17.3995 26.3997C18.3936 26.3997 19.1995 27.2056 19.1995 28.1997Z" fill="#0DBD8B"/>
<path fill-rule="evenodd" clip-rule="evenodd" d="M1.80001 19.2014C0.805893 19.2014 4.34543e-08 18.3955 0 17.4014C-2.89695e-07 10.7739 5.37261 5.40137 12.0001 5.40137C12.9942 5.40137 13.8001 6.20727 13.8001 7.20138C13.8001 8.1955 12.9942 9.00139 12.0001 9.00139C7.36087 9.00139 3.60002 12.7622 3.60002 17.4014C3.60002 18.3955 2.79413 19.2014 1.80001 19.2014Z" fill="#0DBD8B"/>
<path fill-rule="evenodd" clip-rule="evenodd" d="M28.2003 10.7983C29.1944 10.7983 30.0003 11.6042 30.0003 12.5983C30.0003 19.2258 24.6277 24.5983 18.0002 24.5983C17.0061 24.5983 16.2002 23.7925 16.2002 22.7983C16.2002 21.8042 17.0061 20.9983 18.0002 20.9983C22.6394 20.9983 26.4002 17.2376 26.4002 12.5983C26.4002 11.6042 27.2061 10.7983 28.2003 10.7983Z" fill="#0DBD8B"/>
</svg>
