<svg
  xmlns="http://www.w3.org/2000/svg"
  width="22"
  height="25"
  viewBox="0 0 22 25"
>
  <path d="M22 5.46875V7.8125H0V5.46875C0 4.17432 1.05531 3.125 2.35714 3.125H4.71429V1.51855C4.71429 0.703125 5.42143 0 6.28571 0C7.15 0 7.85714 0.703125 7.85714 1.51855V3.125H14.1429V1.51855C14.1429 0.703125 14.85 0 15.7143 0C16.5786 0 17.2857 0.703125 17.2857 1.51855V3.125H19.6429C20.9442 3.125 22 4.17432 22 5.46875ZM0 9.375H22V22.6562C22 23.9502 20.9442 25 19.6429 25H2.35714C1.0558 25 0 23.9502 0 22.6562V9.375ZM6.62946 18.3643L8.98661 20.708C9.20759 20.9277 9.50813 21.0513 9.81996 21.0513C9.8353 21.0513 9.85065 21.0513 9.86446 21.0498C10.1929 21.0376 10.5014 20.8896 10.7145 20.6424L15.4288 15.1736C15.8523 14.6824 15.7956 13.9422 15.3014 13.5213C14.8089 13.1016 14.0644 13.1566 13.6396 13.6479L9.75377 18.1567L8.29578 16.707C7.8354 16.2493 7.08971 16.2493 6.62908 16.707C6.16846 17.1648 6.17277 17.9492 6.62946 18.3643Z" />
</svg>