<svg version="1.0" id="Layer_1" xmlns="http://www.w3.org/2000/svg" xmlns:xlink="http://www.w3.org/1999/xlink" x="0px" y="0px"
	 viewBox="0 0 18 18" enable-background="new 0 0 18 18" xml:space="preserve">
<g>
	<path d="M7.1,8.1H1c-0.6,0-1-0.4-1-1V1c0-0.6,0.4-1,1-1h6.1c0.6,0,1,0.4,1,1v6.1C8.1,7.7,7.7,8.1,7.1,8.1z"/>
</g>
<g>
	<path d="M17,0h-6.1c-0.6,0-1,0.4-1,1v6.1c0,0.6,0.4,1,1,1H17c0.6,0,1-0.4,1-1V1C18,0.4,17.6,0,17,0z M16,6.1h-4.1V2
		H16V6.1z"/>
	<path  d="M17,9.9h-6.1c-0.6,0-1,0.4-1,1V17c0,0.6,0.4,1,1,1H17c0.6,0,1-0.4,1-1v-6.1C18,10.3,17.6,9.9,17,9.9z
		 M16,16h-4.1v-4.1H16V16z"/>
	<path d="M7.1,9.9H1c-0.6,0-1,0.4-1,1V17c0,0.6,0.4,1,1,1h6.1c0.6,0,1-0.4,1-1v-6.1C8.1,10.3,7.7,9.9,7.1,9.9z
		 M6.1,16H2v-4.1h4.1V16z"/>
</g>
</svg>
