<svg width="28" height="28" viewBox="0 0 28 28" fill="none" xmlns="http://www.w3.org/2000/svg">
<path d="M17.8616 10.1386C21.129 13.4094 21.0842 18.6533 17.8813 21.8739C17.8753 21.8805 17.8681 21.8876 17.8616 21.8942L14.1866 25.5692C10.9453 28.8105 5.67182 28.8101 2.43099 25.5692C-0.810331 22.3284 -0.810331 17.0543 2.43099 13.8136L4.46022 11.7843C4.99835 11.2462 5.92508 11.6039 5.95286 12.3644C5.9883 13.3335 6.16209 14.3072 6.48278 15.2475C6.59139 15.5659 6.51379 15.9181 6.2759 16.156L5.5602 16.8717C4.02754 18.4044 3.97947 20.9 5.49704 22.4476C7.0296 24.0105 9.54861 24.0198 11.0929 22.4755L14.7679 18.8011C16.3096 17.2594 16.3032 14.7675 14.7679 13.2322C14.5655 13.0302 14.3616 12.8733 14.2024 12.7636C14.0897 12.6863 13.9967 12.5836 13.9308 12.464C13.8648 12.3443 13.8277 12.2108 13.8225 12.0742C13.8008 11.4964 14.0056 10.9009 14.4622 10.4442L15.6136 9.29278C15.9155 8.99085 16.3892 8.95378 16.7393 9.19812C17.1402 9.47809 17.5158 9.79279 17.8616 10.1386ZM25.569 2.43083C22.3281 -0.810057 17.0547 -0.810495 13.8134 2.43083L10.1384 6.10582C10.1318 6.11238 10.1247 6.11949 10.1187 6.12605C6.91585 9.3467 6.87095 14.5906 10.1384 17.8614C10.4841 18.2072 10.8597 18.5219 11.2606 18.8018C11.6107 19.0462 12.0844 19.009 12.3863 18.7072L13.5377 17.5557C13.9943 17.0991 14.1991 16.5036 14.1774 15.9257C14.1722 15.7891 14.1351 15.6557 14.0691 15.536C14.0032 15.4163 13.9102 15.3137 13.7975 15.2363C13.6382 15.1267 13.4344 14.9697 13.232 14.7677C11.6967 13.2325 11.6903 10.7406 13.232 9.19888L16.907 5.52444C18.4513 3.98012 20.9702 3.98942 22.5028 5.55233C24.0204 7.09998 23.9724 9.59559 22.4397 11.1283L21.724 11.844C21.4861 12.0818 21.4085 12.434 21.5171 12.7524C21.8378 13.6927 22.0116 14.6664 22.047 15.6356C22.0749 16.3961 23.0015 16.7537 23.5397 16.2156L25.5689 14.1864C28.8103 10.9457 28.8103 5.6716 25.569 2.43083Z" />
</svg>
