<svg width="24" height="24" viewBox="0 0 24 24" fill="none" xmlns="http://www.w3.org/2000/svg">
  <path
    d="M20.8063 0H10.7428C8.98118 0 7.5479 1.43328 7.5479 3.19487V7.5479H3.19487C1.43328 7.5479 0 8.98118 0 10.7416V20.8051C0 22.5679 1.43328 24 3.19487 24H13.2584C15.02 24 16.4532 22.5667 16.4532 20.8051V16.4521H20.8051C22.5667 16.4521 24 15.0188 24 13.2584V3.196C24.0011 1.43327 22.5679 0 20.8063 0ZM15.0947 20.8051C15.0947 21.8184 14.2705 22.6426 13.2584 22.6426H3.19487C2.18161 22.6426 1.35855 21.8173 1.35855 20.8051V10.7416C1.35855 9.72838 2.18274 8.90532 3.19487 8.90532H7.54677V13.2584C7.54677 15.02 8.98005 16.4521 10.7416 16.4521H15.0947V20.8051ZM22.6426 13.2584C22.6426 14.2716 21.8184 15.0947 20.8063 15.0947H10.7428C9.72952 15.0947 8.90646 14.2705 8.90646 13.2584V3.196C8.90646 2.18274 9.73065 1.35855 10.7428 1.35855H20.8063C21.8195 1.35855 22.6426 2.18388 22.6426 3.196V13.2584Z" />
</svg>