<svg width="32" height="32" viewBox="0 0 32 32" fill="none" xmlns="http://www.w3.org/2000/svg">
<path fill-rule="evenodd" clip-rule="evenodd" d="M3.42857 32H28.5714C30.465 32 32 30.465 32 28.5714V3.42857C32 1.535 30.465 0 28.5714 0H3.42857C1.535 0 0 1.535 0 3.42857V28.5714C0 30.465 1.535 32 3.42857 32Z" fill="#24CC85"/>
<path d="M9.17895 16.0173L10.7812 16.7268C10.9352 16.795 11.1013 16.8318 11.2699 16.835C11.4384 16.8382 11.6058 16.8077 11.7623 16.7453L12.2663 16.5442C12.4424 16.474 12.6004 16.3651 12.7285 16.2257C12.8566 16.0862 12.9515 15.9198 13.0061 15.7388L13.3697 14.5347C13.4027 14.4027 13.4641 14.2794 13.5495 14.1733C13.635 14.0672 13.7424 13.9807 13.8646 13.9199L14.7368 13.4846V15.4618C14.7369 15.8121 14.6391 16.1554 14.4543 16.4534C14.2695 16.7513 14.0051 16.9921 13.6906 17.1488L11.4342 18.2743C10.9104 18.5355 10.4699 18.9369 10.1621 19.4334C9.85436 19.9299 9.69143 20.502 9.69159 21.0856V21.656H22.3051V14.1132C22.3051 9.94888 18.9169 6.57031 14.7368 6.57031H8.9029C8.7774 6.57031 8.65704 6.61998 8.56829 6.70839C8.47955 6.7968 8.42969 6.91671 8.42969 7.04174C8.42963 7.14512 8.4538 7.24709 8.50028 7.33953L9.06064 8.45603L8.70573 8.8096C8.61792 8.89738 8.54834 9.00155 8.50097 9.11615C8.45361 9.23075 8.42939 9.35352 8.42969 9.47746V14.8678C8.42954 15.1111 8.50025 15.3492 8.63324 15.5533C8.76624 15.7573 8.9558 15.9185 9.17895 16.0173ZM10.4803 10.3417C10.6363 10.3417 10.7888 10.3878 10.9185 10.4742C11.0482 10.5605 11.1492 10.6832 11.2089 10.8268C11.2686 10.9703 11.2843 11.1283 11.2538 11.2807C11.2234 11.4332 11.1483 11.5732 11.038 11.683C10.9277 11.7929 10.7871 11.8678 10.6342 11.8981C10.4812 11.9284 10.3226 11.9128 10.1785 11.8534C10.0344 11.7939 9.91118 11.6932 9.82451 11.564C9.73785 11.4348 9.69159 11.2829 9.69159 11.1275C9.69159 10.9191 9.77469 10.7192 9.9226 10.5719C10.0705 10.4245 10.2711 10.3417 10.4803 10.3417ZM22.9416 22.9132H9.06064C8.8933 22.9132 8.73282 22.9794 8.61449 23.0973C8.49617 23.2152 8.42969 23.375 8.42969 23.5417V24.7989C8.42969 24.9656 8.49617 25.1255 8.61449 25.2434C8.73282 25.3612 8.8933 25.4275 9.06064 25.4275H22.9416C23.1089 25.4275 23.2694 25.3612 23.3877 25.2434C23.5061 25.1255 23.5725 24.9656 23.5725 24.7989V23.5417C23.5725 23.375 23.5061 23.2152 23.3877 23.0973C23.2694 22.9794 23.1089 22.9132 22.9416 22.9132Z" fill="white"/>
<rect width="32" height="32" rx="4" fill="#24CC85"/>
<path d="M7.1875 7.00093C6.53066 7.00093 6 7.53157 6 8.18837V25.4063C6 25.7328 6.26719 26 6.59375 26H7.78125C8.10781 26 8.375 25.7328 8.375 25.4063V8.18837C8.375 7.53157 7.84434 7.00093 7.1875 7.00093ZM23.1668 7.15678C16.81 10.3963 17.3332 4.69284 9.5625 8.20321V21.2502C16.4537 17.8289 17.7896 23.2281 24.3135 20.393C24.7365 20.2075 25 19.7808 25 19.3243V8.14384C25 7.21244 24.0055 6.73004 23.1668 7.15678Z" fill="white"/>
</svg>
