<?xml version="1.0" encoding="utf-8"?>
<!-- Generator: Adobe Illustrator 25.2.1, SVG Export Plug-In . SVG Version: 6.00 Build 0)  -->
<svg version="1.2" baseProfile="tiny" id="Layer_1" xmlns="http://www.w3.org/2000/svg" xmlns:xlink="http://www.w3.org/1999/xlink"
	 x="0px" y="0px" viewBox="0 0 49 48" overflow="visible" xml:space="preserve" width="48" height="48">
<path d="M3.7,47.8c-0.2,0-0.3-0.1-0.5-0.1C3.4,47.7,3.6,47.8,3.7,47.8z"/>
<path d="M0.6,45.3C0.6,45.3,0.6,45.3,0.6,45.3C0.6,45.3,0.6,45.3,0.6,45.3z"/>
<path d="M45.2,0.6C45.3,0.6,45.3,0.6,45.2,0.6C45.3,0.6,45.3,0.6,45.2,0.6z"/>
<path d="M44.7,0.3L44.7,0.3C44.7,0.3,44.7,0.3,44.7,0.3C44.7,0.3,44.7,0.3,44.7,0.3z"/>
<path d="M0.3,44.7C0.3,44.7,0.3,44.7,0.3,44.7C0.3,44.7,0.3,44.7,0.3,44.7L0.3,44.7z"/>
<path d="M4.1,47.9L4.1,47.9C4.1,47.9,4.1,47.9,4.1,47.9C4.1,47.9,4.1,47.9,4.1,47.9z"/>
<path d="M47.9,4.1C47.9,4.1,47.9,4.1,47.9,4.1C47.9,4.1,47.9,4.1,47.9,4.1L47.9,4.1z"/>
<path d="M47.7,3.2c0.1,0.2,0.1,0.3,0.1,0.5C47.8,3.6,47.7,3.4,47.7,3.2z"/>
<path d="M47.8,3.7c0,0.1,0.1,0.2,0.1,0.4C47.9,4,47.9,3.8,47.8,3.7z"/>
<path d="M3,47.6c0.1,0,0.2,0,0.2,0.1C3.2,47.6,3.1,47.6,3,47.6L3,47.6z"/>
<path d="M4.1,47.9c-0.1,0-0.2-0.1-0.4-0.1C3.9,47.8,4,47.9,4.1,47.9z"/>
<path d="M47.6,3L47.6,3c0,0.1,0,0.2,0.1,0.2C47.6,3.2,47.6,3.1,47.6,3z"/>
<path d="M0.8,45.6L0.8,45.6c0-0.1-0.1-0.2-0.2-0.3C0.7,45.4,0.7,45.5,0.8,45.6z"/>
<path d="M0.6,45.2c-0.1-0.2-0.2-0.3-0.2-0.5C0.4,44.9,0.5,45.1,0.6,45.2z"/>
<path d="M45.6,0.8c-0.1-0.1-0.2-0.1-0.3-0.2C45.4,0.6,45.5,0.7,45.6,0.8L45.6,0.8z"/>
<path d="M44.7,0.3c0.2,0.1,0.3,0.1,0.5,0.2C45.1,0.5,44.9,0.4,44.7,0.3z"/>
<path d="M0,5c0-2.8,2.2-5,5-5h38c2.8,0,5,2.2,5,5v38c0,2.8-2.2,5-5,5H5c-2.8,0-5-2.2-5-5V5z M45.6,0.8L0.8,45.6
	c0.5,0.9,1.3,1.6,2.3,2L47.6,3C47.2,2.1,46.5,1.3,45.6,0.8z M26.1,18.1c-0.1-1.7-0.5-9.2-0.5-9.4c-0.2-1.4-3-1.4-3.2,0
	c0,0.2-0.4,7.7-0.5,9.4c-0.1,0.2-1,0.2-1.1,0V8.8c-0.2-1.4-3-1.4-3.2-0.1c-0.1,0.3-1.1,6.3-1.1,8.6c0,3.4,1.7,5.8,4.4,6.9l5.8-5.8
	C26.4,18.3,26.2,18.2,26.1,18.1z M20.3,40c0,0.9,0.7,1.7,1.6,1.7h4.3c0.9,0,1.6-0.8,1.6-1.7l-0.8-14.9l-6.2,6.2L20.3,40z M30.4,8.7
	c-0.2-1.3-3-1.4-3.2,0.1v9l4-4C30.8,11.4,30.4,8.9,30.4,8.7z"/>
<path d="M27.2,18.1v-0.3l-0.5,0.5C26.9,18.3,27.2,18.2,27.2,18.1z"/>
</svg>
