<svg width="28" height="24" viewBox="0 0 28 24" fill="none" xmlns="http://www.w3.org/2000/svg">
<path d="M24.5 0H3.5C1.5668 0 0 1.53536 0 3.42857V20.5714C0 22.4646 1.5668 24 3.5 24H24.5C26.4332 24 28 22.4646 28 20.5714V3.42857C28 1.53536 26.4305 0 24.5 0ZM6.5625 18C6.20791 18 5.8543 17.8594 5.59508 17.5832C5.10546 17.0592 5.14134 16.2455 5.67541 15.7666L9.87109 12L5.67656 8.23393C5.14172 7.75714 5.10563 6.94286 5.59453 6.41786C6.08344 5.89286 6.91469 5.86018 7.44898 6.33916L12.699 11.0534C12.9719 11.2929 13.125 11.6411 13.125 12C13.125 12.3589 12.9719 12.7071 12.6984 12.9482L7.44844 17.6625C7.19687 17.8875 6.87969 18 6.5625 18ZM21.4375 18.8571H13.5625C12.8406 18.8571 12.25 18.2839 12.25 17.5714C12.25 16.8589 12.8379 16.2857 13.5625 16.2857H21.4375C22.1621 16.2857 22.75 16.8616 22.75 17.5714C22.75 18.2812 22.1648 18.8571 21.4375 18.8571Z" />
</svg>
