<svg width="28" height="28" viewBox="0 0 28 28" fill="none" xmlns="http://www.w3.org/2000/svg">
<path d="M0.678802 8.09517L13.4176 13.8739C13.7895 14.0429 14.21 14.0429 14.5819 13.8739L27.3207 8.09517C28.2257 7.68447 28.2257 6.31675 27.3207 5.90605L14.5824 0.126735C14.3997 0.0432231 14.2012 0 14.0003 0C13.7994 0 13.6008 0.0432231 13.4181 0.126735L0.678802 5.90551C-0.226267 6.31621 -0.226267 7.68447 0.678802 8.09517ZM27.3212 12.9229L24.1444 11.483L15.3048 15.4899C14.8914 15.6775 14.4523 15.7727 14 15.7727C13.5477 15.7727 13.1091 15.6775 12.6952 15.4899L3.85612 11.483L0.678802 12.9229C-0.226267 13.3331 -0.226267 14.7003 0.678802 15.1104L13.4176 20.8848C13.7895 21.0533 14.21 21.0533 14.5819 20.8848L27.3212 15.1104C28.2263 14.7003 28.2263 13.3331 27.3212 12.9229ZM27.3212 19.9119L24.1565 18.4775L15.3048 22.4899C14.8914 22.6775 14.4523 22.7726 14 22.7726C13.5477 22.7726 13.1091 22.6775 12.6952 22.4899L3.84408 18.4775L0.678802 19.9119C-0.226267 20.3221 -0.226267 21.6893 0.678802 22.0994L13.4176 27.8738C13.7895 28.0422 14.21 28.0422 14.5819 27.8738L27.3212 22.0994C28.2263 21.6893 28.2263 20.3221 27.3212 19.9119Z" />
</svg>
