<svg width="436" height="420" viewBox="0 0 436 420" fill="none" xmlns="http://www.w3.org/2000/svg">
<g filter="url(#filter0_d)">
<rect x="8" y="48" width="420" height="362" rx="4" fill="white"/>
</g>
<rect x="8" y="82" width="420" height="328" rx="4" fill="white"/>
<path d="M24 94C24 91.7909 25.7909 90 28 90H416C418.209 90 420 91.7909 420 94V118H24V94Z" fill="white"/>
<path d="M35.372 108.608C34.828 108.608 34.34 108.512 33.908 108.32C33.476 108.12 33.132 107.852 32.876 107.516C32.628 107.18 32.492 106.808 32.468 106.4H34.16C34.192 106.656 34.316 106.868 34.532 107.036C34.756 107.204 35.032 107.288 35.36 107.288C35.68 107.288 35.928 107.224 36.104 107.096C36.288 106.968 36.38 106.804 36.38 106.604C36.38 106.388 36.268 106.228 36.044 106.124C35.828 106.012 35.48 105.892 35 105.764C34.504 105.644 34.096 105.52 33.776 105.392C33.464 105.264 33.192 105.068 32.96 104.804C32.736 104.54 32.624 104.184 32.624 103.736C32.624 103.368 32.728 103.032 32.936 102.728C33.152 102.424 33.456 102.184 33.848 102.008C34.248 101.832 34.716 101.744 35.252 101.744C36.044 101.744 36.676 101.944 37.148 102.344C37.62 102.736 37.88 103.268 37.928 103.94H36.32C36.296 103.676 36.184 103.468 35.984 103.316C35.792 103.156 35.532 103.076 35.204 103.076C34.9 103.076 34.664 103.132 34.496 103.244C34.336 103.356 34.256 103.512 34.256 103.712C34.256 103.936 34.368 104.108 34.592 104.228C34.816 104.34 35.164 104.456 35.636 104.576C36.116 104.696 36.512 104.82 36.824 104.948C37.136 105.076 37.404 105.276 37.628 105.548C37.86 105.812 37.98 106.164 37.988 106.604C37.988 106.988 37.88 107.332 37.664 107.636C37.456 107.94 37.152 108.18 36.752 108.356C36.36 108.524 35.9 108.608 35.372 108.608ZM45.6431 101.852V108.5H43.9511V107.66C43.7351 107.948 43.4511 108.176 43.0991 108.344C42.7551 108.504 42.3791 108.584 41.9711 108.584C41.4511 108.584 40.9911 108.476 40.5911 108.26C40.1911 108.036 39.8751 107.712 39.6431 107.288C39.4191 106.856 39.3071 106.344 39.3071 105.752V101.852H40.9871V105.512C40.9871 106.04 41.1191 106.448 41.3831 106.736C41.6471 107.016 42.0071 107.156 42.4631 107.156C42.9271 107.156 43.2911 107.016 43.5551 106.736C43.8191 106.448 43.9511 106.04 43.9511 105.512V101.852H45.6431ZM48.9807 102.824C49.1967 102.504 49.4927 102.244 49.8687 102.044C50.2527 101.844 50.6887 101.744 51.1767 101.744C51.7447 101.744 52.2567 101.884 52.7127 102.164C53.1767 102.444 53.5407 102.844 53.8047 103.364C54.0767 103.876 54.2127 104.472 54.2127 105.152C54.2127 105.832 54.0767 106.436 53.8047 106.964C53.5407 107.484 53.1767 107.888 52.7127 108.176C52.2567 108.464 51.7447 108.608 51.1767 108.608C50.6807 108.608 50.2447 108.512 49.8687 108.32C49.5007 108.12 49.2047 107.864 48.9807 107.552V108.5H47.3007V99.62H48.9807V102.824ZM52.4967 105.152C52.4967 104.752 52.4127 104.408 52.2447 104.12C52.0847 103.824 51.8687 103.6 51.5967 103.448C51.3327 103.296 51.0447 103.22 50.7327 103.22C50.4287 103.22 50.1407 103.3 49.8687 103.46C49.6047 103.612 49.3887 103.836 49.2207 104.132C49.0607 104.428 48.9807 104.776 48.9807 105.176C48.9807 105.576 49.0607 105.924 49.2207 106.22C49.3887 106.516 49.6047 106.744 49.8687 106.904C50.1407 107.056 50.4287 107.132 50.7327 107.132C51.0447 107.132 51.3327 107.052 51.5967 106.892C51.8687 106.732 52.0847 106.504 52.2447 106.208C52.4127 105.912 52.4967 105.56 52.4967 105.152ZM57.9775 108.608C57.4335 108.608 56.9455 108.512 56.5135 108.32C56.0815 108.12 55.7375 107.852 55.4815 107.516C55.2335 107.18 55.0975 106.808 55.0735 106.4H56.7655C56.7975 106.656 56.9215 106.868 57.1375 107.036C57.3615 107.204 57.6375 107.288 57.9655 107.288C58.2855 107.288 58.5335 107.224 58.7095 107.096C58.8935 106.968 58.9855 106.804 58.9855 106.604C58.9855 106.388 58.8735 106.228 58.6495 106.124C58.4335 106.012 58.0855 105.892 57.6055 105.764C57.1095 105.644 56.7015 105.52 56.3815 105.392C56.0695 105.264 55.7975 105.068 55.5655 104.804C55.3415 104.54 55.2295 104.184 55.2295 103.736C55.2295 103.368 55.3335 103.032 55.5415 102.728C55.7575 102.424 56.0615 102.184 56.4535 102.008C56.8535 101.832 57.3215 101.744 57.8575 101.744C58.6495 101.744 59.2815 101.944 59.7535 102.344C60.2255 102.736 60.4855 103.268 60.5335 103.94H58.9255C58.9015 103.676 58.7895 103.468 58.5895 103.316C58.3975 103.156 58.1375 103.076 57.8095 103.076C57.5055 103.076 57.2695 103.132 57.1015 103.244C56.9415 103.356 56.8615 103.512 56.8615 103.712C56.8615 103.936 56.9735 104.108 57.1975 104.228C57.4215 104.34 57.7695 104.456 58.2415 104.576C58.7215 104.696 59.1175 104.82 59.4295 104.948C59.7415 105.076 60.0095 105.276 60.2335 105.548C60.4655 105.812 60.5855 106.164 60.5935 106.604C60.5935 106.988 60.4855 107.332 60.2695 107.636C60.0615 107.94 59.7575 108.18 59.3575 108.356C58.9655 108.524 58.5055 108.608 57.9775 108.608ZM63.9285 103.232V106.448C63.9285 106.672 63.9805 106.836 64.0845 106.94C64.1965 107.036 64.3805 107.084 64.6365 107.084H65.4165V108.5H64.3605C62.9445 108.5 62.2365 107.812 62.2365 106.436V103.232H61.4445V101.852H62.2365V100.208H63.9285V101.852H65.4165V103.232H63.9285ZM68.3049 102.884C68.5209 102.532 68.8009 102.256 69.1449 102.056C69.4969 101.856 69.8969 101.756 70.3449 101.756V103.52H69.9009C69.3729 103.52 68.9729 103.644 68.7009 103.892C68.4369 104.14 68.3049 104.572 68.3049 105.188V108.5H66.6249V101.852H68.3049V102.884ZM71.0444 105.152C71.0444 104.48 71.1764 103.884 71.4404 103.364C71.7124 102.844 72.0764 102.444 72.5324 102.164C72.9964 101.884 73.5124 101.744 74.0804 101.744C74.5764 101.744 75.0084 101.844 75.3764 102.044C75.7524 102.244 76.0524 102.496 76.2764 102.8V101.852H77.9684V108.5H76.2764V107.528C76.0604 107.84 75.7604 108.1 75.3764 108.308C75.0004 108.508 74.5644 108.608 74.0684 108.608C73.5084 108.608 72.9964 108.464 72.5324 108.176C72.0764 107.888 71.7124 107.484 71.4404 106.964C71.1764 106.436 71.0444 105.832 71.0444 105.152ZM76.2764 105.176C76.2764 104.768 76.1964 104.42 76.0364 104.132C75.8764 103.836 75.6604 103.612 75.3884 103.46C75.1164 103.3 74.8244 103.22 74.5124 103.22C74.2004 103.22 73.9124 103.296 73.6484 103.448C73.3844 103.6 73.1684 103.824 73.0004 104.12C72.8404 104.408 72.7604 104.752 72.7604 105.152C72.7604 105.552 72.8404 105.904 73.0004 106.208C73.1684 106.504 73.3844 106.732 73.6484 106.892C73.9204 107.052 74.2084 107.132 74.5124 107.132C74.8244 107.132 75.1164 107.056 75.3884 106.904C75.6604 106.744 75.8764 106.52 76.0364 106.232C76.1964 105.936 76.2764 105.584 76.2764 105.176ZM81.5653 103.232V106.448C81.5653 106.672 81.6173 106.836 81.7213 106.94C81.8333 107.036 82.0173 107.084 82.2733 107.084H83.0533V108.5H81.9973C80.5813 108.5 79.8733 107.812 79.8733 106.436V103.232H79.0813V101.852H79.8733V100.208H81.5653V101.852H83.0533V103.232H81.5653ZM90.4416 105.032C90.4416 105.272 90.4256 105.488 90.3936 105.68H85.5336C85.5736 106.16 85.7416 106.536 86.0376 106.808C86.3336 107.08 86.6976 107.216 87.1296 107.216C87.7536 107.216 88.1976 106.948 88.4616 106.412H90.2736C90.0816 107.052 89.7136 107.58 89.1696 107.996C88.6256 108.404 87.9576 108.608 87.1656 108.608C86.5256 108.608 85.9496 108.468 85.4376 108.188C84.9336 107.9 84.5376 107.496 84.2496 106.976C83.9696 106.456 83.8296 105.856 83.8296 105.176C83.8296 104.488 83.9696 103.884 84.2496 103.364C84.5296 102.844 84.9216 102.444 85.4256 102.164C85.9296 101.884 86.5096 101.744 87.1656 101.744C87.7976 101.744 88.3616 101.88 88.8576 102.152C89.3616 102.424 89.7496 102.812 90.0216 103.316C90.3016 103.812 90.4416 104.384 90.4416 105.032ZM88.7016 104.552C88.6936 104.12 88.5376 103.776 88.2336 103.52C87.9296 103.256 87.5576 103.124 87.1176 103.124C86.7016 103.124 86.3496 103.252 86.0616 103.508C85.7816 103.756 85.6096 104.104 85.5456 104.552H88.7016ZM103.9 108.636C105.349 108.636 106.303 107.75 106.474 106.591H105.468C105.281 107.307 104.684 107.733 103.9 107.733C102.707 107.733 101.94 106.744 101.94 105.227C101.94 103.744 102.724 102.773 103.9 102.773C104.786 102.773 105.315 103.318 105.468 103.915H106.474C106.303 102.688 105.263 101.869 103.883 101.869C102.11 101.869 100.934 103.267 100.934 105.261C100.934 107.222 102.059 108.636 103.9 108.636ZM110.603 108.636C112.376 108.636 113.569 107.29 113.569 105.261C113.569 103.216 112.376 101.869 110.603 101.869C108.83 101.869 107.637 103.216 107.637 105.261C107.637 107.29 108.83 108.636 110.603 108.636ZM110.603 107.733C109.256 107.733 108.643 106.574 108.643 105.261C108.643 103.949 109.256 102.773 110.603 102.773C111.95 102.773 112.563 103.949 112.563 105.261C112.563 106.574 111.95 107.733 110.603 107.733ZM116.11 104.562C116.11 103.42 116.817 102.773 117.78 102.773C118.713 102.773 119.28 103.382 119.28 104.409V108.5H120.286V104.341C120.286 102.67 119.395 101.869 118.07 101.869C117.081 101.869 116.468 102.312 116.161 102.977H116.076V101.955H115.104V108.5H116.11V104.562ZM123.129 104.562C123.129 103.42 123.837 102.773 124.8 102.773C125.733 102.773 126.3 103.382 126.3 104.409V108.5H127.305V104.341C127.305 102.67 126.415 101.869 125.089 101.869C124.101 101.869 123.487 102.312 123.18 102.977H123.095V101.955H122.124V108.5H123.129V104.562ZM131.887 108.636C133.217 108.636 134.189 107.972 134.495 106.983L133.524 106.71C133.268 107.392 132.676 107.733 131.887 107.733C130.707 107.733 129.893 106.97 129.846 105.568H134.598V105.142C134.598 102.705 133.149 101.869 131.785 101.869C130.012 101.869 128.836 103.267 128.836 105.278C128.836 107.29 129.995 108.636 131.887 108.636ZM129.846 104.699C129.914 103.68 130.635 102.773 131.785 102.773C132.876 102.773 133.575 103.591 133.575 104.699H129.846ZM138.787 108.636C140.235 108.636 141.19 107.75 141.36 106.591H140.355C140.167 107.307 139.571 107.733 138.787 107.733C137.593 107.733 136.826 106.744 136.826 105.227C136.826 103.744 137.61 102.773 138.787 102.773C139.673 102.773 140.201 103.318 140.355 103.915H141.36C141.19 102.688 140.15 101.869 138.77 101.869C136.997 101.869 135.821 103.267 135.821 105.261C135.821 107.222 136.946 108.636 138.787 108.636ZM145.677 101.955H144.279V100.386H143.274V101.955H142.285V102.807H143.274V106.898C143.274 108.04 144.194 108.585 145.047 108.585C145.422 108.585 145.66 108.517 145.797 108.466L145.592 107.562C145.507 107.58 145.37 107.614 145.149 107.614C144.706 107.614 144.279 107.477 144.279 106.625V102.807H145.677V101.955Z" fill="#1E1E1E"/>
<path d="M99.1678 108.98V110.576H92.1238V108.98H99.1678Z" fill="#16DB9A"/>
<rect x="388" y="98" width="24" height="12" rx="6" fill="#16DB9A"/>
<circle cx="406" cy="104" r="4.5" fill="#FCFCFC"/>
<path d="M33.5877 143.961L41.8462 147.777V145.634L36.0447 143.146V143.038L41.8462 140.55V138.407L33.5877 142.223V143.961ZM50.4715 144.1C50.4715 145.513 49.4633 146.213 48.4974 146.213C47.447 146.213 46.7467 145.471 46.7467 144.293V138.727H44.5613V144.631C44.5613 146.859 45.8291 148.121 47.6523 148.121C49.0407 148.121 50.0187 147.39 50.4413 146.352H50.5379V148H52.6569V138.727H50.4715V144.1ZM56.5884 148L57.6087 144.951H62.2571L63.2834 148H65.674L61.3153 135.636H58.5504L54.1978 148H56.5884ZM58.2124 143.152L59.8846 138.172H59.9812L61.6534 143.152H58.2124ZM67.2059 151.477H69.3912V146.539H69.4818C69.8259 147.215 70.5443 148.163 72.1381 148.163C74.3234 148.163 75.9594 146.43 75.9594 143.376C75.9594 140.285 74.2751 138.607 72.132 138.607C70.496 138.607 69.8138 139.591 69.4818 140.261H69.355V138.727H67.2059V151.477ZM69.349 143.364C69.349 141.565 70.1217 140.4 71.5283 140.4C72.9832 140.4 73.7318 141.637 73.7318 143.364C73.7318 145.102 72.9711 146.37 71.5283 146.37C70.1338 146.37 69.349 145.163 69.349 143.364ZM77.8309 151.477H80.0162V146.539H80.1068C80.4509 147.215 81.1693 148.163 82.7631 148.163C84.9484 148.163 86.5844 146.43 86.5844 143.376C86.5844 140.285 84.9001 138.607 82.757 138.607C81.121 138.607 80.4388 139.591 80.1068 140.261H79.98V138.727H77.8309V151.477ZM79.974 143.364C79.974 141.565 80.7467 140.4 82.1533 140.4C83.6082 140.4 84.3568 141.637 84.3568 143.364C84.3568 145.102 83.5961 146.37 82.1533 146.37C80.7588 146.37 79.974 145.163 79.974 143.364ZM93.216 142.959C93.216 145.972 94.0189 148.477 95.6066 150.626H97.6652C96.4397 149.032 95.4919 145.821 95.4919 142.959C95.4919 140.092 96.4397 136.88 97.6652 135.286H95.6066C94.0189 137.435 93.216 139.947 93.216 142.959ZM110.042 139.808C109.662 137.061 107.549 135.467 104.808 135.467C101.579 135.467 99.1458 137.822 99.1458 141.818C99.1458 145.809 101.548 148.169 104.808 148.169C107.748 148.169 109.698 146.267 110.042 143.907L107.785 143.895C107.501 145.344 106.318 146.159 104.839 146.159C102.834 146.159 101.398 144.656 101.398 141.818C101.398 139.029 102.822 137.478 104.845 137.478C106.348 137.478 107.525 138.329 107.785 139.808H110.042ZM117.907 144.1C117.907 145.513 116.899 146.213 115.933 146.213C114.883 146.213 114.182 145.471 114.182 144.293V138.727H111.997V144.631C111.997 146.859 113.265 148.121 115.088 148.121C116.476 148.121 117.454 147.39 117.877 146.352H117.973V148H120.092V138.727H117.907V144.1ZM122.34 148H124.525V142.549C124.525 141.371 125.412 140.538 126.614 140.538C126.982 140.538 127.441 140.605 127.628 140.665V138.655C127.429 138.619 127.085 138.594 126.843 138.594C125.781 138.594 124.893 139.198 124.555 140.273H124.459V138.727H122.34V148ZM129.08 148H131.265V142.549C131.265 141.371 132.153 140.538 133.354 140.538C133.722 140.538 134.181 140.605 134.368 140.665V138.655C134.169 138.619 133.825 138.594 133.583 138.594C132.521 138.594 131.634 139.198 131.295 140.273H131.199V138.727H129.08V148ZM139.543 148.181C141.705 148.181 143.19 147.125 143.576 145.513L141.536 145.283C141.24 146.068 140.515 146.479 139.574 146.479C138.161 146.479 137.225 145.549 137.207 143.961H143.667V143.291C143.667 140.037 141.711 138.607 139.429 138.607C136.772 138.607 135.04 140.556 135.04 143.418C135.04 146.328 136.748 148.181 139.543 148.181ZM137.213 142.488C137.28 141.305 138.155 140.309 139.459 140.309C140.715 140.309 141.56 141.227 141.572 142.488H137.213ZM147.701 142.567C147.701 141.227 148.51 140.454 149.663 140.454C150.792 140.454 151.468 141.196 151.468 142.434V148H153.653V142.096C153.659 139.874 152.392 138.607 150.478 138.607C149.089 138.607 148.135 139.271 147.713 140.303H147.604V138.727H145.515V148H147.701V142.567ZM160.505 138.727H158.676V136.506H156.491V138.727H155.175V140.418H156.491V145.573C156.479 147.318 157.746 148.175 159.388 148.127C160.01 148.109 160.439 147.988 160.674 147.909L160.306 146.201C160.185 146.231 159.938 146.286 159.666 146.286C159.117 146.286 158.676 146.092 158.676 145.211V140.418H160.505V138.727ZM166.233 142.959C166.233 139.947 165.43 137.441 163.842 135.292H161.783C163.009 136.886 163.957 140.098 163.957 142.959C163.957 145.827 163.009 149.038 161.783 150.632H163.842C165.43 148.483 166.233 145.972 166.233 142.959ZM177.747 143.961V142.223L169.488 138.407V140.55L175.29 143.038V143.146L169.488 145.634V147.777L177.747 143.961Z" fill="#111111"/>
<path d="M357.999 156.5C361.106 156.5 363.627 153.979 363.627 150.872C363.627 147.765 361.106 145.244 357.999 145.244C354.892 145.244 352.371 147.765 352.371 150.872C352.371 153.979 354.892 156.5 357.999 156.5ZM359.401 147.004C360.216 147.69 360.325 148.908 359.639 149.724C358.814 149.038 358.973 149.172 358.158 148.486C357.338 147.8 357.497 147.934 356.681 147.243C357.367 146.428 358.585 146.318 359.401 147.004ZM355.533 149.704C355.165 148.7 355.687 147.591 356.686 147.228L357.343 149.043C357.71 150.042 357.641 149.853 358.004 150.857C357.004 151.22 355.896 150.703 355.533 149.704ZM360.47 152.026C360.838 153.03 360.325 154.134 359.321 154.501C358.953 153.497 359.023 153.686 358.66 152.682C358.292 151.683 358.367 151.876 357.999 150.872C358.998 150.504 360.112 151.021 360.47 152.026ZM356.597 154.735C355.781 154.049 355.677 152.831 356.358 152.016C357.178 152.702 357.024 152.572 357.835 153.259C358.655 153.94 358.501 153.81 359.321 154.496C358.635 155.312 357.417 155.421 356.597 154.735Z" fill="#111111"/>
<path d="M381.525 151.886C381.659 151.404 382.346 151.404 382.48 151.886L383.459 155.406H386.522L388.873 146.408H386L385.264 149.977C385.154 150.499 384.419 150.514 384.289 149.997L383.404 146.408H380.6L379.725 150.017C379.601 150.534 378.87 150.529 378.761 150.007L378.502 148.774C378.214 147.392 377.001 146.408 375.579 146.408H375.127L377.468 155.406H380.541L381.525 151.886Z" fill="#111111"/>
<g opacity="0.1">
<path d="M405 136.167C401.78 136.167 399.167 138.78 399.167 142C399.167 145.22 401.78 147.833 405 147.833C408.22 147.833 410.833 145.22 410.833 142C410.833 138.78 408.22 136.167 405 136.167ZM400.333 142C400.333 139.422 402.422 137.333 405 137.333C406.079 137.333 407.071 137.701 407.858 138.319L401.319 144.858C400.701 144.071 400.333 143.079 400.333 142ZM405 146.667C403.921 146.667 402.929 146.299 402.142 145.681L408.681 139.142C409.299 139.929 409.667 140.921 409.667 142C409.667 144.578 407.578 146.667 405 146.667Z" fill="black" fill-opacity="0.87"/>
</g>
<path d="M34.12 188L35.1214 185.113H39.3828L40.3789 188H42.1261L38.2003 177.091H36.2987L32.3729 188H34.12ZM35.6009 183.728L37.2095 179.072H37.2947L38.9034 183.728H35.6009ZM43.5736 191.068H45.1663V186.727H45.2622C45.5498 187.249 46.1357 188.16 47.6272 188.16C49.6088 188.16 51.047 186.572 51.047 183.925C51.047 181.272 49.5874 179.712 47.6112 179.712C46.0931 179.712 45.5445 180.638 45.2622 181.145H45.129V179.818H43.5736V191.068ZM45.1343 183.909C45.1343 182.199 45.8801 181.065 47.2703 181.065C48.7139 181.065 49.4383 182.284 49.4383 183.909C49.4383 185.55 48.6926 186.801 47.2703 186.801C45.9014 186.801 45.1343 185.63 45.1343 183.909ZM52.8314 191.068H54.4241V186.727H54.52C54.8076 187.249 55.3936 188.16 56.885 188.16C58.8666 188.16 60.3048 186.572 60.3048 183.925C60.3048 181.272 58.8453 179.712 56.8691 179.712C55.3509 179.712 54.8023 180.638 54.52 181.145H54.3868V179.818H52.8314V191.068ZM54.3921 183.909C54.3921 182.199 55.1379 181.065 56.5281 181.065C57.9717 181.065 58.6961 182.284 58.6961 183.909C58.6961 185.55 57.9504 186.801 56.5281 186.801C55.1592 186.801 54.3921 185.63 54.3921 183.909Z" fill="#111111"/>
<path d="M388.73 179.569C388.452 179.295 388.104 179.116 387.726 179.057C387.259 178.992 386.781 179.32 386.458 179.539C386.135 179.753 385.534 180.389 385.275 180.573C385.012 180.757 384.375 180.936 383.346 181.592C382.317 182.249 378.235 184.968 378.235 184.968L379.294 184.978L374.566 187.533H375.039L374.362 188.08C374.735 188.17 375.128 188.11 375.466 187.911V188.065C375.466 188.065 381.089 185.754 382.178 186.35L381.521 186.549C381.576 186.549 382.65 186.619 382.65 186.619C382.675 186.852 382.749 187.071 382.864 187.27C382.983 187.469 383.142 187.633 383.326 187.762C383.972 188.205 383.982 188.443 383.982 188.443C383.982 188.443 383.649 188.587 383.649 188.766C384.241 188.577 384.877 188.577 385.469 188.766C385.469 188.766 385.434 188.587 384.987 188.443C384.539 188.304 384.102 187.807 383.878 187.533C383.749 187.354 383.664 187.146 383.629 186.927C383.6 186.703 383.624 186.479 383.704 186.271C383.858 185.853 384.405 185.624 385.514 185.023C386.826 184.317 387.119 183.785 387.308 183.377C387.492 182.969 387.766 182.154 387.92 181.771C388.049 181.413 388.263 181.095 388.551 180.857C388.899 180.663 389.262 180.494 389.635 180.349C389.635 180.349 388.949 179.753 388.73 179.569Z" fill="#111111"/>
<g opacity="0.1">
<path d="M405 177.667C401.78 177.667 399.167 180.28 399.167 183.5C399.167 186.72 401.78 189.333 405 189.333C408.22 189.333 410.833 186.72 410.833 183.5C410.833 180.28 408.22 177.667 405 177.667ZM400.333 183.5C400.333 180.922 402.422 178.833 405 178.833C406.079 178.833 407.071 179.201 407.858 179.819L401.319 186.358C400.701 185.571 400.333 184.579 400.333 183.5ZM405 188.167C403.921 188.167 402.929 187.799 402.142 187.181L408.681 180.642C409.299 181.429 409.667 182.421 409.667 183.5C409.667 186.078 407.578 188.167 405 188.167Z" fill="black" fill-opacity="0.87"/>
</g>
<path d="M37.0455 202.324C37.0455 203.551 36.108 204.114 35.358 204.114C34.5227 204.114 33.9261 203.5 33.9261 202.545V198.455H32.9205V202.614C32.9205 204.284 33.8068 205.085 35.0341 205.085C36.0227 205.085 36.6705 204.557 36.9773 203.892H37.0455V205H38.0511V198.455H37.0455V202.324ZM39.8931 205H40.8988V200.858C40.8988 199.972 41.5977 199.324 42.5522 199.324C42.8207 199.324 43.0977 199.375 43.1658 199.392V198.369C43.0508 198.361 42.7866 198.352 42.6374 198.352C41.8533 198.352 41.1715 198.795 40.9329 199.443H40.8647V198.455H39.8931V205ZM45.3636 196.273H44.358V205H45.3636V196.273ZM50.9556 200.79H47.1374V201.727H50.9556V200.79ZM55.7763 196.273H54.7195L52.5376 197.722V198.795L54.6683 197.381H54.7195V205H55.7763V196.273ZM58.5206 205.068C58.9425 205.068 59.2876 204.723 59.2876 204.301C59.2876 203.879 58.9425 203.534 58.5206 203.534C58.0987 203.534 57.7536 203.879 57.7536 204.301C57.7536 204.723 58.0987 205.068 58.5206 205.068ZM62.098 201.062C62.098 199.92 62.8054 199.273 63.7685 199.273C64.7017 199.273 65.2685 199.882 65.2685 200.909V205H66.2741V200.841C66.2741 199.17 65.3835 198.369 64.0582 198.369C63.0696 198.369 62.456 198.812 62.1491 199.477H62.0639V198.455H61.0923V205H62.098V201.062ZM70.8562 205.136C72.1857 205.136 73.1573 204.472 73.4641 203.483L72.4925 203.21C72.2369 203.892 71.6445 204.233 70.8562 204.233C69.6758 204.233 68.8619 203.47 68.815 202.068H73.5664V201.642C73.5664 199.205 72.1175 198.369 70.7539 198.369C68.9812 198.369 67.805 199.767 67.805 201.778C67.805 203.79 68.9641 205.136 70.8562 205.136ZM68.815 201.199C68.8832 200.18 69.6033 199.273 70.7539 199.273C71.8448 199.273 72.5437 200.091 72.5437 201.199H68.815ZM77.9428 198.455H76.5451V196.886H75.5394V198.455H74.5508V199.307H75.5394V203.398C75.5394 204.54 76.4599 205.085 77.3121 205.085C77.6871 205.085 77.9258 205.017 78.0621 204.966L77.8576 204.062C77.7724 204.08 77.636 204.114 77.4144 204.114C76.9712 204.114 76.5451 203.977 76.5451 203.125V199.307H77.9428V198.455ZM82.5408 195.864H81.6204L78.8079 206.312H79.7283L82.5408 195.864ZM84.7386 196.273H83.733V205H84.7386V196.273ZM91.217 199.92C90.9016 198.991 90.1942 198.369 88.8988 198.369C87.5181 198.369 86.4954 199.153 86.4954 200.261C86.4954 201.165 87.0323 201.77 88.234 202.051L89.3249 202.307C89.9854 202.46 90.2965 202.776 90.2965 203.227C90.2965 203.79 89.6999 204.25 88.7624 204.25C87.94 204.25 87.4244 203.896 87.2454 203.193L86.2908 203.432C86.5252 204.544 87.4414 205.136 88.7795 205.136C90.3008 205.136 91.3363 204.305 91.3363 203.176C91.3363 202.264 90.7653 201.689 89.5977 201.403L88.6261 201.165C87.8505 200.973 87.5011 200.713 87.5011 200.21C87.5011 199.648 88.0977 199.239 88.8988 199.239C89.7766 199.239 90.1388 199.724 90.3136 200.176L91.217 199.92ZM95.3217 205.136C96.5831 205.136 97.0092 204.352 97.2308 203.994H97.3501V205H98.3217V196.273H97.3161V199.494H97.2308C97.0092 199.153 96.6172 198.369 95.3388 198.369C93.6854 198.369 92.5433 199.682 92.5433 201.744C92.5433 203.824 93.6854 205.136 95.3217 205.136ZM95.4581 204.233C94.1967 204.233 93.549 203.125 93.549 201.727C93.549 200.347 94.1797 199.273 95.4581 199.273C96.6854 199.273 97.3331 200.261 97.3331 201.727C97.3331 203.21 96.6683 204.233 95.4581 204.233ZM100.303 198.455V205.477C100.303 206.142 100.031 206.517 99.4169 206.517H99.2294V207.455H99.4339C100.695 207.455 101.309 206.688 101.309 205.477V198.455H100.303ZM100.798 197.364C101.19 197.364 101.513 197.057 101.513 196.682C101.513 196.307 101.19 196 100.798 196C100.406 196 100.082 196.307 100.082 196.682C100.082 197.057 100.406 197.364 100.798 197.364ZM104.157 201.062C104.157 199.92 104.885 199.273 105.878 199.273C106.824 199.273 107.395 199.869 107.395 200.909V205H108.401V200.841C108.401 199.158 107.506 198.369 106.168 198.369C105.137 198.369 104.549 198.8 104.242 199.477H104.157V196.273H103.151V205H104.157V201.062ZM111.724 205H112.712L114.144 199.972H114.246L115.678 205H116.667L118.661 198.455H117.604L116.19 203.449H116.121L114.741 198.455H113.667L112.269 203.466H112.201L110.786 198.455H109.729L111.724 205ZM122.427 205.136C124.2 205.136 125.393 203.79 125.393 201.761C125.393 199.716 124.2 198.369 122.427 198.369C120.654 198.369 119.461 199.716 119.461 201.761C119.461 203.79 120.654 205.136 122.427 205.136ZM122.427 204.233C121.081 204.233 120.467 203.074 120.467 201.761C120.467 200.449 121.081 199.273 122.427 199.273C123.774 199.273 124.387 200.449 124.387 201.761C124.387 203.074 123.774 204.233 122.427 204.233ZM129.4 205.136C130.661 205.136 131.087 204.352 131.309 203.994H131.428V205H132.4V196.273H131.394V199.494H131.309C131.087 199.153 130.695 198.369 129.417 198.369C127.763 198.369 126.621 199.682 126.621 201.744C126.621 203.824 127.763 205.136 129.4 205.136ZM129.536 204.233C128.275 204.233 127.627 203.125 127.627 201.727C127.627 200.347 128.258 199.273 129.536 199.273C130.763 199.273 131.411 200.261 131.411 201.727C131.411 203.21 130.746 204.233 129.536 204.233ZM135.387 201.062C135.387 199.92 136.116 199.273 137.109 199.273C138.055 199.273 138.626 199.869 138.626 200.909V205H139.631V200.841C139.631 199.158 138.737 198.369 137.398 198.369C136.367 198.369 135.779 198.8 135.472 199.477H135.387V196.273H134.381V205H135.387V201.062ZM146.943 207.455V198.455H145.971V199.494H145.852C145.63 199.153 145.238 198.369 143.96 198.369C142.306 198.369 141.164 199.682 141.164 201.744C141.164 203.824 142.306 205.136 143.943 205.136C145.204 205.136 145.63 204.352 145.852 203.994H145.937V207.455H146.943ZM145.954 201.727C145.954 203.21 145.289 204.233 144.079 204.233C142.818 204.233 142.17 203.125 142.17 201.727C142.17 200.347 142.801 199.273 144.079 199.273C145.306 199.273 145.954 200.261 145.954 201.727Z" fill="#78B1D0"/>
<path d="M42.6747 233.545C42.6747 230.056 40.5866 227.942 37.7635 227.942C34.9297 227.942 32.8469 230.056 32.8469 233.545C32.8469 237.029 34.9297 239.149 37.7635 239.149C40.5866 239.149 42.6747 237.034 42.6747 233.545ZM41.0447 233.545C41.0447 236.203 39.6385 237.647 37.7635 237.647C35.8832 237.647 34.4822 236.203 34.4822 233.545C34.4822 230.887 35.8832 229.444 37.7635 229.444C39.6385 229.444 41.0447 230.887 41.0447 233.545ZM46.1917 234.142C46.1917 232.837 46.9907 232.091 48.0986 232.091C49.18 232.091 49.8351 232.8 49.8351 233.988V239H51.4278V233.796C51.4278 231.772 50.3145 230.712 48.642 230.712C47.4115 230.712 46.6072 231.282 46.229 232.15H46.1278V230.818H44.599V239H46.1917V234.142ZM57.0901 239.165C58.8746 239.165 60.137 238.286 60.4992 236.955L58.9917 236.683C58.7041 237.455 58.0116 237.849 57.1061 237.849C55.7425 237.849 54.8263 236.965 54.7836 235.388H60.6004V234.824C60.6004 231.868 58.8319 230.712 56.9782 230.712C54.6984 230.712 53.1963 232.448 53.1963 234.962C53.1963 237.503 54.6771 239.165 57.0901 239.165ZM54.789 234.195C54.8529 233.034 55.6945 232.027 56.9889 232.027C58.2247 232.027 59.0344 232.944 59.0397 234.195H54.789ZM66.4651 228.091V239H68.0312V231.1H68.1324L71.3497 238.984H72.6494L75.8667 231.106H75.968V239H77.534V228.091H75.5365L72.0635 236.571H71.9356L68.4626 228.091H66.4651ZM83.2456 239.165C85.552 239.165 87.0595 237.477 87.0595 234.946C87.0595 232.4 85.552 230.712 83.2456 230.712C80.9391 230.712 79.4316 232.4 79.4316 234.946C79.4316 237.477 80.9391 239.165 83.2456 239.165ZM83.2509 237.828C81.7434 237.828 81.0403 236.512 81.0403 234.941C81.0403 233.375 81.7434 232.043 83.2509 232.043C84.7477 232.043 85.4508 233.375 85.4508 234.941C85.4508 236.512 84.7477 237.828 83.2509 237.828ZM88.8373 239H90.43V234.004C90.43 232.933 91.2556 232.161 92.3849 232.161C92.7151 232.161 93.088 232.219 93.2158 232.256V230.733C93.056 230.712 92.7417 230.696 92.5393 230.696C91.5805 230.696 90.7602 231.239 90.4619 232.118H90.3767V230.818H88.8373V239ZM97.8274 239.165C99.6119 239.165 100.874 238.286 101.237 236.955L99.729 236.683C99.4414 237.455 98.7489 237.849 97.8434 237.849C96.4798 237.849 95.5636 236.965 95.521 235.388H101.338V234.824C101.338 231.868 99.5692 230.712 97.7156 230.712C95.4357 230.712 93.9336 232.448 93.9336 234.962C93.9336 237.503 95.4144 239.165 97.8274 239.165ZM95.5263 234.195C95.5902 233.034 96.4318 232.027 97.7262 232.027C98.962 232.027 99.7717 232.944 99.777 234.195H95.5263Z" fill="#111111"/>
<path d="M333.998 228.685C331.611 228.685 329.657 230.609 329.657 233.025C329.657 233.502 329.732 233.979 329.881 234.427C329.985 234.725 330.328 234.904 330.657 234.8C330.97 234.71 331.134 234.352 331.044 234.054C330.91 233.681 330.865 233.293 330.865 232.92C330.91 231.31 332.223 229.982 333.848 229.908C335.638 229.803 337.145 231.235 337.145 233.025C337.145 234.68 335.832 236.067 334.176 236.142C334.176 236.142 333.58 236.187 333.267 236.217C333.118 236.232 333.028 236.261 332.924 236.291C332.894 236.291 332.864 236.261 332.864 236.217L332.968 235.71L333.55 233.129C333.595 232.801 333.401 232.473 333.073 232.428C332.775 232.339 332.446 232.548 332.372 232.876C332.372 232.876 331.015 239.17 331.015 239.244C330.94 239.572 331.134 239.901 331.462 239.945C331.79 240.025 332.118 239.826 332.163 239.498C332.193 239.423 332.372 238.603 332.372 238.603C332.521 237.947 333.043 237.484 333.654 237.395C333.804 237.395 334.326 237.335 334.326 237.335C336.563 237.171 338.338 235.307 338.338 233.025C338.338 230.609 336.384 228.685 333.998 228.685ZM334.296 238.678C333.923 238.603 333.52 238.827 333.446 239.229C333.371 239.632 333.595 240.01 333.998 240.085C334.4 240.189 334.803 239.93 334.877 239.528C334.952 239.125 334.699 238.752 334.296 238.678Z" fill="#111111"/>
<path d="M364.73 230.569C364.452 230.295 364.104 230.116 363.726 230.057C363.259 229.992 362.781 230.32 362.458 230.539C362.135 230.753 361.534 231.389 361.275 231.573C361.012 231.757 360.375 231.936 359.346 232.592C358.317 233.249 354.235 235.968 354.235 235.968L355.294 235.978L350.566 238.533H351.039L350.362 239.08C350.735 239.17 351.128 239.11 351.466 238.911V239.065C351.466 239.065 357.089 236.754 358.178 237.35L357.521 237.549C357.576 237.549 358.65 237.619 358.65 237.619C358.675 237.852 358.749 238.071 358.864 238.27C358.983 238.469 359.142 238.633 359.326 238.762C359.972 239.205 359.982 239.443 359.982 239.443C359.982 239.443 359.649 239.587 359.649 239.766C360.241 239.577 360.877 239.577 361.469 239.766C361.469 239.766 361.434 239.587 360.987 239.443C360.539 239.304 360.102 238.807 359.878 238.533C359.749 238.354 359.664 238.146 359.629 237.927C359.6 237.703 359.624 237.479 359.704 237.271C359.858 236.853 360.405 236.624 361.514 236.023C362.826 235.317 363.119 234.785 363.308 234.377C363.492 233.969 363.766 233.154 363.92 232.771C364.049 232.413 364.263 232.095 364.551 231.857C364.899 231.663 365.262 231.494 365.635 231.349C365.635 231.349 364.949 230.753 364.73 230.569Z" fill="#111111"/>
<path d="M381.525 235.386C381.659 234.904 382.346 234.904 382.48 235.386L383.459 238.906H386.522L388.873 229.908H386L385.264 233.477C385.154 233.999 384.419 234.014 384.289 233.497L383.404 229.908H380.6L379.725 233.517C379.601 234.034 378.87 234.029 378.761 233.507L378.502 232.274C378.214 230.892 377.001 229.908 375.579 229.908H375.127L377.468 238.906H380.541L381.525 235.386Z" fill="#111111"/>
<g opacity="0.1">
<path d="M405 228.667C401.78 228.667 399.167 231.28 399.167 234.5C399.167 237.72 401.78 240.333 405 240.333C408.22 240.333 410.833 237.72 410.833 234.5C410.833 231.28 408.22 228.667 405 228.667ZM400.333 234.5C400.333 231.922 402.422 229.833 405 229.833C406.079 229.833 407.071 230.201 407.858 230.819L401.319 237.358C400.701 236.571 400.333 235.579 400.333 234.5ZM405 239.167C403.921 239.167 402.929 238.799 402.142 238.181L408.681 231.642C409.299 232.429 409.667 233.421 409.667 234.5C409.667 237.078 407.578 239.167 405 239.167Z" fill="black" fill-opacity="0.87"/>
</g>
<path d="M37.0455 253.324C37.0455 254.551 36.108 255.114 35.358 255.114C34.5227 255.114 33.9261 254.5 33.9261 253.545V249.455H32.9205V253.614C32.9205 255.284 33.8068 256.085 35.0341 256.085C36.0227 256.085 36.6705 255.557 36.9773 254.892H37.0455V256H38.0511V249.455H37.0455V253.324ZM39.8931 256H40.8988V251.858C40.8988 250.972 41.5977 250.324 42.5522 250.324C42.8207 250.324 43.0977 250.375 43.1658 250.392V249.369C43.0508 249.361 42.7866 249.352 42.6374 249.352C41.8533 249.352 41.1715 249.795 40.9329 250.443H40.8647V249.455H39.8931V256ZM45.3636 247.273H44.358V256H45.3636V247.273ZM50.9556 251.79H47.1374V252.727H50.9556V251.79ZM55.7763 247.273H54.7195L52.5376 248.722V249.795L54.6683 248.381H54.7195V256H55.7763V247.273ZM58.5206 256.068C58.9425 256.068 59.2876 255.723 59.2876 255.301C59.2876 254.879 58.9425 254.534 58.5206 254.534C58.0987 254.534 57.7536 254.879 57.7536 255.301C57.7536 255.723 58.0987 256.068 58.5206 256.068ZM62.098 252.062C62.098 250.92 62.8054 250.273 63.7685 250.273C64.7017 250.273 65.2685 250.882 65.2685 251.909V256H66.2741V251.841C66.2741 250.17 65.3835 249.369 64.0582 249.369C63.0696 249.369 62.456 249.812 62.1491 250.477H62.0639V249.455H61.0923V256H62.098V252.062ZM70.8562 256.136C72.1857 256.136 73.1573 255.472 73.4641 254.483L72.4925 254.21C72.2369 254.892 71.6445 255.233 70.8562 255.233C69.6758 255.233 68.8619 254.47 68.815 253.068H73.5664V252.642C73.5664 250.205 72.1175 249.369 70.7539 249.369C68.9812 249.369 67.805 250.767 67.805 252.778C67.805 254.79 68.9641 256.136 70.8562 256.136ZM68.815 252.199C68.8832 251.18 69.6033 250.273 70.7539 250.273C71.8448 250.273 72.5437 251.091 72.5437 252.199H68.815ZM77.9428 249.455H76.5451V247.886H75.5394V249.455H74.5508V250.307H75.5394V254.398C75.5394 255.54 76.4599 256.085 77.3121 256.085C77.6871 256.085 77.9258 256.017 78.0621 255.966L77.8576 255.062C77.7724 255.08 77.636 255.114 77.4144 255.114C76.9712 255.114 76.5451 254.977 76.5451 254.125V250.307H77.9428V249.455ZM82.5408 246.864H81.6204L78.8079 257.312H79.7283L82.5408 246.864ZM84.7386 247.273H83.733V256H84.7386V247.273ZM91.217 250.92C90.9016 249.991 90.1942 249.369 88.8988 249.369C87.5181 249.369 86.4954 250.153 86.4954 251.261C86.4954 252.165 87.0323 252.77 88.234 253.051L89.3249 253.307C89.9854 253.46 90.2965 253.776 90.2965 254.227C90.2965 254.79 89.6999 255.25 88.7624 255.25C87.94 255.25 87.4244 254.896 87.2454 254.193L86.2908 254.432C86.5252 255.544 87.4414 256.136 88.7795 256.136C90.3008 256.136 91.3363 255.305 91.3363 254.176C91.3363 253.264 90.7653 252.689 89.5977 252.403L88.6261 252.165C87.8505 251.973 87.5011 251.713 87.5011 251.21C87.5011 250.648 88.0977 250.239 88.8988 250.239C89.7766 250.239 90.1388 250.724 90.3136 251.176L91.217 250.92ZM95.3217 256.136C96.5831 256.136 97.0092 255.352 97.2308 254.994H97.3501V256H98.3217V247.273H97.3161V250.494H97.2308C97.0092 250.153 96.6172 249.369 95.3388 249.369C93.6854 249.369 92.5433 250.682 92.5433 252.744C92.5433 254.824 93.6854 256.136 95.3217 256.136ZM95.4581 255.233C94.1967 255.233 93.549 254.125 93.549 252.727C93.549 251.347 94.1797 250.273 95.4581 250.273C96.6854 250.273 97.3331 251.261 97.3331 252.727C97.3331 254.21 96.6683 255.233 95.4581 255.233ZM100.303 249.455V256.477C100.303 257.142 100.031 257.517 99.4169 257.517H99.2294V258.455H99.4339C100.695 258.455 101.309 257.688 101.309 256.477V249.455H100.303ZM100.798 248.364C101.19 248.364 101.513 248.057 101.513 247.682C101.513 247.307 101.19 247 100.798 247C100.406 247 100.082 247.307 100.082 247.682C100.082 248.057 100.406 248.364 100.798 248.364ZM104.157 252.062C104.157 250.92 104.885 250.273 105.878 250.273C106.824 250.273 107.395 250.869 107.395 251.909V256H108.401V251.841C108.401 250.158 107.506 249.369 106.168 249.369C105.137 249.369 104.549 249.8 104.242 250.477H104.157V247.273H103.151V256H104.157V252.062ZM111.724 256H112.712L114.144 250.972H114.246L115.678 256H116.667L118.661 249.455H117.604L116.19 254.449H116.121L114.741 249.455H113.667L112.269 254.466H112.201L110.786 249.455H109.729L111.724 256ZM122.427 256.136C124.2 256.136 125.393 254.79 125.393 252.761C125.393 250.716 124.2 249.369 122.427 249.369C120.654 249.369 119.461 250.716 119.461 252.761C119.461 254.79 120.654 256.136 122.427 256.136ZM122.427 255.233C121.081 255.233 120.467 254.074 120.467 252.761C120.467 251.449 121.081 250.273 122.427 250.273C123.774 250.273 124.387 251.449 124.387 252.761C124.387 254.074 123.774 255.233 122.427 255.233ZM129.4 256.136C130.661 256.136 131.087 255.352 131.309 254.994H131.428V256H132.4V247.273H131.394V250.494H131.309C131.087 250.153 130.695 249.369 129.417 249.369C127.763 249.369 126.621 250.682 126.621 252.744C126.621 254.824 127.763 256.136 129.4 256.136ZM129.536 255.233C128.275 255.233 127.627 254.125 127.627 252.727C127.627 251.347 128.258 250.273 129.536 250.273C130.763 250.273 131.411 251.261 131.411 252.727C131.411 254.21 130.746 255.233 129.536 255.233ZM135.387 252.062C135.387 250.92 136.116 250.273 137.109 250.273C138.055 250.273 138.626 250.869 138.626 251.909V256H139.631V251.841C139.631 250.158 138.737 249.369 137.398 249.369C136.367 249.369 135.779 249.8 135.472 250.477H135.387V247.273H134.381V256H135.387V252.062ZM146.943 258.455V249.455H145.971V250.494H145.852C145.63 250.153 145.238 249.369 143.96 249.369C142.306 249.369 141.164 250.682 141.164 252.744C141.164 254.824 142.306 256.136 143.943 256.136C145.204 256.136 145.63 255.352 145.852 254.994H145.937V258.455H146.943ZM145.954 252.727C145.954 254.21 145.289 255.233 144.079 255.233C142.818 255.233 142.17 254.125 142.17 252.727C142.17 251.347 142.801 250.273 144.079 250.273C145.306 250.273 145.954 251.261 145.954 252.727Z" fill="#78B1D0"/>
<rect x="24" y="274" width="296" height="1" fill="#EEEEEE"/>
<path d="M38.8011 295.364H39.9943C39.9396 293.827 38.5227 292.679 36.554 292.679C34.6051 292.679 33.0739 293.812 33.0739 295.523C33.0739 296.895 34.0682 297.71 35.6591 298.168L36.9119 298.526C37.9858 298.824 38.9403 299.202 38.9403 300.216C38.9403 301.33 37.8665 302.065 36.4545 302.065C35.2415 302.065 34.1676 301.528 34.0682 300.375H32.7955C32.9148 302.045 34.267 303.179 36.4545 303.179C38.8011 303.179 40.1335 301.886 40.1335 300.236C40.1335 298.327 38.3239 297.71 37.2699 297.432L36.2358 297.153C35.4801 296.955 34.267 296.557 34.267 295.463C34.267 294.489 35.1619 293.773 36.5142 293.773C37.7472 293.773 38.6818 294.359 38.8011 295.364ZM45.3533 303.159C46.9044 303.159 48.038 302.384 48.3959 301.23L47.2624 300.912C46.9641 301.707 46.273 302.105 45.3533 302.105C43.9762 302.105 43.0266 301.215 42.9719 299.58H48.5152V299.082C48.5152 296.239 46.8249 295.264 45.234 295.264C43.1658 295.264 41.7936 296.895 41.7936 299.241C41.7936 301.588 43.1459 303.159 45.3533 303.159ZM42.9719 298.565C43.0515 297.377 43.8917 296.318 45.234 296.318C46.5067 296.318 47.3221 297.273 47.3221 298.565H42.9719ZM53.7711 295.364H52.1404V293.534H50.9671V295.364H49.8137V296.358H50.9671V301.131C50.9671 302.463 52.0409 303.099 53.0353 303.099C53.4728 303.099 53.7512 303.02 53.9103 302.96L53.6716 301.906C53.5722 301.926 53.4131 301.966 53.1546 301.966C52.6375 301.966 52.1404 301.807 52.1404 300.812V296.358H53.7711V295.364ZM59.007 295.364H57.3763V293.534H56.203V295.364H55.0496V296.358H56.203V301.131C56.203 302.463 57.2769 303.099 58.2712 303.099C58.7087 303.099 58.9871 303.02 59.1462 302.96L58.9076 301.906C58.8081 301.926 58.649 301.966 58.3905 301.966C57.8735 301.966 57.3763 301.807 57.3763 300.812V296.358H59.007V295.364ZM60.9219 303H62.0952V295.364H60.9219V303ZM61.5185 294.091C61.9759 294.091 62.3537 293.733 62.3537 293.295C62.3537 292.858 61.9759 292.5 61.5185 292.5C61.0611 292.5 60.6833 292.858 60.6833 293.295C60.6833 293.733 61.0611 294.091 61.5185 294.091ZM65.5675 298.406C65.5675 297.074 66.3928 296.318 67.5163 296.318C68.6051 296.318 69.2663 297.029 69.2663 298.227V303H70.4396V298.148C70.4396 296.199 69.4006 295.264 67.8544 295.264C66.701 295.264 65.9851 295.781 65.6271 296.557H65.5277V295.364H64.3942V303H65.5675V298.406ZM75.816 306.023C77.6456 306.023 79.1172 305.188 79.1172 303.219V295.364H77.9836V296.577H77.8643C77.6058 296.179 77.1285 295.264 75.637 295.264C73.7081 295.264 72.3757 296.795 72.3757 299.142C72.3757 301.528 73.7677 302.881 75.6172 302.881C77.1086 302.881 77.5859 302.006 77.8444 301.588H77.9439V303.139C77.9439 304.412 77.049 304.989 75.816 304.989C74.4289 304.989 73.9417 304.258 73.6285 303.835L72.6939 304.491C73.1711 305.292 74.1108 306.023 75.816 306.023ZM75.7762 301.827C74.3047 301.827 73.549 300.713 73.549 299.122C73.549 297.571 74.2848 296.318 75.7762 296.318C77.2081 296.318 77.9637 297.472 77.9637 299.122C77.9637 300.812 77.1882 301.827 75.7762 301.827ZM86.824 297.074C86.4561 295.99 85.6308 295.264 84.1194 295.264C82.5086 295.264 81.3154 296.179 81.3154 297.472C81.3154 298.526 81.9419 299.232 83.3439 299.56L84.6166 299.858C85.3872 300.037 85.7501 300.405 85.7501 300.932C85.7501 301.588 85.0541 302.125 83.9603 302.125C83.0008 302.125 82.3993 301.712 82.1904 300.892L81.0768 301.17C81.3502 302.468 82.4191 303.159 83.9802 303.159C85.7551 303.159 86.9632 302.19 86.9632 300.872C86.9632 299.808 86.297 299.137 84.9348 298.804L83.8012 298.526C82.8964 298.302 82.4887 297.999 82.4887 297.412C82.4887 296.756 83.1848 296.278 84.1194 296.278C85.1436 296.278 85.5662 296.845 85.77 297.372L86.824 297.074Z" fill="#1E1E1E"/>
<path d="M41.3068 328.818H40.0938V336.832H39.9943L34.4261 328.818H33.233V339H34.4659V331.006H34.5653L40.1136 339H41.3068V328.818ZM46.9666 339.159C48.5177 339.159 49.6512 338.384 50.0092 337.23L48.8757 336.912C48.5774 337.707 47.8863 338.105 46.9666 338.105C45.5895 338.105 44.6399 337.215 44.5852 335.58H50.1285V335.082C50.1285 332.239 48.4382 331.264 46.8473 331.264C44.7791 331.264 43.4069 332.895 43.4069 335.241C43.4069 337.588 44.7592 339.159 46.9666 339.159ZM44.5852 334.565C44.6647 333.377 45.5049 332.318 46.8473 332.318C48.12 332.318 48.9353 333.273 48.9353 334.565H44.5852ZM55.3843 331.364H53.7537V329.534H52.5804V331.364H51.427V332.358H52.5804V337.131C52.5804 338.463 53.6542 339.099 54.6485 339.099C55.086 339.099 55.3645 339.02 55.5235 338.96L55.2849 337.906C55.1855 337.926 55.0264 337.966 54.7679 337.966C54.2508 337.966 53.7537 337.807 53.7537 336.812V332.358H55.3843V331.364ZM59.0294 339H60.1828L61.8532 333.134H61.9726L63.643 339H64.7964L67.1231 331.364H65.8902L64.2396 337.19H64.1601L62.5493 331.364H61.2964L59.6657 337.21H59.5862L57.9356 331.364H56.7027L59.0294 339ZM71.6668 339.159C73.7349 339.159 75.127 337.588 75.127 335.222C75.127 332.835 73.7349 331.264 71.6668 331.264C69.5986 331.264 68.2065 332.835 68.2065 335.222C68.2065 337.588 69.5986 339.159 71.6668 339.159ZM71.6668 338.105C70.0957 338.105 69.3798 336.753 69.3798 335.222C69.3798 333.69 70.0957 332.318 71.6668 332.318C73.2378 332.318 73.9537 333.69 73.9537 335.222C73.9537 336.753 73.2378 338.105 71.6668 338.105ZM77.068 339H78.2413V334.168C78.2413 333.134 79.0566 332.378 80.1703 332.378C80.4835 332.378 80.8066 332.438 80.8862 332.457V331.264C80.752 331.254 80.4437 331.244 80.2697 331.244C79.3549 331.244 78.5595 331.761 78.2811 332.517H78.2015V331.364H77.068V339ZM82.427 339H83.6003V336.141L84.4206 335.381L87.2793 339H88.7707L85.3055 334.625L88.5321 331.364H87.0804L83.7395 334.764H83.6003V328.818H82.427V339ZM95.6013 333.074C95.2334 331.99 94.4081 331.264 92.8968 331.264C91.286 331.264 90.0928 332.179 90.0928 333.472C90.0928 334.526 90.7192 335.232 92.1212 335.56L93.3939 335.858C94.1645 336.037 94.5274 336.405 94.5274 336.932C94.5274 337.588 93.8314 338.125 92.7377 338.125C91.7782 338.125 91.1766 337.712 90.9678 336.892L89.8542 337.17C90.1276 338.468 91.1965 339.159 92.7576 339.159C94.5324 339.159 95.7405 338.19 95.7405 336.872C95.7405 335.808 95.0743 335.137 93.7121 334.804L92.5786 334.526C91.6738 334.302 91.2661 333.999 91.2661 333.412C91.2661 332.756 91.9621 332.278 92.8968 332.278C93.9209 332.278 94.3435 332.845 94.5473 333.372L95.6013 333.074Z" fill="#1E1E1E"/>
<rect x="24" y="359" width="296" height="1" fill="#EEEEEE"/>
<path d="M33.6506 388L34.6747 385.116H38.7912L39.8153 388H41.108L37.3693 377.818H36.0966L32.358 388H33.6506ZM35.0625 384.023L36.6932 379.429H36.7727L38.4034 384.023H35.0625ZM42.8439 388H43.9774V386.827H44.1166C44.3751 387.244 44.8723 388.159 46.3439 388.159C48.253 388.159 49.5854 386.628 49.5854 384.202C49.5854 381.795 48.253 380.264 46.324 380.264C44.8325 380.264 44.3751 381.179 44.1166 381.577H44.0172V377.818H42.8439V388ZM43.9973 384.182C43.9973 382.472 44.753 381.318 46.1848 381.318C47.6763 381.318 48.4121 382.571 48.4121 384.182C48.4121 385.812 47.6564 387.105 46.1848 387.105C44.7729 387.105 43.9973 385.912 43.9973 384.182ZM54.6324 388.159C56.7006 388.159 58.0926 386.588 58.0926 384.222C58.0926 381.835 56.7006 380.264 54.6324 380.264C52.5642 380.264 51.1722 381.835 51.1722 384.222C51.1722 386.588 52.5642 388.159 54.6324 388.159ZM54.6324 387.105C53.0614 387.105 52.3455 385.753 52.3455 384.222C52.3455 382.69 53.0614 381.318 54.6324 381.318C56.2034 381.318 56.9193 382.69 56.9193 384.222C56.9193 385.753 56.2034 387.105 54.6324 387.105ZM64.8461 384.878C64.8461 386.31 63.7524 386.966 62.8774 386.966C61.9029 386.966 61.2069 386.25 61.2069 385.136V380.364H60.0336V385.216C60.0336 387.165 61.0677 388.099 62.4995 388.099C63.6529 388.099 64.4086 387.483 64.7666 386.707H64.8461V388H66.0194V380.364H64.8461V384.878ZM71.6394 380.364H70.0087V378.534H68.8354V380.364H67.682V381.358H68.8354V386.131C68.8354 387.463 69.9093 388.099 70.9036 388.099C71.3411 388.099 71.6195 388.02 71.7786 387.96L71.54 386.906C71.4406 386.926 71.2815 386.966 71.0229 386.966C70.5059 386.966 70.0087 386.807 70.0087 385.812V381.358H71.6394V380.364Z" fill="#1E1E1E"/>
<path d="M399.5 378.167V379.833H404.992L395.333 389.492L396.508 390.667L406.167 381.008V386.5H407.833V378.167H399.5Z" fill="#1E1E1E"/>
<path d="M8 5C8 2.23858 10.2386 0 13 0H423C425.761 0 428 2.23858 428 5V82H8V5Z" fill="white"/>
<path d="M8 4C8 1.79086 9.79086 0 12 0H424C426.209 0 428 1.79086 428 4V48H8V4Z" fill="#DFE1E6"/>
<g filter="url(#filter1_i)">
<circle cx="30" cy="26" r="6" fill="#ED6A5E"/>
</g>
<circle cx="30" cy="26" r="5.75" stroke="#CE5347" stroke-width="0.5"/>
<g filter="url(#filter2_i)">
<circle cx="50" cy="26" r="6" fill="#F6BE4F"/>
</g>
<circle cx="50" cy="26" r="5.75" stroke="#D6A243" stroke-width="0.5"/>
<g filter="url(#filter3_i)">
<circle cx="70" cy="26" r="6" fill="#62C554"/>
</g>
<circle cx="70" cy="26" r="5.75" stroke="#58A942" stroke-width="0.5"/>
<path d="M92 16C92 11.5817 95.5817 8 100 8H316C320.418 8 324 11.5817 324 16V48H92V16Z" fill="white"/>
<path d="M308.815 26.993L311.84 23.9684C311.944 23.8606 312.001 23.7163 312 23.5665C311.999 23.4166 311.939 23.2733 311.833 23.1674C311.727 23.0614 311.583 23.0013 311.434 23C311.284 22.9987 311.139 23.0563 311.032 23.1604L308.007 26.185L304.982 23.1604C304.875 23.0563 304.73 22.9987 304.581 23C304.431 23.0013 304.287 23.0614 304.181 23.1674C304.075 23.2733 304.015 23.4166 304.014 23.5665C304.013 23.7163 304.07 23.8606 304.174 23.9684L307.199 26.993L304.174 30.0175C304.12 30.0703 304.076 30.1333 304.046 30.203C304.016 30.2727 304.001 30.3477 304 30.4236C303.999 30.4995 304.014 30.5747 304.043 30.645C304.071 30.7152 304.114 30.779 304.167 30.8326C304.221 30.8863 304.285 30.9287 304.355 30.9574C304.425 30.9862 304.501 31.0006 304.576 31C304.652 30.9993 304.727 30.9836 304.797 30.9536C304.867 30.9237 304.93 30.8801 304.982 30.8256L308.007 27.801L311.032 30.8256C311.139 30.9296 311.284 30.9872 311.434 30.9859C311.583 30.9846 311.727 30.9245 311.833 30.8186C311.939 30.7126 311.999 30.5693 312 30.4195C312.001 30.2697 311.944 30.1253 311.84 30.0175L308.815 26.993Z" fill="#3D4043"/>
<path fill-rule="evenodd" clip-rule="evenodd" d="M324 48V40C324 44.4183 327.582 48 332 48H324Z" fill="white"/>
<path fill-rule="evenodd" clip-rule="evenodd" d="M92 48V40C92 44.4183 88.4183 48 84 48H92Z" fill="white"/>
<rect x="104" y="19" width="16" height="16" rx="8" fill="#F7F7F7"/>
<path d="M129.281 30.125C130.609 30.125 131.484 29.3125 131.641 28.25H130.719C130.547 28.9062 130 29.2969 129.281 29.2969C128.188 29.2969 127.484 28.3906 127.484 27C127.484 25.6406 128.203 24.75 129.281 24.75C130.094 24.75 130.578 25.25 130.719 25.7969H131.641C131.484 24.6719 130.531 23.9219 129.266 23.9219C127.641 23.9219 126.563 25.2031 126.563 27.0312C126.563 28.8281 127.594 30.125 129.281 30.125ZM133.91 26.3906C133.91 25.3437 134.578 24.75 135.488 24.75C136.355 24.75 136.879 25.2969 136.879 26.25V30H137.801V26.1875C137.801 24.6445 136.98 23.9219 135.754 23.9219C134.809 23.9219 134.27 24.3164 133.988 24.9375H133.91V22H132.988V30H133.91V26.3906ZM139.487 30H140.409V26.2031C140.409 25.3906 141.05 24.7969 141.925 24.7969C142.171 24.7969 142.425 24.8438 142.487 24.8594V23.9219C142.382 23.9141 142.14 23.9062 142.003 23.9062C141.284 23.9062 140.659 24.3125 140.44 24.9062H140.378V24H139.487V30ZM145.835 30.125C147.46 30.125 148.554 28.8906 148.554 27.0312C148.554 25.1562 147.46 23.9219 145.835 23.9219C144.21 23.9219 143.116 25.1562 143.116 27.0312C143.116 28.8906 144.21 30.125 145.835 30.125ZM145.835 29.2969C144.601 29.2969 144.038 28.2344 144.038 27.0312C144.038 25.8281 144.601 24.75 145.835 24.75C147.069 24.75 147.632 25.8281 147.632 27.0312C147.632 28.2344 147.069 29.2969 145.835 29.2969ZM149.961 30H150.883V26.25C150.883 25.3711 151.523 24.75 152.242 24.75C152.941 24.75 153.43 25.207 153.43 25.8906V30H154.367V26.0937C154.367 25.3203 154.852 24.75 155.695 24.75C156.352 24.75 156.914 25.0977 156.914 25.9844V30H157.836V25.9844C157.836 24.5742 157.078 23.9219 156.008 23.9219C155.148 23.9219 154.52 24.3164 154.211 24.9375H154.148C153.852 24.2969 153.328 23.9219 152.539 23.9219C151.758 23.9219 151.18 24.2969 150.93 24.9375H150.852V24H149.961V30ZM162.037 30.125C163.256 30.125 164.146 29.5156 164.428 28.6094L163.537 28.3594C163.303 28.9844 162.76 29.2969 162.037 29.2969C160.955 29.2969 160.209 28.5977 160.166 27.3125H164.521V26.9219C164.521 24.6875 163.193 23.9219 161.943 23.9219C160.318 23.9219 159.24 25.2031 159.24 27.0469C159.24 28.8906 160.303 30.125 162.037 30.125ZM160.166 26.5156C160.229 25.582 160.889 24.75 161.943 24.75C162.943 24.75 163.584 25.5 163.584 26.5156H160.166ZM166.596 30.0625C166.982 30.0625 167.299 29.7461 167.299 29.3594C167.299 28.9727 166.982 28.6562 166.596 28.6562C166.209 28.6562 165.893 28.9727 165.893 29.3594C165.893 29.7461 166.209 30.0625 166.596 30.0625ZM166.596 25.6094C166.982 25.6094 167.299 25.293 167.299 24.9062C167.299 24.5195 166.982 24.2031 166.596 24.2031C166.209 24.2031 165.893 24.5195 165.893 24.9062C165.893 25.293 166.209 25.6094 166.596 25.6094ZM171.781 21.625H170.938L168.359 31.2031H169.203L171.781 21.625ZM175.702 21.625H174.858L172.28 31.2031H173.124L175.702 21.625ZM177.717 26.3906C177.717 25.3437 178.365 24.75 179.248 24.75C180.104 24.75 180.623 25.3086 180.623 26.25V30H181.545V26.1875C181.545 24.6562 180.729 23.9219 179.514 23.9219C178.607 23.9219 178.045 24.3281 177.764 24.9375H177.686V24H176.795V30H177.717V26.3906ZM185.745 30.125C186.964 30.125 187.854 29.5156 188.136 28.6094L187.245 28.3594C187.011 28.9844 186.468 29.2969 185.745 29.2969C184.663 29.2969 183.917 28.5977 183.874 27.3125H188.229V26.9219C188.229 24.6875 186.901 23.9219 185.651 23.9219C184.026 23.9219 182.948 25.2031 182.948 27.0469C182.948 28.8906 184.011 30.125 185.745 30.125ZM183.874 26.5156C183.937 25.582 184.597 24.75 185.651 24.75C186.651 24.75 187.292 25.5 187.292 26.5156H183.874ZM190.991 30H191.897L193.21 25.3906H193.304L194.616 30H195.522L197.351 24H196.382L195.085 28.5781H195.022L193.757 24H192.772L191.491 28.5938H191.429L190.132 24H189.163L190.991 30ZM201.179 24H199.897V22.5625H198.976V24H198.069V24.7812H198.976V28.5312C198.976 29.5781 199.819 30.0781 200.601 30.0781C200.944 30.0781 201.163 30.0156 201.288 29.9687L201.101 29.1406C201.022 29.1562 200.897 29.1875 200.694 29.1875C200.288 29.1875 199.897 29.0625 199.897 28.2812V24.7812H201.179V24ZM204.331 30.1406C205.378 30.1406 205.925 29.5781 206.112 29.1875H206.159V30H207.081V26.0469C207.081 24.1406 205.628 23.9219 204.862 23.9219C203.956 23.9219 202.925 24.2344 202.456 25.3281L203.331 25.6406C203.534 25.2031 204.015 24.7344 204.894 24.7344C205.741 24.7344 206.159 25.1836 206.159 25.9531V25.9844C206.159 26.4297 205.706 26.3906 204.612 26.5313C203.499 26.6758 202.284 26.9219 202.284 28.2969C202.284 29.4687 203.19 30.1406 204.331 30.1406ZM204.472 29.3125C203.737 29.3125 203.206 28.9844 203.206 28.3437C203.206 27.6406 203.847 27.4219 204.565 27.3281C204.956 27.2812 206.003 27.1719 206.159 26.9844V27.8281C206.159 28.5781 205.565 29.3125 204.472 29.3125ZM208.889 30H209.779V29.0781H209.889C210.092 29.4062 210.482 30.125 211.639 30.125C213.139 30.125 214.186 28.9219 214.186 27.0156C214.186 25.125 213.139 23.9219 211.623 23.9219C210.451 23.9219 210.092 24.6406 209.889 24.9531H209.811V22H208.889V30ZM209.795 27C209.795 25.6562 210.389 24.75 211.514 24.75C212.686 24.75 213.264 25.7344 213.264 27C213.264 28.2812 212.67 29.2969 211.514 29.2969C210.404 29.2969 209.795 28.3594 209.795 27Z" fill="#494B4E"/>
<path d="M347.143 27.1429H342.857V22.8571C342.857 22.6298 342.767 22.4118 342.606 22.2511C342.445 22.0903 342.227 22 342 22C341.773 22 341.555 22.0903 341.394 22.2511C341.233 22.4118 341.143 22.6298 341.143 22.8571V27.1429H336.857C336.63 27.1429 336.412 27.2332 336.251 27.3939C336.09 27.5547 336 27.7727 336 28C336 28.2273 336.09 28.4453 336.251 28.6061C336.412 28.7668 336.63 28.8571 336.857 28.8571H341.143V33.1429C341.143 33.3702 341.233 33.5882 341.394 33.7489C341.555 33.9097 341.773 34 342 34C342.227 34 342.445 33.9097 342.606 33.7489C342.767 33.5882 342.857 33.3702 342.857 33.1429V28.8571H347.143C347.37 28.8571 347.588 28.7668 347.749 28.6061C347.91 28.4453 348 28.2273 348 28C348 27.7727 347.91 27.5547 347.749 27.3939C347.588 27.2332 347.37 27.1429 347.143 27.1429Z" fill="#3D4043"/>
<rect x="8" y="81" width="420" height="1" fill="#DBDCE0"/>
<path d="M37.125 64.1413H26.9871L30.7435 60.4552C30.9029 60.2932 30.9911 60.0763 30.9891 59.8512C30.9871 59.6261 30.8951 59.4107 30.7329 59.2515C30.5706 59.0923 30.3512 59.002 30.1217 59C29.8923 58.9981 29.6713 59.0846 29.5063 59.241L24.2562 64.3929C24.0922 64.554 24 64.7723 24 65C24 65.2277 24.0922 65.446 24.2562 65.6071L29.5063 70.759C29.6713 70.9154 29.8923 71.0019 30.1217 71C30.3512 70.998 30.5706 70.9077 30.7329 70.7485C30.8951 70.5893 30.9871 70.3739 30.9891 70.1488C30.9911 69.9237 30.9029 69.7068 30.7435 69.5448L26.9871 65.8587H37.125C37.3571 65.8587 37.5796 65.7682 37.7437 65.6072C37.9078 65.4461 38 65.2277 38 65C38 64.7723 37.9078 64.5539 37.7437 64.3928C37.5796 64.2318 37.3571 64.1413 37.125 64.1413Z" fill="#5F6267"/>
<path d="M54.875 64.1413H65.0129L61.2565 60.4552C61.0971 60.2932 61.0089 60.0763 61.0109 59.8512C61.0129 59.6261 61.1049 59.4107 61.2671 59.2515C61.4294 59.0923 61.6488 59.002 61.8783 59C62.1077 58.9981 62.3287 59.0846 62.4937 59.241L67.7438 64.3929C67.9078 64.554 68 64.7723 68 65C68 65.2277 67.9078 65.446 67.7438 65.6071L62.4937 70.759C62.3287 70.9154 62.1077 71.0019 61.8783 71C61.6488 70.998 61.4294 70.9077 61.2671 70.7485C61.1049 70.5893 61.0129 70.3739 61.0109 70.1488C61.0089 69.9237 61.0971 69.7068 61.2565 69.5448L65.0129 65.8587H54.875C54.6429 65.8587 54.4204 65.7682 54.2563 65.6072C54.0922 65.4461 54 65.2277 54 65C54 64.7723 54.0922 64.5539 54.2563 64.3928C54.4204 64.2318 54.6429 64.1413 54.875 64.1413Z" fill="#BABCBE"/>
<path d="M101.067 58C100.819 58 100.582 58.0983 100.407 58.2734C100.232 58.4484 100.133 58.6858 100.133 58.9333V61.1901C99.5477 60.2096 98.7151 59.3999 97.7186 58.8418C96.7221 58.2837 95.5967 57.9968 94.4547 58.0098C93.3126 58.0227 92.194 58.335 91.2104 58.9154C90.2268 59.4959 89.4127 60.3243 88.8494 61.3178C88.2861 62.3113 87.9932 63.4352 88.0001 64.5773C88.007 65.7194 88.3134 66.8397 88.8887 67.8263C89.4639 68.8129 90.288 69.6314 91.2785 70.2C92.269 70.7685 93.3914 71.0673 94.5335 71.0664C95.3918 71.0688 96.2421 70.901 97.0351 70.5726C97.8281 70.2441 98.5481 69.7617 99.1534 69.1531C99.3234 68.9771 99.4175 68.7413 99.4153 68.4966C99.4132 68.2519 99.3151 68.0178 99.142 67.8448C98.969 67.6717 98.7349 67.5736 98.4902 67.5715C98.2455 67.5693 98.0097 67.6634 97.8337 67.8334C97.1314 68.5488 96.2181 69.02 95.2281 69.1778C94.2381 69.3355 93.2236 69.1715 92.3337 68.7099C91.4439 68.2482 90.7256 67.5132 90.2845 66.613C89.8434 65.7128 89.7027 64.6948 89.8831 63.7087C90.0636 62.7226 90.5556 61.8203 91.2869 61.1346C92.0182 60.449 92.9502 60.016 93.9459 59.8993C94.9416 59.7827 95.9485 59.9886 96.8184 60.4867C97.6884 60.9848 98.3757 61.7489 98.7791 62.6666H96.4001C96.1526 62.6666 95.9152 62.7649 95.7402 62.9399C95.5651 63.115 95.4668 63.3524 95.4668 63.5999C95.4668 63.8474 95.5651 64.0848 95.7402 64.2598C95.9152 64.4349 96.1526 64.5332 96.4001 64.5332H101.067C101.314 64.5332 101.552 64.4349 101.727 64.2598C101.902 64.0848 102 63.8474 102 63.5999V58.9333C102 58.6858 101.902 58.4484 101.727 58.2734C101.552 58.0983 101.314 58 101.067 58Z" fill="#606368"/>
<path d="M134.738 63.3874L128.612 57.2624C128.262 56.9124 127.738 56.9124 127.388 57.2624L121.263 63.3874C120.913 63.7374 120.913 64.2624 121.263 64.6124C121.613 64.9624 122.138 64.9624 122.488 64.6124L122.75 64.3499V68.3749C122.75 69.8624 123.888 70.9999 125.375 70.9999H130.625C132.113 70.9999 133.25 69.8624 133.25 68.3749V64.3499L133.512 64.6124C133.688 64.7874 133.863 64.8749 134.125 64.8749C134.387 64.8749 134.562 64.7874 134.738 64.6124C135.087 64.2624 135.087 63.7374 134.738 63.3874ZM131.5 68.3749C131.5 68.8999 131.15 69.2499 130.625 69.2499H129.75C129.312 69.2499 129.4 69.2499 128.875 69.2499H127.125C126.6 69.2499 126.688 69.2499 126.25 69.2499H125.375C124.85 69.2499 124.5 68.8999 124.5 68.3749V62.5999L128 59.0999L131.5 62.5999V68.3749Z" fill="#606368"/>
<g filter="url(#filter4_d)">
<rect x="151" y="51" width="173" height="27" rx="13.5" fill="#ECEDEE"/>
<g clip-path="url(#clip0)">
<path d="M170.057 62.6749H169.724V61.3991C169.724 60.7171 169.443 60.063 168.943 59.5808C168.443 59.0986 167.764 58.8276 167.057 58.8276C166.35 58.8276 165.672 59.0986 165.172 59.5808C164.671 60.063 164.39 60.7171 164.39 61.3991V62.6749H164.057C163.792 62.6749 163.538 62.7765 163.35 62.9574C163.163 63.1382 163.057 63.3835 163.057 63.6392V68.8634C163.057 69.1191 163.163 69.3644 163.35 69.5452C163.538 69.726 163.792 69.8276 164.057 69.8276H170.057C170.322 69.8276 170.577 69.726 170.764 69.5452C170.952 69.3644 171.057 69.1191 171.057 68.8634V63.6392C171.057 63.3835 170.952 63.1382 170.764 62.9574C170.577 62.7765 170.322 62.6749 170.057 62.6749ZM165.724 61.3991C165.724 61.0581 165.864 60.731 166.114 60.4899C166.364 60.2488 166.704 60.1134 167.057 60.1134C167.411 60.1134 167.75 60.2488 168 60.4899C168.25 60.731 168.39 61.0581 168.39 61.3991V62.6749H165.724V61.3991Z" fill="#626365"/>
</g>
<path d="M188.02 63.4972C187.678 62.4908 186.912 61.8168 185.509 61.8168C184.013 61.8168 182.905 62.6662 182.905 63.8665C182.905 64.8452 183.487 65.5007 184.788 65.8054L185.97 66.0824C186.686 66.2486 187.023 66.5902 187.023 67.0795C187.023 67.6889 186.376 68.1875 185.361 68.1875C184.47 68.1875 183.911 67.8043 183.717 67.0426L182.683 67.3011C182.937 68.506 183.93 69.1477 185.379 69.1477C187.027 69.1477 188.149 68.2475 188.149 67.0241C188.149 66.0362 187.531 65.413 186.266 65.1037L185.213 64.8452C184.373 64.6374 183.994 64.3558 183.994 63.8111C183.994 63.2017 184.641 62.7585 185.509 62.7585C186.46 62.7585 186.852 63.2848 187.041 63.7741L188.02 63.4972ZM192.762 69.1477C194.203 69.1477 195.255 68.4276 195.587 67.3565L194.535 67.0611C194.258 67.7997 193.616 68.169 192.762 68.169C191.483 68.169 190.602 67.3427 190.551 65.8239H195.698V65.3622C195.698 62.7216 194.129 61.8168 192.651 61.8168C190.731 61.8168 189.457 63.331 189.457 65.5099C189.457 67.6889 190.712 69.1477 192.762 69.1477ZM190.551 64.8821C190.625 63.7788 191.405 62.7955 192.651 62.7955C193.833 62.7955 194.59 63.6818 194.59 64.8821H190.551ZM199.442 69.1662C200.679 69.1662 201.326 68.5014 201.547 68.0398H201.603V69H202.692V64.3281C202.692 62.0753 200.975 61.8168 200.07 61.8168C198.999 61.8168 197.78 62.1861 197.226 63.4787L198.26 63.848C198.5 63.331 199.068 62.777 200.107 62.777C201.109 62.777 201.603 63.3079 201.603 64.2173V64.2543C201.603 64.7805 201.067 64.7344 199.775 64.9006C198.459 65.0714 197.023 65.3622 197.023 66.9872C197.023 68.3722 198.094 69.1662 199.442 69.1662ZM199.608 68.1875C198.741 68.1875 198.113 67.7997 198.113 67.0426C198.113 66.2116 198.87 65.9531 199.719 65.8423C200.181 65.7869 201.418 65.6577 201.603 65.4361V66.4332C201.603 67.3196 200.901 68.1875 199.608 68.1875ZM204.681 69H205.77V64.5128C205.77 63.5526 206.527 62.8509 207.561 62.8509C207.852 62.8509 208.152 62.9062 208.226 62.9247V61.8168C208.102 61.8075 207.815 61.7983 207.654 61.7983C206.804 61.7983 206.066 62.2784 205.807 62.9801H205.733V61.9091H204.681V69ZM212.183 69.1477C213.752 69.1477 214.786 68.1875 214.971 66.9318H213.881C213.678 67.7074 213.032 68.169 212.183 68.169C210.89 68.169 210.059 67.098 210.059 65.4545C210.059 63.848 210.908 62.7955 212.183 62.7955C213.143 62.7955 213.715 63.3864 213.881 64.0327H214.971C214.786 62.7031 213.66 61.8168 212.164 61.8168C210.244 61.8168 208.969 63.331 208.969 65.4915C208.969 67.6151 210.188 69.1477 212.183 69.1477ZM217.653 64.7344C217.653 63.4972 218.442 62.7955 219.518 62.7955C220.543 62.7955 221.162 63.4418 221.162 64.5682V69H222.251V64.4943C222.251 62.6708 221.282 61.8168 219.832 61.8168C218.715 61.8168 218.078 62.283 217.745 63.017H217.653V59.5455H216.564V69H217.653V64.7344ZM230.781 69.1477C232.702 69.1477 233.994 67.6889 233.994 65.4915C233.994 63.2756 232.702 61.8168 230.781 61.8168C228.861 61.8168 227.568 63.2756 227.568 65.4915C227.568 67.6889 228.861 69.1477 230.781 69.1477ZM230.781 68.169C229.322 68.169 228.658 66.9134 228.658 65.4915C228.658 64.0696 229.322 62.7955 230.781 62.7955C232.24 62.7955 232.905 64.0696 232.905 65.4915C232.905 66.9134 232.24 68.169 230.781 68.169ZM235.657 69H236.747V64.5128C236.747 63.5526 237.504 62.8509 238.538 62.8509C238.829 62.8509 239.129 62.9062 239.203 62.9247V61.8168C239.078 61.8075 238.792 61.7983 238.63 61.7983C237.781 61.7983 237.042 62.2784 236.784 62.9801H236.71V61.9091H235.657V69ZM247.234 61.9091H245.72V60.2102H244.631V61.9091H243.56V62.8324H244.631V67.2642C244.631 68.5014 245.628 69.0923 246.551 69.0923C246.957 69.0923 247.216 69.0185 247.364 68.9631L247.142 67.9844C247.05 68.0028 246.902 68.0398 246.662 68.0398C246.182 68.0398 245.72 67.892 245.72 66.9688V62.8324H247.234V61.9091ZM249.575 71.6591C250.558 71.6591 251.251 71.1374 251.661 70.0341L254.681 61.9276L253.49 61.9091L251.532 67.5597H251.458L249.501 61.9091H248.319L250.941 69.0369L250.738 69.5909C250.341 70.6712 249.852 70.7727 249.058 70.5696L248.781 71.5298C248.892 71.5852 249.206 71.6591 249.575 71.6591ZM256.122 71.6591H257.212V67.9105H257.304C257.544 68.2983 258.006 69.1477 259.372 69.1477C261.145 69.1477 262.382 67.7259 262.382 65.473C262.382 63.2386 261.145 61.8168 259.354 61.8168C257.969 61.8168 257.544 62.6662 257.304 63.0355H257.175V61.9091H256.122V71.6591ZM257.193 65.4545C257.193 63.8665 257.895 62.7955 259.224 62.7955C260.609 62.7955 261.293 63.9588 261.293 65.4545C261.293 66.9688 260.591 68.169 259.224 68.169C257.913 68.169 257.193 67.0611 257.193 65.4545ZM267.017 69.1477C268.457 69.1477 269.51 68.4276 269.842 67.3565L268.79 67.0611C268.513 67.7997 267.871 68.169 267.017 68.169C265.738 68.169 264.857 67.3427 264.806 65.8239H269.953V65.3622C269.953 62.7216 268.384 61.8168 266.906 61.8168C264.986 61.8168 263.712 63.331 263.712 65.5099C263.712 67.6889 264.967 69.1477 267.017 69.1477ZM264.806 64.8821C264.88 63.7788 265.66 62.7955 266.906 62.7955C268.088 62.7955 268.845 63.6818 268.845 64.8821H264.806ZM277.353 69.1662C278.591 69.1662 279.237 68.5014 279.458 68.0398H279.514V69H280.603V64.3281C280.603 62.0753 278.886 61.8168 277.981 61.8168C276.91 61.8168 275.691 62.1861 275.137 63.4787L276.172 63.848C276.412 63.331 276.979 62.777 278.018 62.777C279.02 62.777 279.514 63.3079 279.514 64.2173V64.2543C279.514 64.7805 278.978 64.7344 277.686 64.9006C276.37 65.0714 274.934 65.3622 274.934 66.9872C274.934 68.3722 276.005 69.1662 277.353 69.1662ZM277.52 68.1875C276.652 68.1875 276.024 67.7997 276.024 67.0426C276.024 66.2116 276.781 65.9531 277.63 65.8423C278.092 65.7869 279.329 65.6577 279.514 65.4361V66.4332C279.514 67.3196 278.812 68.1875 277.52 68.1875ZM290.717 66.1009C290.717 67.4304 289.701 68.0398 288.889 68.0398C287.984 68.0398 287.338 67.375 287.338 66.3409V61.9091H286.248V66.4148C286.248 68.2244 287.208 69.0923 288.538 69.0923C289.609 69.0923 290.311 68.5199 290.643 67.7997H290.717V69H291.806V61.9091H290.717V66.1009ZM293.802 69H294.891V64.5128C294.891 63.5526 295.648 62.8509 296.683 62.8509C296.973 62.8509 297.273 62.9062 297.347 62.9247V61.8168C297.223 61.8075 296.936 61.7983 296.775 61.7983C295.925 61.7983 295.187 62.2784 294.928 62.9801H294.854V61.9091H293.802V69ZM299.728 59.5455H298.639V69H299.728V59.5455Z" fill="#616161"/>
</g>
<rect x="336" y="56" width="18" height="18" rx="9" fill="#16DB9A"/>
<path d="M376.207 67.0314C374.857 65.4628 372.954 67.5714 371 67.5714C369.046 67.5714 367.143 65.4628 365.857 67.0314C365.67 67.2486 365.56 67.5223 365.546 67.8088C365.532 68.0954 365.615 68.3784 365.78 68.6128C366.372 69.4668 367.161 70.1647 368.082 70.6466C369.002 71.1286 370.025 71.3804 371.064 71.3804C372.103 71.3804 373.127 71.1286 374.047 70.6466C374.967 70.1647 375.757 69.4668 376.349 68.6128C376.505 68.3715 376.577 68.0844 376.551 67.7977C376.525 67.511 376.404 67.2411 376.207 67.0314Z" fill="#606368"/>
<path d="M371 66.2857C373.13 66.2857 374.857 64.5588 374.857 62.4286C374.857 60.2983 373.13 58.5714 371 58.5714C368.87 58.5714 367.143 60.2983 367.143 62.4286C367.143 64.5588 368.87 66.2857 371 66.2857Z" fill="#606368"/>
<path d="M371 56C369.22 56 367.48 56.5278 366 57.5168C364.52 58.5057 363.366 59.9113 362.685 61.5558C362.004 63.2004 361.826 65.01 362.173 66.7558C362.52 68.5016 363.377 70.1053 364.636 71.364C365.895 72.6226 367.498 73.4798 369.244 73.8271C370.99 74.1743 372.8 73.9961 374.444 73.3149C376.089 72.6337 377.494 71.4802 378.483 70.0001C379.472 68.5201 380 66.78 380 65C380 62.6131 379.052 60.3239 377.364 58.636C375.676 56.9482 373.387 56 371 56ZM371 72.7143C369.474 72.7143 367.983 72.2618 366.714 71.4142C365.446 70.5665 364.457 69.3617 363.873 67.9521C363.289 66.5425 363.136 64.9914 363.434 63.495C363.732 61.9986 364.466 60.624 365.545 59.5452C366.624 58.4663 367.999 57.7316 369.495 57.4339C370.991 57.1363 372.543 57.2891 373.952 57.8729C375.362 58.4568 376.567 59.4456 377.414 60.7142C378.262 61.9828 378.714 63.4743 378.714 65C378.714 67.046 377.902 69.0081 376.455 70.4548C375.008 71.9015 373.046 72.7143 371 72.7143Z" fill="#606368"/>
<rect x="399" y="58" width="3" height="3.21872" rx="1.5" fill="#606368"/>
<rect x="399" y="63.3646" width="3" height="3.21872" rx="1.5" fill="#606368"/>
<rect x="399" y="68.7291" width="3" height="3.21872" rx="1.5" fill="#606368"/>
<defs>
<filter id="filter0_d" x="0" y="42" width="436" height="378" filterUnits="userSpaceOnUse" color-interpolation-filters="sRGB">
<feFlood flood-opacity="0" result="BackgroundImageFix"/>
<feColorMatrix in="SourceAlpha" type="matrix" values="0 0 0 0 0 0 0 0 0 0 0 0 0 0 0 0 0 0 127 0" result="hardAlpha"/>
<feOffset dy="2"/>
<feGaussianBlur stdDeviation="4"/>
<feColorMatrix type="matrix" values="0 0 0 0 0 0 0 0 0 0 0 0 0 0 0 0 0 0 0.15 0"/>
<feBlend mode="normal" in2="BackgroundImageFix" result="effect1_dropShadow"/>
<feBlend mode="normal" in="SourceGraphic" in2="effect1_dropShadow" result="shape"/>
</filter>
<filter id="filter1_i" x="24" y="20" width="12" height="12" filterUnits="userSpaceOnUse" color-interpolation-filters="sRGB">
<feFlood flood-opacity="0" result="BackgroundImageFix"/>
<feBlend mode="normal" in="SourceGraphic" in2="BackgroundImageFix" result="shape"/>
<feColorMatrix in="SourceAlpha" type="matrix" values="0 0 0 0 0 0 0 0 0 0 0 0 0 0 0 0 0 0 127 0" result="hardAlpha"/>
<feOffset/>
<feGaussianBlur stdDeviation="3"/>
<feComposite in2="hardAlpha" operator="arithmetic" k2="-1" k3="1"/>
<feColorMatrix type="matrix" values="0 0 0 0 0.92549 0 0 0 0 0.427451 0 0 0 0 0.384314 0 0 0 1 0"/>
<feBlend mode="normal" in2="shape" result="effect1_innerShadow"/>
</filter>
<filter id="filter2_i" x="44" y="20" width="12" height="12" filterUnits="userSpaceOnUse" color-interpolation-filters="sRGB">
<feFlood flood-opacity="0" result="BackgroundImageFix"/>
<feBlend mode="normal" in="SourceGraphic" in2="BackgroundImageFix" result="shape"/>
<feColorMatrix in="SourceAlpha" type="matrix" values="0 0 0 0 0 0 0 0 0 0 0 0 0 0 0 0 0 0 127 0" result="hardAlpha"/>
<feOffset/>
<feGaussianBlur stdDeviation="3"/>
<feComposite in2="hardAlpha" operator="arithmetic" k2="-1" k3="1"/>
<feColorMatrix type="matrix" values="0 0 0 0 0.960784 0 0 0 0 0.768627 0 0 0 0 0.317647 0 0 0 1 0"/>
<feBlend mode="normal" in2="shape" result="effect1_innerShadow"/>
</filter>
<filter id="filter3_i" x="64" y="20" width="12" height="12" filterUnits="userSpaceOnUse" color-interpolation-filters="sRGB">
<feFlood flood-opacity="0" result="BackgroundImageFix"/>
<feBlend mode="normal" in="SourceGraphic" in2="BackgroundImageFix" result="shape"/>
<feColorMatrix in="SourceAlpha" type="matrix" values="0 0 0 0 0 0 0 0 0 0 0 0 0 0 0 0 0 0 127 0" result="hardAlpha"/>
<feOffset/>
<feGaussianBlur stdDeviation="3"/>
<feComposite in2="hardAlpha" operator="arithmetic" k2="-1" k3="1"/>
<feColorMatrix type="matrix" values="0 0 0 0 0.407843 0 0 0 0 0.8 0 0 0 0 0.345098 0 0 0 1 0"/>
<feBlend mode="normal" in2="shape" result="effect1_innerShadow"/>
</filter>
<filter id="filter4_d" x="147" y="48" width="181" height="35" filterUnits="userSpaceOnUse" color-interpolation-filters="sRGB">
<feFlood flood-opacity="0" result="BackgroundImageFix"/>
<feColorMatrix in="SourceAlpha" type="matrix" values="0 0 0 0 0 0 0 0 0 0 0 0 0 0 0 0 0 0 127 0" result="hardAlpha"/>
<feOffset dy="1"/>
<feGaussianBlur stdDeviation="2"/>
<feColorMatrix type="matrix" values="0 0 0 0 0 0 0 0 0 0 0 0 0 0 0 0 0 0 0.05 0"/>
<feBlend mode="normal" in2="BackgroundImageFix" result="effect1_dropShadow"/>
<feBlend mode="normal" in="SourceGraphic" in2="effect1_dropShadow" result="shape"/>
</filter>
<clipPath id="clip0">
<rect width="9" height="12.5172" fill="white" transform="translate(163 58.8276)"/>
</clipPath>
</defs>
</svg>
